<svg width="71" height="61" viewBox="0 0 71 61" fill="none" xmlns="http://www.w3.org/2000/svg">
<path d="M35.7578 60.8783C55.2215 60.8783 71 59.9571 71 58.8207C71 57.6844 55.2215 56.7632 35.7578 56.7632C16.2941 56.7632 0.515625 57.6844 0.515625 58.8207C0.515625 59.9571 16.2941 60.8783 35.7578 60.8783Z" fill="#F5F5F5"/>
<path d="M14.0116 18.4731C13.8517 18.8366 13.6753 19.2292 13.5208 19.6128C13.3663 19.9963 13.2064 20.3907 13.0664 20.7833C12.7793 21.5487 12.549 22.3342 12.3776 23.1335L12.3248 23.4244L12.3067 23.5334C12.3067 23.5643 12.3067 23.6043 12.2958 23.6407C12.2888 23.8176 12.2925 23.9949 12.3067 24.1714C12.3412 24.5549 12.403 24.9657 12.4884 25.3765C12.6411 26.1999 12.8356 27.0487 13.0337 27.8848L12.1013 28.2484C11.6666 27.456 11.2964 26.63 10.9943 25.7782C10.8352 25.3349 10.7064 24.8812 10.609 24.4204C10.5544 24.1655 10.5204 23.9065 10.5072 23.6461C10.5072 23.5734 10.5072 23.5043 10.5072 23.4262C10.5072 23.348 10.5072 23.2608 10.5199 23.2099L10.5563 22.8463C10.6106 22.3782 10.6938 21.9138 10.8053 21.4559C10.9071 21.0014 11.038 20.5598 11.1688 20.1235C11.2997 19.6873 11.4633 19.2583 11.636 18.8366C11.7214 18.6258 11.8177 18.4168 11.9013 18.2077C11.9849 17.9987 12.0831 17.7988 12.1994 17.5752L14.0116 18.4731Z" fill="#E4897B"/>
<path d="M12.9846 27.6392L13.6935 28.3317L12.1467 29.0587C12.1467 29.0587 11.7723 28.4026 12.0322 27.81L12.9846 27.6392Z" fill="#E4897B"/>
<path d="M14.266 29.3626L12.9592 29.897L12.1485 29.0518L13.6935 28.332L14.266 29.3626Z" fill="#E4897B"/>
<path opacity="0.4" d="M40.7399 28.6172C38.1681 28.3284 35.7397 27.2836 33.7616 25.6149C31.7835 23.9462 30.3446 21.7285 29.6267 19.2421C28.9089 16.7557 28.9443 14.1123 29.7285 11.646C30.5128 9.17976 32.0107 7.00139 34.0328 5.38629C36.0549 3.77119 38.5104 2.79188 41.0891 2.57216C43.6677 2.35244 46.2535 2.90218 48.5197 4.15187C50.786 5.40157 52.6308 7.29511 53.821 9.59313C55.0112 11.8911 55.4934 14.4905 55.2065 17.0625C55.0159 18.7713 54.4905 20.4258 53.6602 21.9315C52.8299 23.4372 51.711 24.7645 50.3675 25.8375C49.0241 26.9106 47.4823 27.7084 45.8303 28.1853C44.1784 28.6623 42.4486 28.809 40.7399 28.6172Z" fill="#FAFAFA"/>
<path opacity="0.4" d="M50.2608 5.30041L30.3576 21.2029C30.274 21.0212 30.1922 20.8394 30.1159 20.6576C29.6169 19.4708 29.2977 18.2161 29.1689 16.9351L46.3601 3.19922C47.7715 3.67002 49.0911 4.38084 50.2608 5.30041Z" fill="#FAFAFA"/>
<path opacity="0.4" d="M54.8539 12.2678L36.1413 27.2179C34.3636 26.2912 32.8231 24.9677 31.639 23.3499L52.0711 7.02393C53.3882 8.53564 54.3402 10.3298 54.8539 12.2678Z" fill="#FAFAFA"/>
<path d="M27.4675 10.61L27.2949 10.5518C27.5939 9.66937 27.9698 8.81484 28.4182 7.99805L28.5763 8.0853C28.1338 8.89294 27.7628 9.73773 27.4675 10.61ZM29.6741 6.36763L29.5269 6.26039C31.0207 4.2406 32.9757 2.6072 35.2289 1.49636L35.3106 1.65995C33.083 2.75932 31.1505 4.37527 29.6741 6.37308V6.36763ZM49.5936 1.90896C48.9997 1.59038 48.3852 1.31166 47.7542 1.07467L47.8196 0.903809C48.4568 1.14636 49.0773 1.43053 49.6773 1.75446L49.5936 1.90896Z" fill="#FFC107"/>
<path opacity="0.3" d="M27.4675 10.61L27.2949 10.5518C27.5939 9.66937 27.9698 8.81484 28.4182 7.99805L28.5763 8.0853C28.1338 8.89294 27.7628 9.73773 27.4675 10.61ZM29.6741 6.36763L29.5269 6.26039C31.0207 4.2406 32.9757 2.6072 35.2289 1.49636L35.3106 1.65995C33.083 2.75932 31.1505 4.37527 29.6741 6.37308V6.36763ZM49.5936 1.90896C48.9997 1.59038 48.3852 1.31166 47.7542 1.07467L47.8196 0.903809C48.4568 1.14636 49.0773 1.43053 49.6773 1.75446L49.5936 1.90896Z" fill="black"/>
<path d="M55.7282 8.92681C54.0451 5.43609 51.0833 2.72691 47.4568 1.3609C43.8302 -0.00510548 39.8171 0.0768264 36.2493 1.58971C32.6815 3.1026 29.8328 5.9304 28.2936 9.48691C26.7544 13.0434 26.6428 17.0558 27.982 20.6924C26.7678 21.1177 25.5681 21.5739 24.3758 22.0447C22.6563 22.7269 20.9526 23.4394 19.2646 24.1822C17.5778 24.9293 15.8983 25.6909 14.2352 26.487C13.4009 26.8778 12.5775 27.2904 11.7468 27.6903C11.3147 27.876 10.9232 28.1446 10.5944 28.481C10.4165 28.6672 10.2599 28.8727 10.1273 29.0935C9.96556 29.3547 9.84307 29.6383 9.76378 29.9351C9.62701 30.4699 9.68616 31.0361 9.93052 31.5312C10.1749 32.0262 10.5883 32.4175 11.0961 32.6343C11.3781 32.7525 11.6756 32.8296 11.9795 32.8633C12.2362 32.8924 12.4953 32.8924 12.752 32.8633C13.2184 32.8067 13.6692 32.6591 14.0789 32.4289C14.9022 32.0126 15.7311 31.6109 16.549 31.1838C18.1849 30.3495 19.8208 29.4788 21.4367 28.5955C23.0525 27.7121 24.6702 26.7869 26.2479 25.8381C27.3385 25.1783 28.44 24.504 29.5197 23.7987C31.5929 27.0717 34.8459 29.4215 38.6045 30.3614C42.3631 31.3013 46.3393 30.7591 49.709 28.8472C53.0788 26.9353 55.5838 23.8003 56.7051 20.0917C57.8264 16.3832 57.4779 12.3854 55.7319 8.92681H55.7282ZM47.4652 26.2907C45.3529 27.3334 42.9788 27.7262 40.6432 27.4197C38.3076 27.1131 36.1153 26.1209 34.3436 24.5685C32.5719 23.016 31.3002 20.9731 30.6895 18.698C30.0788 16.4229 30.1564 14.0178 30.9125 11.7868C31.6686 9.55578 33.0693 7.59908 34.9375 6.16409C36.8056 4.7291 39.0573 3.88027 41.4078 3.72493C43.7583 3.56959 46.1021 4.11471 48.1428 5.29137C50.1836 6.46803 51.8296 8.22338 52.8727 10.3355C53.5655 11.7381 53.9751 13.2635 54.0783 14.8245C54.1815 16.3855 53.9761 17.9516 53.474 19.4332C52.9718 20.9148 52.1827 22.283 51.1517 23.4596C50.1207 24.6363 48.8681 25.5983 47.4652 26.2907Z" fill="#FFC107"/>
<path opacity="0.3" d="M55.7282 8.92681C54.0451 5.43609 51.0833 2.72691 47.4568 1.3609C43.8302 -0.00510548 39.8171 0.0768264 36.2493 1.58971C32.6815 3.1026 29.8328 5.9304 28.2936 9.48691C26.7544 13.0434 26.6428 17.0558 27.982 20.6924C26.7678 21.1177 25.5681 21.5739 24.3758 22.0447C22.6563 22.7269 20.9526 23.4394 19.2646 24.1822C17.5778 24.9293 15.8983 25.6909 14.2352 26.487C13.4009 26.8778 12.5775 27.2904 11.7468 27.6903C11.3147 27.876 10.9232 28.1446 10.5944 28.481C10.4165 28.6672 10.2599 28.8727 10.1273 29.0935C9.96556 29.3547 9.84307 29.6383 9.76378 29.9351C9.62701 30.4699 9.68616 31.0361 9.93052 31.5312C10.1749 32.0262 10.5883 32.4175 11.0961 32.6343C11.3781 32.7525 11.6756 32.8296 11.9795 32.8633C12.2362 32.8924 12.4953 32.8924 12.752 32.8633C13.2184 32.8067 13.6692 32.6591 14.0789 32.4289C14.9022 32.0126 15.7311 31.6109 16.549 31.1838C18.1849 30.3495 19.8208 29.4788 21.4367 28.5955C23.0525 27.7121 24.6702 26.7869 26.2479 25.8381C27.3385 25.1783 28.44 24.504 29.5197 23.7987C31.5929 27.0717 34.8459 29.4215 38.6045 30.3614C42.3631 31.3013 46.3393 30.7591 49.709 28.8472C53.0788 26.9353 55.5838 23.8003 56.7051 20.0917C57.8264 16.3832 57.4779 12.3854 55.7319 8.92681H55.7282ZM47.4652 26.2907C45.3529 27.3334 42.9788 27.7262 40.6432 27.4197C38.3076 27.1131 36.1153 26.1209 34.3436 24.5685C32.5719 23.016 31.3002 20.9731 30.6895 18.698C30.0788 16.4229 30.1564 14.0178 30.9125 11.7868C31.6686 9.55578 33.0693 7.59908 34.9375 6.16409C36.8056 4.7291 39.0573 3.88027 41.4078 3.72493C43.7583 3.56959 46.1021 4.11471 48.1428 5.29137C50.1836 6.46803 51.8296 8.22338 52.8727 10.3355C53.5655 11.7381 53.9751 13.2635 54.0783 14.8245C54.1815 16.3855 53.9761 17.9516 53.474 19.4332C52.9718 20.9148 52.1827 22.283 51.1517 23.4596C50.1207 24.6363 48.8681 25.5983 47.4652 26.2907Z" fill="black"/>
<path d="M19.0356 11.9821C19.0356 12.0893 19.0919 12.1766 19.1628 12.1766C19.2337 12.1766 19.2901 12.0893 19.2901 11.9821C19.2901 11.8748 19.2337 11.7876 19.1628 11.7876C19.0919 11.7876 19.0356 11.8821 19.0356 11.9821Z" fill="#263238"/>
<path d="M19.0864 12.1768C19.2151 12.5059 19.3882 12.816 19.6008 13.0983C19.5273 13.1509 19.4431 13.1868 19.3543 13.2034C19.2654 13.2201 19.174 13.2171 19.0864 13.1946V12.1768Z" fill="#DE5753"/>
<path d="M18.6593 11.3843C18.6492 11.3843 18.6392 11.382 18.6301 11.3776C18.6209 11.3732 18.6129 11.3668 18.6066 11.3588C18.5971 11.345 18.5934 11.328 18.5961 11.3114C18.5988 11.2948 18.6078 11.2799 18.6212 11.2698C18.7012 11.2091 18.7947 11.1686 18.8938 11.1518C18.9929 11.135 19.0945 11.1425 19.1901 11.1734C19.1987 11.1758 19.2067 11.1799 19.2135 11.1855C19.2204 11.1911 19.2261 11.1981 19.2301 11.2061C19.2341 11.214 19.2364 11.2227 19.2369 11.2316C19.2373 11.2405 19.2359 11.2493 19.2327 11.2576C19.2295 11.266 19.2246 11.2735 19.2183 11.2798C19.2121 11.2861 19.2045 11.291 19.1962 11.2942C19.1879 11.2974 19.179 11.2988 19.1701 11.2983C19.1613 11.2979 19.1526 11.2956 19.1446 11.2916C19.0687 11.2683 18.9883 11.2636 18.9102 11.2778C18.8321 11.292 18.7585 11.3248 18.6957 11.3734C18.6849 11.3805 18.6722 11.3843 18.6593 11.3843Z" fill="#263238"/>
<path d="M15.3639 12.791C15.5457 13.7671 15.7456 15.5575 15.0622 16.21C15.0622 16.21 15.3294 17.2006 17.1452 17.2006C19.1446 17.2006 18.0976 16.21 18.0976 16.21C17.0071 15.9483 17.038 15.1412 17.227 14.3814L15.3639 12.791Z" fill="#E4897B"/>
<path d="M14.246 16.7243C14.4623 16.388 14.0988 15.5719 14.0988 15.5719C14.0988 15.5719 17.3124 14.7631 18.6266 16.0045C18.8992 16.2608 18.5975 16.6389 18.5975 16.6389L14.246 16.7243Z" fill="#FFC107"/>
<path opacity="0.1" d="M14.246 16.7243C14.4623 16.388 14.0988 15.5719 14.0988 15.5719C14.0988 15.5719 17.3124 14.7631 18.6266 16.0045C18.8992 16.2608 18.5975 16.6389 18.5975 16.6389L14.246 16.7243Z" fill="black"/>
<path d="M8.92948 53.8096C8.76044 53.8096 8.48961 53.5279 8.40963 53.4225C8.40619 53.4174 8.40436 53.4114 8.40436 53.4052C8.40436 53.3991 8.40619 53.3931 8.40963 53.3879C8.41257 53.3829 8.41682 53.3787 8.42193 53.3758C8.42705 53.3729 8.43285 53.3715 8.43871 53.3716C8.45871 53.3716 8.90403 53.4116 9.02581 53.5697C9.03905 53.5864 9.04851 53.6058 9.05353 53.6265C9.05855 53.6472 9.05902 53.6688 9.05489 53.6897C9.05331 53.7167 9.04337 53.7426 9.02644 53.7638C9.00951 53.785 8.98643 53.8003 8.96038 53.8078L8.92948 53.8096ZM8.50779 53.4461C8.64047 53.5988 8.85314 53.7715 8.94402 53.7497C8.94402 53.7497 8.98037 53.7406 8.99128 53.6824C8.99367 53.6703 8.99327 53.6577 8.99013 53.6458C8.98698 53.6338 8.98116 53.6227 8.9731 53.6133C8.83845 53.5114 8.67644 53.4519 8.50779 53.4425V53.4461Z" fill="#FFC107"/>
<path d="M8.52782 53.4428C8.49518 53.4461 8.4623 53.4461 8.42966 53.4428C8.42392 53.4424 8.41843 53.4403 8.4139 53.4367C8.40937 53.4331 8.406 53.4283 8.40422 53.4228C8.40166 53.4178 8.40033 53.4122 8.40033 53.4065C8.40033 53.4008 8.40166 53.3952 8.40422 53.3901C8.41694 53.3792 8.68413 53.1011 8.88589 53.1011C8.91004 53.1006 8.93402 53.1051 8.95626 53.1145C8.97851 53.1239 8.99851 53.138 9.01494 53.1557C9.03304 53.1708 9.04542 53.1917 9.05005 53.2148C9.05468 53.2379 9.05127 53.2619 9.04039 53.2829C8.98768 53.3847 8.70958 53.4428 8.52782 53.4428ZM8.50419 53.3792C8.68595 53.3792 8.94951 53.3229 8.99313 53.2429C8.99313 53.2429 9.00586 53.2193 8.97677 53.1902C8.9662 53.1787 8.95323 53.1696 8.93879 53.1637C8.92434 53.1577 8.90877 53.155 8.89316 53.1557C8.74416 53.1898 8.60874 53.2677 8.50419 53.3792Z" fill="#FFC107"/>
<path d="M20.9241 57.9359C20.7863 57.9349 20.6489 57.9222 20.5133 57.8977C20.5066 57.8964 20.5005 57.8928 20.4962 57.8875C20.4919 57.8822 20.4896 57.8755 20.4897 57.8686C20.4887 57.8624 20.4895 57.8559 20.4921 57.8501C20.4947 57.8443 20.4989 57.8394 20.5042 57.8359C20.5242 57.825 20.9895 57.5578 21.2131 57.6196C21.2338 57.6243 21.2534 57.6332 21.2706 57.6457C21.2878 57.6582 21.3022 57.674 21.3131 57.6923C21.3273 57.7125 21.3349 57.7367 21.3349 57.7614C21.3349 57.7861 21.3273 57.8102 21.3131 57.8305C21.2604 57.9123 21.095 57.9359 20.9241 57.9359ZM20.6169 57.8505C20.8641 57.8868 21.2022 57.885 21.264 57.7977C21.2731 57.7868 21.2804 57.7668 21.264 57.7287C21.2501 57.706 21.2279 57.6897 21.2022 57.6832C21.0604 57.6469 20.7787 57.7668 20.6169 57.8505Z" fill="#FFC107"/>
<path d="M20.5206 57.8998C20.5146 57.9015 20.5083 57.9015 20.5024 57.8998C20.4973 57.8966 20.4934 57.8919 20.4911 57.8863C20.4889 57.8808 20.4883 57.8747 20.4897 57.8689C20.502 57.6797 20.5746 57.4994 20.6969 57.3545C20.7216 57.3332 20.7506 57.3174 20.782 57.3083C20.8134 57.2992 20.8463 57.297 20.8786 57.3018C20.9659 57.3018 20.9913 57.3545 20.9968 57.389C21.0204 57.5399 20.7023 57.8289 20.5406 57.9016L20.5206 57.8998ZM20.8459 57.3545C20.8059 57.3542 20.7672 57.3684 20.7369 57.3945C20.6341 57.5093 20.5704 57.6538 20.5551 57.8071C20.7187 57.7071 20.9368 57.4817 20.9186 57.3908C20.9186 57.3908 20.9186 57.3599 20.8568 57.3545H20.8459Z" fill="#FFC107"/>
<path d="M19.0519 57.8667H20.3878L20.5205 54.7749H19.1846L19.0519 57.8667Z" fill="#E4897B"/>
<path d="M7.15546 52.5591L8.27149 53.2898L10.7362 51.2086L9.61836 50.4761L7.15546 52.5591Z" fill="#E4897B"/>
<path d="M8.45507 53.2208L7.29541 52.2702C7.27493 52.2533 7.24923 52.2441 7.22271 52.2441C7.19619 52.2441 7.17049 52.2533 7.15 52.2702L6.19393 53.0209C6.17083 53.0392 6.15217 53.0626 6.13935 53.0892C6.12653 53.1158 6.11987 53.1449 6.11987 53.1745C6.11987 53.204 6.12653 53.2331 6.13935 53.2597C6.15217 53.2863 6.17083 53.3097 6.19393 53.328C6.60471 53.6534 6.82101 53.7915 7.33177 54.2096C7.64622 54.4659 8.42235 55.2511 8.8604 55.6055C9.29845 55.96 9.70015 55.5783 9.55474 55.3947C8.90221 54.5677 8.64592 53.8606 8.5714 53.4226C8.55852 53.3434 8.51715 53.2716 8.45507 53.2208Z" fill="#263238"/>
<path d="M20.3788 57.7124H18.9247C18.8981 57.7125 18.8724 57.7215 18.8517 57.738C18.8309 57.7545 18.8163 57.7775 18.8101 57.8033L18.5466 58.9902C18.54 59.019 18.54 59.0489 18.5466 59.0776C18.5533 59.1064 18.5664 59.1332 18.5849 59.1562C18.6035 59.1791 18.627 59.1975 18.6538 59.21C18.6805 59.2225 18.7097 59.2288 18.7393 59.2283C19.2646 59.2192 20.0243 59.1883 20.6859 59.1883C21.4584 59.1883 22.1273 59.2301 23.0325 59.2301C23.5778 59.2301 23.7341 58.6758 23.5033 58.6267C22.46 58.3977 21.6057 58.374 20.7041 57.816C20.6074 57.752 20.4947 57.7161 20.3788 57.7124Z" fill="#263238"/>
<path d="M12.4302 16.6082C11.2724 17.1535 10.6126 20.8069 10.6126 20.8069L13.4427 21.9357C13.8569 20.9242 14.1918 19.8819 14.4442 18.8184C14.8332 17.1353 13.6153 16.0447 12.4302 16.6082Z" fill="#263238"/>
<path d="M13.9316 18.6678C13.2318 19.3767 12.9119 20.7654 12.772 21.6687L13.45 21.9395C13.8524 20.9567 14.1805 19.9451 14.4315 18.9132C14.3715 18.5278 14.2224 18.3733 13.9316 18.6678Z" fill="#203048"/>
<path d="M20.1516 16.5825C20.1516 16.5825 21.573 18.1893 20.2316 28.1245H13.0901C13.041 27.0339 13.7299 21.6809 12.672 16.5152C13.4612 16.3622 14.2597 16.2614 15.0622 16.2135C16.0731 16.1535 17.0867 16.1535 18.0976 16.2135C18.7908 16.2832 19.4775 16.4066 20.1516 16.5825Z" fill="#263238"/>
<path d="M20.8041 20.4396L19.6008 18.3657C19.3685 19.3334 19.2737 20.3289 19.3191 21.323C19.3518 22.0355 20.0043 24.6747 20.5914 25.0601C20.7472 23.525 20.8182 21.9825 20.8041 20.4396Z" fill="#203048"/>
<path d="M20.9714 18.0024C21.1531 18.8858 21.3349 19.791 21.5294 20.678C21.7239 21.565 21.9256 22.4557 22.1601 23.3154C22.2201 23.5281 22.2764 23.7462 22.3419 23.9498L22.3909 24.1061L22.4146 24.1842V24.1751C22.4019 24.1588 22.3873 24.157 22.3982 24.1751C22.4729 24.2567 22.5684 24.3164 22.6745 24.3478C22.8463 24.4118 23.0233 24.461 23.2034 24.495C24.0628 24.6312 24.9329 24.6878 25.8027 24.6641L25.9753 25.6529C25.7318 25.731 25.5046 25.7874 25.2646 25.8437C25.0247 25.9001 24.7884 25.9473 24.5467 25.9837C24.0465 26.067 23.5394 26.1011 23.0326 26.0855C22.7509 26.0779 22.4707 26.0413 22.1965 25.9764C21.8478 25.9001 21.5201 25.7481 21.2367 25.5311C21.0517 25.3817 20.8989 25.1961 20.7878 24.9858C20.7587 24.9313 20.7333 24.8695 20.7096 24.8168L20.6769 24.7313L20.6097 24.5496C20.517 24.3187 20.4406 24.0915 20.357 23.8643C20.0498 22.9555 19.7935 22.0376 19.5682 21.1215C19.3428 20.2054 19.1483 19.2911 18.9865 18.3514L20.9714 18.0024Z" fill="#E4897B"/>
<path d="M18.3685 17.5568C17.9922 18.7764 19.5172 22.4135 19.5172 22.4135L22.5545 21.6501C22.5545 21.6501 22.4382 19.7597 21.7457 18.2602C20.7023 15.999 18.8193 16.0936 18.3685 17.5568Z" fill="#263238"/>
<path d="M25.7772 24.6641L27.2894 24.626L26.5624 26.2001C26.5624 26.2001 25.9462 26.2818 25.4409 25.4512L24.9083 24.815L25.5209 24.6932C25.6052 24.6755 25.691 24.6657 25.7772 24.6641Z" fill="#E4897B"/>
<path d="M28.2437 24.9186L27.3785 26.2237L26.5624 26.2001L27.2894 24.626L28.2437 24.9186Z" fill="#E4897B"/>
<path d="M20.5206 54.7749L20.4515 56.369H19.1155L19.1846 54.7749H20.5206Z" fill="#CE6F64"/>
<path d="M9.61837 50.4761L10.7362 51.2086L9.46387 52.281L8.34784 51.5503L9.61837 50.4761Z" fill="#CE6F64"/>
<path d="M15.4475 11.7517C15.5275 13.0731 15.5075 13.8529 16.1746 14.5309C17.1779 15.5542 18.812 14.9489 19.1282 13.6221C19.4136 12.4333 19.2355 10.4703 17.9413 9.94316C17.6558 9.8279 17.3456 9.78708 17.04 9.82453C16.7343 9.86197 16.4432 9.97646 16.1939 10.1572C15.9446 10.338 15.7453 10.5792 15.6148 10.8581C15.4842 11.137 15.4267 11.4445 15.4475 11.7517Z" fill="#E4897B"/>
<path d="M13.8916 11.5189C14.2206 12.724 14.995 14.1126 15.9965 14.2017C17.2397 14.3108 17.8014 13.0257 17.965 11.6988C18.7102 11.1881 18.3194 10.6264 19.0665 10.5555C20.0262 10.4646 19.719 8.7088 18.4557 8.42707C18.4557 8.42707 18.8792 9.21774 17.9904 8.81786C17.1451 8.41614 16.2061 8.25334 15.2749 8.34709C15.2749 8.34709 16.4091 8.91419 15.3003 9.16685C14.1916 9.4195 13.8607 10.1029 14.3715 10.5155C14.3715 10.5174 13.6753 10.7264 13.8916 11.5189Z" fill="#263238"/>
<path d="M17.207 11.9712C17.2314 12.2997 17.3637 12.6109 17.5833 12.8564C17.8741 13.1781 18.1776 12.9782 18.2285 12.5874C18.2758 12.2366 18.1794 11.6459 17.8232 11.4677C17.4669 11.2896 17.1834 11.575 17.207 11.9712Z" fill="#E4897B"/>
<path d="M17.6977 28.1249C17.6977 28.1249 18.9992 37.5493 17.974 41.3264C16.3491 47.3064 10.1364 52.354 10.1364 52.354L8.02972 50.9726C8.02972 50.9726 13.3209 46.7102 13.9679 41.7026C14.5496 37.2076 13.09 31.771 13.09 28.123L17.6977 28.1249Z" fill="#FFC107"/>
<path opacity="0.1" d="M17.6977 28.1249C17.6977 28.1249 18.9992 37.5493 17.974 41.3264C16.3491 47.3064 10.1364 52.354 10.1364 52.354L8.02972 50.9726C8.02972 50.9726 13.3209 46.7102 13.9679 41.7026C14.5496 37.2076 13.09 31.771 13.09 28.123L17.6977 28.1249Z" fill="black"/>
<path d="M18.2358 33.512C17.8893 33.115 17.5079 32.7501 17.0961 32.4214C17.3179 35.4805 17.4996 40.0118 17.2979 43.2309C17.5692 42.6138 17.7951 41.9777 17.974 41.3278C18.4739 39.4829 18.4212 36.2966 18.2358 33.512Z" fill="#FFC107"/>
<path opacity="0.3" d="M18.2358 33.512C17.8893 33.115 17.5079 32.7501 17.0961 32.4214C17.3179 35.4805 17.4996 40.0118 17.2979 43.2309C17.5692 42.6138 17.7951 41.9777 17.974 41.3278C18.4739 39.4829 18.4212 36.2966 18.2358 33.512Z" fill="black"/>
<path d="M10.9852 51.8829C10.9943 51.8829 10.1691 52.4282 10.1691 52.4282L7.86798 50.9195L8.59504 50.3179L10.9852 51.8829Z" fill="#FFC107"/>
<path opacity="0.3" d="M10.9852 51.8829C10.9943 51.8829 10.1691 52.4282 10.1691 52.4282L7.86798 50.9195L8.59504 50.3179L10.9852 51.8829Z" fill="black"/>
<path d="M20.2315 28.125C20.2315 28.125 22.2418 36.6497 22.3836 40.7231C22.5436 45.289 20.9495 56.0603 20.9495 56.0603H18.6865C18.6865 56.0603 18.4084 45.2053 18.3085 41.0466C18.1976 36.5116 15.5366 28.125 15.5366 28.125H20.2315Z" fill="#FFC107"/>
<path opacity="0.1" d="M20.2315 28.125C20.2315 28.125 22.2418 36.6497 22.3836 40.7231C22.5436 45.289 20.9495 56.0603 20.9495 56.0603H18.6865C18.6865 56.0603 18.4084 45.2053 18.3085 41.0466C18.1976 36.5116 15.5366 28.125 15.5366 28.125H20.2315Z" fill="black"/>
<path d="M21.384 55.1602C21.3949 55.1602 21.2567 56.0981 21.2567 56.0981H18.5048L18.4303 55.2601L21.384 55.1602Z" fill="#FFC107"/>
<path opacity="0.3" d="M21.384 55.1602C21.3949 55.1602 21.2567 56.0981 21.2567 56.0981H18.5048L18.4303 55.2601L21.384 55.1602Z" fill="black"/>
<path d="M55.0248 19.9326C55.1793 20.078 55.301 20.2016 55.4283 20.3398C55.5555 20.4779 55.6755 20.6124 55.7918 20.7524C56.0281 21.0305 56.2499 21.3231 56.4643 21.6176C56.8927 22.2082 57.2738 22.8318 57.604 23.4825L57.6712 23.6152C57.7041 23.6794 57.7315 23.7463 57.753 23.8151C57.7969 23.9481 57.8238 24.0861 57.833 24.2259C57.8448 24.4723 57.8109 24.7188 57.733 24.9529C57.6003 25.3418 57.403 25.7055 57.1496 26.029C56.6928 26.6155 56.1542 27.1334 55.5501 27.5667L55.0975 27.0469C55.3101 26.7978 55.5319 26.5306 55.73 26.2635C55.9316 26.0046 56.1139 25.7312 56.2753 25.4455C56.4261 25.1963 56.5377 24.9253 56.6061 24.6421C56.6296 24.5408 56.6339 24.436 56.6188 24.3331C56.6123 24.2985 56.6013 24.2649 56.5861 24.2331C56.5793 24.2192 56.5714 24.2058 56.5625 24.1932L56.5043 24.095C56.1538 23.5234 55.7734 22.9707 55.3647 22.4391C55.1629 22.1719 54.9466 21.9157 54.7285 21.663C54.6213 21.5358 54.5104 21.4122 54.3995 21.2886C54.2886 21.165 54.1687 21.0414 54.0723 20.945L55.0248 19.9326Z" fill="#E4897B"/>
<path d="M55.272 26.8941L53.9142 26.6724L54.6249 27.8611C54.6249 27.8611 55.4992 27.8302 55.7482 27.3158L55.272 26.8941Z" fill="#E4897B"/>
<path d="M52.9108 27.2213L53.5579 28.1865L54.6249 27.8611L53.9142 26.6724L52.9108 27.2213Z" fill="#E4897B"/>
<path d="M55.2065 57.9193C55.1142 57.9272 55.0221 57.9021 54.9466 57.8484C54.9238 57.8269 54.907 57.7999 54.8978 57.7699C54.8886 57.74 54.8872 57.7082 54.8939 57.6776C54.8952 57.6581 54.9018 57.6393 54.913 57.6233C54.9242 57.6072 54.9396 57.5946 54.9575 57.5867C55.1156 57.5158 55.5301 57.7812 55.5773 57.8121C55.5827 57.8154 55.5869 57.8204 55.5892 57.8263C55.5915 57.8322 55.5918 57.8387 55.59 57.8448C55.5894 57.851 55.5867 57.8569 55.5824 57.8614C55.5782 57.866 55.5726 57.8691 55.5664 57.8702C55.4487 57.9001 55.328 57.9166 55.2065 57.9193ZM55.0248 57.6376C55.0115 57.6355 54.998 57.6355 54.9848 57.6376C54.9768 57.6413 54.97 57.6472 54.9652 57.6546C54.9604 57.662 54.9577 57.6706 54.9575 57.6794C54.9527 57.6997 54.9532 57.7209 54.9589 57.7409C54.9646 57.761 54.9754 57.7792 54.9902 57.7939C55.0593 57.8557 55.2374 57.8648 55.4755 57.8175C55.3391 57.7274 55.1857 57.6662 55.0248 57.6376Z" fill="#FFC107"/>
<path d="M55.5701 57.8686H55.5537C55.4247 57.7941 55.1756 57.5051 55.2065 57.3469C55.2124 57.322 55.2262 57.2997 55.2459 57.2833C55.2656 57.2669 55.29 57.2574 55.3156 57.2561C55.3402 57.2525 55.3652 57.2546 55.3888 57.2622C55.4124 57.2697 55.434 57.2826 55.4519 57.2997C55.601 57.4306 55.6028 57.8232 55.6028 57.845C55.6024 57.8505 55.6008 57.8559 55.5979 57.8606C55.5951 57.8653 55.5911 57.8693 55.5864 57.8722L55.5701 57.8686ZM55.3374 57.3233H55.3229C55.2829 57.3233 55.2738 57.3451 55.2702 57.3615C55.252 57.4542 55.4065 57.6759 55.5355 57.7795C55.5387 57.6271 55.4949 57.4773 55.4101 57.3506C55.3992 57.3404 55.3863 57.3327 55.3722 57.328C55.3581 57.3233 55.3431 57.3217 55.3283 57.3233H55.3374Z" fill="#FFC107"/>
<path d="M49.012 57.9192C48.896 57.9302 48.7797 57.9007 48.683 57.8356C48.6612 57.8162 48.6444 57.7919 48.634 57.7647C48.6235 57.7375 48.6198 57.7082 48.623 57.6792C48.6242 57.6616 48.6298 57.6445 48.6394 57.6295C48.6489 57.6146 48.662 57.6023 48.6776 57.5938C48.8466 57.4993 49.3883 57.7756 49.4501 57.8101C49.4557 57.8138 49.4603 57.819 49.4631 57.8251C49.466 57.8312 49.4672 57.8379 49.4664 57.8446C49.4654 57.851 49.4623 57.8569 49.4578 57.8615C49.4532 57.866 49.4473 57.869 49.441 57.8701C49.2999 57.9001 49.1562 57.9165 49.012 57.9192ZM48.7703 57.6374C48.7495 57.6361 48.7287 57.6405 48.7103 57.6502C48.7037 57.6533 48.6982 57.6582 48.6944 57.6643C48.6905 57.6704 48.6885 57.6775 48.6885 57.6847C48.6857 57.7036 48.6875 57.7229 48.6939 57.741C48.7002 57.759 48.7108 57.7753 48.7248 57.7883C48.8084 57.8628 49.032 57.8756 49.3337 57.8247C49.1578 57.7309 48.9673 57.6676 48.7703 57.6374Z" fill="#FFC107"/>
<path d="M49.4356 57.8688H49.421C49.2593 57.7961 48.9375 57.5053 48.963 57.3471C48.963 57.3108 48.9957 57.2653 49.0848 57.2563C49.1173 57.2528 49.1502 57.2559 49.1815 57.2656C49.2127 57.2753 49.2417 57.2913 49.2665 57.3126C49.4374 57.4544 49.4701 57.8215 49.4701 57.8379C49.4708 57.8434 49.47 57.8491 49.4678 57.8542C49.4655 57.8593 49.4619 57.8637 49.4574 57.867C49.4505 57.8699 49.4428 57.8706 49.4356 57.8688ZM49.1102 57.3235H49.0902C49.032 57.3235 49.0284 57.3526 49.0266 57.3599C49.0121 57.4526 49.2302 57.6834 49.3901 57.7834C49.3743 57.628 49.3108 57.4813 49.2084 57.3635C49.1808 57.34 49.1464 57.326 49.1102 57.3235Z" fill="#FFC107"/>
<path d="M51.584 15.7539C51.5313 16.5755 51.3895 18.2441 52.0202 18.7057C52.0202 18.7057 51.9057 19.5473 50.4171 19.7436C48.7812 19.9563 49.5283 19.0329 49.5283 19.0329C50.3953 18.7021 50.2844 18.0423 50.0481 17.4389L51.584 15.7539Z" fill="#E4897B"/>
<path d="M48.1977 14.3018C48.1887 14.3018 48.1798 14.2999 48.1717 14.2961C48.1635 14.2924 48.1563 14.2869 48.1505 14.28C48.0985 14.2184 48.0327 14.1698 47.9585 14.1382C47.8843 14.1066 47.8038 14.0929 47.7233 14.0983C47.7148 14.0998 47.7061 14.0996 47.6977 14.0977C47.6892 14.0957 47.6813 14.0921 47.6743 14.087C47.6674 14.0819 47.6615 14.0754 47.6571 14.068C47.6527 14.0606 47.6499 14.0523 47.6488 14.0437C47.6467 14.0266 47.6515 14.0094 47.662 13.9958C47.6726 13.9822 47.6881 13.9733 47.7051 13.971C47.8078 13.9623 47.911 13.9786 48.0059 14.0185C48.1009 14.0584 48.1848 14.1207 48.2504 14.2C48.2583 14.2095 48.2633 14.221 48.265 14.2332C48.2666 14.2455 48.2647 14.2579 48.2596 14.2691C48.2545 14.2803 48.2463 14.2898 48.236 14.2966C48.2257 14.3033 48.2137 14.307 48.2013 14.3073L48.1977 14.3018Z" fill="#263238"/>
<path d="M47.9142 15.1069C47.8497 15.3676 47.75 15.6183 47.6179 15.8522C47.6786 15.8848 47.7457 15.9037 47.8145 15.9075C47.8833 15.9112 47.9521 15.8998 48.016 15.874L47.9142 15.1069Z" fill="#DE5753"/>
<path d="M47.9869 14.9068C48.0014 15.0158 47.956 15.1104 47.8851 15.1213C47.8142 15.1322 47.7433 15.0486 47.7306 14.9395C47.7179 14.8304 47.7615 14.7359 47.8324 14.7268C47.9033 14.7178 47.9742 14.7905 47.9869 14.9068Z" fill="#263238"/>
<path d="M47.8651 14.7288L47.5942 14.687C47.5942 14.687 47.7542 14.8742 47.8651 14.7288Z" fill="#263238"/>
<path d="M50.9333 57.8396H49.5701L49.4792 54.686H50.8424L50.9333 57.8396Z" fill="#E4897B"/>
<path d="M57.1223 57.8396H55.7591L55.321 54.686H56.6843L57.1223 57.8396Z" fill="#E4897B"/>
<path d="M55.6755 57.687H57.2059C57.232 57.6868 57.2573 57.6961 57.277 57.7131C57.2968 57.7302 57.3096 57.7539 57.3132 57.7797L57.4949 58.9921C57.4983 59.0226 57.4951 59.0536 57.4856 59.0828C57.4762 59.1121 57.4606 59.139 57.44 59.1618C57.4194 59.1847 57.3943 59.2029 57.3661 59.2153C57.338 59.2277 57.3076 59.234 57.2768 59.2338C56.7442 59.2247 56.4861 59.1938 55.8136 59.1938C55.3992 59.1938 54.7939 59.2356 54.2232 59.2356C53.6524 59.2356 53.6215 58.6704 53.8597 58.6195C54.9266 58.3904 55.0956 58.0742 55.4537 57.7706C55.5162 57.7188 55.5943 57.6893 55.6755 57.687Z" fill="#263238"/>
<path d="M49.5246 57.687H51.0532C51.0795 57.6867 51.105 57.6959 51.1251 57.713C51.1451 57.73 51.1583 57.7537 51.1623 57.7797L51.344 58.9921C51.3474 59.0226 51.3442 59.0536 51.3347 59.0828C51.3253 59.1121 51.3097 59.139 51.2891 59.1618C51.2685 59.1847 51.2433 59.2029 51.2152 59.2153C51.1871 59.2277 51.1566 59.234 51.1259 59.2338C50.5933 59.2247 50.3352 59.1938 49.6627 59.1938C49.2483 59.1938 48.3904 59.2356 47.8196 59.2356C47.2489 59.2356 47.218 58.6704 47.4561 58.6195C48.523 58.3904 48.9429 58.0742 49.3028 57.7706C49.3653 57.7188 49.4434 57.6893 49.5246 57.687Z" fill="#263238"/>
<path d="M49.4792 54.686L49.5264 56.3128H50.8897L50.8424 54.686H49.4792Z" fill="#CE6F64"/>
<path d="M56.6843 54.686H55.321L55.5482 56.3128H56.9097L56.6843 54.686Z" fill="#CE6F64"/>
<path d="M51.6022 14.0523C51.6949 15.401 51.7621 15.9699 51.1769 16.746C50.2953 17.9111 48.6194 17.7312 48.125 16.437C47.6797 15.2719 47.6034 13.2634 48.843 12.5582C49.1157 12.4019 49.4238 12.3179 49.7381 12.3141C50.0524 12.3103 50.3625 12.3869 50.6388 12.5365C50.9152 12.6862 51.1488 12.904 51.3174 13.1693C51.486 13.4346 51.584 13.7385 51.6022 14.0523Z" fill="#E4897B"/>
<path d="M52.3874 15.3048C53.1435 15.7265 53.7052 14.6869 53.7052 14.6869C53.7052 14.6869 52.3492 14.8341 52.471 14.0271C52.6309 12.9565 51.8639 11.655 49.9408 11.8223C49.8336 11.8313 49.7318 11.8441 49.6318 11.8604C49.4305 11.765 49.2028 11.7404 48.9858 11.7905C48.7687 11.8407 48.5749 11.9626 48.4358 12.1367C47.8905 12.1821 47.1544 12.8329 47.6542 13.6926C47.6893 13.5938 47.7437 13.503 47.8142 13.4254C47.856 13.9289 48.2959 14.7287 48.8448 14.7814C48.9629 15.4703 48.5049 16.2682 48.663 16.988C48.8975 18.0259 50.6479 18.2603 50.6479 18.2603C50.5875 18.1307 50.5651 17.9867 50.5831 17.8448C50.6011 17.703 50.6588 17.5692 50.7497 17.4587C51.9384 18.004 52.7218 17.4715 52.7218 17.4715C51.9111 17.1697 52.1565 16.6317 52.1565 16.6317C52.4364 16.756 52.7536 16.7669 53.0414 16.6622C53.3292 16.5574 53.5652 16.3452 53.6997 16.0701C53.4304 16.0829 53.1632 16.0174 52.9303 15.8816C52.6974 15.7458 52.5089 15.5455 52.3874 15.3048Z" fill="#263238"/>
<path d="M49.3192 14.9887C49.3224 15.1182 49.3 15.2469 49.2532 15.3677C49.2064 15.4884 49.1362 15.5987 49.0466 15.6921C48.8066 15.9412 48.5122 15.7667 48.4322 15.4486C48.3613 15.1614 48.4013 14.687 48.7139 14.5561C48.7827 14.5291 48.8572 14.5197 48.9306 14.5287C49.004 14.5378 49.0739 14.5651 49.134 14.6081C49.1942 14.6511 49.2426 14.7084 49.275 14.7749C49.3073 14.8414 49.3225 14.9149 49.3192 14.9887Z" fill="#E4897B"/>
<path d="M50.4516 27.5541C50.4516 27.5541 50.797 36.526 51.6185 41.7935C52.2801 46.0504 55.2193 55.9965 55.2193 55.9965H57.0769C57.0769 55.9965 55.5446 46.3903 55.2084 42.1825C54.3577 31.5329 56.5661 29.2463 54.4813 27.0288L50.4516 27.5541Z" fill="#263238"/>
<path d="M52.0039 30.3911C52.0039 30.3911 51.1641 30.2457 50.6733 31.8452C50.8551 34.8753 51.1659 38.8959 51.6185 41.7932C51.7185 42.4384 51.8712 43.2164 52.0584 44.0689C51.7039 38.9504 52.0039 30.3911 52.0039 30.3911Z" fill="#161F33"/>
<path d="M49.0029 27.7429C49.0029 27.7429 47.4725 37.669 47.5615 41.8223C47.6542 46.1428 49.2374 55.9999 49.2374 55.9999H51.0787C51.0787 55.9999 50.7878 46.3991 50.9496 42.1567C51.1314 37.5308 53.0199 27.2212 53.0199 27.2212L49.0029 27.7429Z" fill="#263238"/>
<path d="M57.3459 56.0837H54.8757L54.683 55.2549L57.3277 55.2731L57.3459 56.0837Z" fill="#FFC107"/>
<path opacity="0.2" d="M57.3459 56.0837H54.8757L54.683 55.2549L57.3277 55.2731L57.3459 56.0837Z" fill="black"/>
<path d="M54.3886 18.7075C55.0993 18.7766 56.179 20.7959 56.179 20.7959L54.385 22.1719C54.385 22.1719 52.8999 20.8687 53.0762 20.1361C53.2598 19.3746 53.707 18.6439 54.3886 18.7075Z" fill="#FFC107"/>
<path opacity="0.1" d="M54.3886 18.7075C55.0993 18.7766 56.179 20.7959 56.179 20.7959L54.385 22.1719C54.385 22.1719 52.8999 20.8687 53.0762 20.1361C53.2598 19.3746 53.707 18.6439 54.3886 18.7075Z" fill="black"/>
<path d="M53.8524 19.5761C53.6712 19.5273 53.4837 19.5065 53.2962 19.5143C53.2008 19.713 53.1271 19.9214 53.0763 20.1359C52.8945 20.863 54.385 22.1717 54.385 22.1717L54.5177 22.0699L53.8524 19.5761Z" fill="#FFC107"/>
<path opacity="0.3" d="M53.8524 19.5761C53.6712 19.5273 53.4837 19.5065 53.2962 19.5143C53.2008 19.713 53.1271 19.9214 53.0763 20.1359C52.8945 20.863 54.385 22.1717 54.385 22.1717L54.5177 22.0699L53.8524 19.5761Z" fill="black"/>
<path d="M48.394 21.5155C47.876 22.826 47.3307 24.1584 46.8963 25.4725C46.8672 25.5561 46.8436 25.6361 46.8181 25.7179L46.7563 25.9196C46.7394 25.9791 46.7394 26.042 46.7563 26.1014C46.8589 26.3287 47.0217 26.5235 47.2271 26.6649C47.7705 27.0548 48.3627 27.3719 48.9884 27.6082L48.8248 28.2771C48.055 28.1756 47.3107 27.9328 46.6291 27.561C46.2096 27.3369 45.868 26.9909 45.6494 26.5685C45.5238 26.2986 45.4802 25.9978 45.524 25.7033C45.5281 25.6673 45.5342 25.6315 45.5421 25.5961L45.5603 25.5198L45.5912 25.3816C45.613 25.2889 45.6348 25.1999 45.6585 25.109C45.8402 24.3819 46.0729 23.6912 46.3183 23.006C46.5636 22.3207 46.8199 21.6446 47.1089 20.9702L48.394 21.5155Z" fill="#E4897B"/>
<path d="M47.2907 19.6766C47.2907 19.6766 46.6764 19.9874 49.0029 27.7433L54.4886 27.0271C54.1032 24.806 53.9215 23.43 54.3886 18.7078C53.602 18.6514 52.8123 18.6514 52.0257 18.7078C51.1882 18.7565 50.3554 18.8658 49.5337 19.035C48.4813 19.2694 47.2907 19.6766 47.2907 19.6766Z" fill="#FFC107"/>
<path opacity="0.1" d="M47.2907 19.6766C47.2907 19.6766 46.6764 19.9874 49.0029 27.7433L54.4886 27.0271C54.1032 24.806 53.9215 23.43 54.3886 18.7078C53.602 18.6514 52.8123 18.6514 52.0257 18.7078C51.1882 18.7565 50.3554 18.8658 49.5337 19.035C48.4813 19.2694 47.2907 19.6766 47.2907 19.6766Z" fill="black"/>
<path d="M54.5286 26.6941L54.843 27.1504C54.8667 27.1867 54.8267 27.2303 54.7649 27.2394L49.012 27.9919C48.963 27.9919 48.9175 27.9792 48.9102 27.9483L48.7976 27.463C48.7885 27.4303 48.8285 27.3957 48.883 27.3885L54.4377 26.6614C54.4544 26.6587 54.4715 26.6603 54.4873 26.6661C54.5032 26.6718 54.5174 26.6814 54.5286 26.6941Z" fill="#FFC107"/>
<path opacity="0.2" d="M54.5286 26.6941L54.843 27.1504C54.8667 27.1867 54.8267 27.2303 54.7649 27.2394L49.012 27.9919C48.963 27.9919 48.9175 27.9792 48.9102 27.9483L48.7976 27.463C48.7885 27.4303 48.8285 27.3957 48.883 27.3885L54.4377 26.6614C54.4544 26.6587 54.4715 26.6603 54.4873 26.6661C54.5032 26.6718 54.5174 26.6814 54.5286 26.6941Z" fill="black"/>
<path d="M53.8633 27.4124L54.0124 27.3924C54.0415 27.3924 54.0614 27.3706 54.0578 27.3524L53.9051 26.7235C53.8994 26.7128 53.8901 26.7044 53.8788 26.6998C53.8675 26.6951 53.855 26.6945 53.8433 26.6981L53.6943 26.7163C53.6634 26.7163 53.6434 26.7381 53.6488 26.7581L53.8015 27.3852C53.8052 27.4052 53.8342 27.4161 53.8633 27.4124Z" fill="#263238"/>
<path d="M50.2571 27.8773L50.4062 27.8573C50.4353 27.8573 50.4571 27.8355 50.4516 27.8173L50.2989 27.1884C50.293 27.1778 50.2837 27.1694 50.2726 27.1645C50.2614 27.1595 50.249 27.1584 50.2371 27.1611L50.0881 27.1811C50.059 27.1811 50.0372 27.2029 50.0426 27.2211L50.1953 27.85C50.199 27.8773 50.228 27.8882 50.2571 27.8773Z" fill="#263238"/>
<path d="M47.547 22.3082C47.6979 23.0098 47.9105 23.8986 48.2213 25.0237L48.2886 22.1719L47.547 22.3082Z" fill="#FFC107"/>
<path opacity="0.3" d="M47.547 22.3082C47.6979 23.0098 47.9105 23.8986 48.2213 25.0237L48.2886 22.1719L47.547 22.3082Z" fill="black"/>
<path d="M47.2907 19.6763C46.6091 19.9508 46.0184 22.2828 46.0184 22.2828L48.3631 23.4243C48.3631 23.4243 49.4955 20.5724 48.9884 20.0162C48.4813 19.46 48.0759 19.3619 47.2907 19.6763Z" fill="#FFC107"/>
<path opacity="0.1" d="M47.2907 19.6763C46.6091 19.9508 46.0184 22.2828 46.0184 22.2828L48.3631 23.4243C48.3631 23.4243 49.4955 20.5724 48.9884 20.0162C48.4813 19.46 48.0759 19.3619 47.2907 19.6763Z" fill="black"/>
<path d="M51.3931 56.0837H48.923L48.7303 55.2549L51.4804 55.2731L51.3931 56.0837Z" fill="#FFC107"/>
<path opacity="0.2" d="M51.3931 56.0837H48.923L48.7303 55.2549L51.4804 55.2731L51.3931 56.0837Z" fill="black"/>
<path d="M49.0266 27.383L48.8285 27.3013C48.7798 27.2815 48.7267 27.2749 48.6746 27.2822C48.6226 27.2895 48.5734 27.3105 48.532 27.343C48.4907 27.3755 48.4587 27.4183 48.4392 27.4672C48.4198 27.516 48.4136 27.5692 48.4213 27.6212L48.5649 28.5682C48.5718 28.6155 48.5891 28.6608 48.6157 28.7007C48.6422 28.7406 48.6772 28.7741 48.7183 28.7988C48.7593 28.8235 48.8053 28.8387 48.853 28.8435C48.9007 28.8483 48.9488 28.8424 48.9939 28.8263C49.066 28.8001 49.1334 28.7627 49.1938 28.7154C49.2596 28.6609 49.3116 28.5917 49.3457 28.5134C49.3798 28.4351 49.395 28.3499 49.3901 28.2646L49.3701 27.872C49.3667 27.7659 49.3323 27.6631 49.2713 27.5763C49.2103 27.4894 49.1252 27.4223 49.0266 27.383Z" fill="#E4897B"/>
</svg>
