<svg width="285" height="291" viewBox="0 0 285 291" fill="none" xmlns="http://www.w3.org/2000/svg">
<path d="M29.2652 169.123L20.4162 169.312L15.9242 169.386C14.4202 169.386 12.9094 169.386 11.4053 169.419H11.1085V169.116L11.0681 161.569V161.231H11.4053L20.3353 161.272C23.3164 161.272 26.2908 161.346 29.2652 161.38H29.4541V161.562C29.4541 162.843 29.3934 164.111 29.3664 165.373L29.2652 169.123ZM29.2652 169.123L29.1708 165.305C29.1708 164.051 29.0966 162.81 29.0831 161.575L29.2652 161.758C26.2908 161.791 23.3164 161.865 20.3353 161.865L11.4053 161.913L11.7425 161.575V169.123L11.439 168.819C12.9094 168.819 14.3797 168.819 15.8568 168.86L20.2948 168.934L29.2652 169.123Z" fill="#EBEBEB"/>
<path d="M19.3034 178.619L10.4543 178.808L5.96238 178.882C4.45831 178.882 2.9475 178.882 1.44344 178.916H1.14667V178.619L1.1062 171.072V170.728H1.44344L10.3734 170.768C13.3478 170.768 16.329 170.842 19.3034 170.876H19.4922V171.058C19.4922 172.34 19.4383 173.608 19.4046 174.869L19.3034 178.619ZM19.3034 178.619L19.209 174.801C19.1752 173.547 19.1348 172.306 19.1213 171.072L19.3034 171.254C16.329 171.287 13.3478 171.362 10.3734 171.362L1.44344 171.409L1.78067 171.072L1.74695 178.619L1.44344 178.315C2.91378 178.315 4.38412 178.315 5.86121 178.356L10.2992 178.43L19.3034 178.619Z" fill="#EBEBEB"/>
<path d="M95.687 96.3885L86.8312 96.5773L82.3393 96.6515C80.8419 96.6852 79.3311 96.6515 77.8271 96.692H77.5236V96.3885V88.8411V88.5039H77.8675L86.7975 88.5444C89.7719 88.5444 92.7463 88.6253 95.7275 88.659H95.9096V88.8411C95.9096 90.1226 95.8489 91.3974 95.8219 92.6586L95.687 96.3885ZM95.687 96.3885L95.5926 92.5777C95.5589 91.3164 95.5117 90.0754 95.4982 88.8411L95.687 89.0233C92.7059 89.0637 89.7315 89.1312 86.757 89.1379L77.8271 89.1784L78.1643 88.8411L78.1036 96.3885L77.8068 96.0917C79.2772 96.0917 80.7408 96.0917 82.2179 96.1254L86.6559 96.1996L95.687 96.3885Z" fill="#EBEBEB"/>
<path d="M85.7251 105.905L76.8693 106.094L72.3773 106.168C70.8733 106.168 69.3692 106.168 67.8651 106.209H67.5616V105.905L67.5279 98.3577V98.0205H67.8719L76.8018 98.061C79.7763 98.061 82.7507 98.1419 85.7318 98.1756H85.9139V98.3577C85.9139 99.6392 85.8532 100.914 85.8262 102.168L85.7251 105.905ZM85.7251 105.905L85.6239 102.094C85.6239 100.833 85.5497 99.592 85.5362 98.3577L85.7251 98.5399C82.7439 98.5803 79.7695 98.6478 76.7951 98.6545L67.8651 98.695L68.1956 98.3577L68.1619 105.905L67.8651 105.608C69.3355 105.608 70.7991 105.608 72.2762 105.642L76.7142 105.716L85.7251 105.905Z" fill="#EBEBEB"/>
<path d="M75.7969 96.3885L66.9479 96.5773L62.4559 96.6515C60.9518 96.6852 59.441 96.6515 57.937 96.692H57.6402V96.3885L57.5997 88.8411V88.5039H57.937L66.8669 88.5444C69.8481 88.5444 72.8225 88.6253 75.7969 88.659H75.9858V88.8411C75.9858 90.1226 75.9251 91.3974 75.8913 92.6586L75.7969 96.3885ZM75.7969 96.3885L75.7025 92.5777C75.7025 91.3164 75.6283 90.0754 75.6148 88.8411L75.7969 89.0233C72.8225 89.0637 69.8481 89.1312 66.8669 89.1379L57.937 89.1784L58.2742 88.8411V96.3885L57.9707 96.0917C59.441 96.0917 60.9114 96.0917 62.3885 96.1254L66.8265 96.1996L75.7969 96.3885Z" fill="#EBEBEB"/>
<path d="M251.692 76.1004L242.836 76.2892L238.344 76.3634C236.847 76.3971 235.336 76.3634 233.832 76.4039H233.528V76.1004L233.495 68.5531V68.2158H233.832L242.762 68.263C245.736 68.263 248.711 68.3372 251.692 68.3709H251.874V68.5531C251.874 69.8345 251.813 71.1093 251.786 72.3706L251.692 76.1004ZM251.692 76.1004L251.597 72.2896C251.564 71.0351 251.516 69.7873 251.51 68.5531L251.692 68.7419C248.711 68.7419 245.736 68.8431 242.762 68.8498L233.832 68.8903L234.169 68.5531L234.129 76.1004L233.832 75.8036C235.302 75.8036 236.772 75.8036 238.243 75.8373L242.681 75.9115L251.692 76.1004Z" fill="#EBEBEB"/>
<path d="M282.913 178.619L274.057 178.808L269.565 178.882C268.068 178.882 266.557 178.882 265.053 178.916H264.749V178.619L264.716 171.072V170.728H265.053L273.983 170.768C276.957 170.768 279.939 170.842 282.913 170.876H283.095V171.058C283.095 172.34 283.041 173.608 283.007 174.869L282.913 178.619ZM282.913 178.619L282.819 174.801C282.819 173.547 282.738 172.306 282.731 171.072L282.913 171.254C279.939 171.287 276.957 171.362 273.983 171.362L265.053 171.409L265.39 171.072L265.35 178.619L265.053 178.315C266.523 178.315 267.994 178.315 269.464 178.356L273.902 178.43L282.913 178.619Z" fill="#EBEBEB"/>
<path d="M272.951 7.92502L264.095 8.10712L259.603 8.18806C258.106 8.18806 256.595 8.18806 255.091 8.18806H254.815V7.89129V0.343981V0H255.159L264.089 0.0404691C267.063 0.0404691 270.037 0.114661 273.018 0.148384H273.201V0.330491C273.201 1.60524 273.14 2.87999 273.113 4.14124L272.951 7.92502ZM272.951 7.92502L272.857 4.10752C272.823 2.85301 272.776 1.61198 272.762 0.377704L272.951 0.559811C269.97 0.559811 266.995 0.667726 264.021 0.667726L255.091 0.714939L255.428 0.377704L255.388 7.92502L255.091 7.62151C256.561 7.62151 258.025 7.62151 259.502 7.65523L263.94 7.73617L272.951 7.92502Z" fill="#EBEBEB"/>
<path d="M282.913 17.4225L274.057 17.6046L269.565 17.6856C268.068 17.6856 266.557 17.6856 265.053 17.6856H264.749V17.4225L264.716 9.87523V9.53125H265.053L273.983 9.57172C276.957 9.57172 279.939 9.64591 282.913 9.67963H283.095V9.86174C283.095 11.1365 283.041 12.4112 283.007 13.6725L282.913 17.4225ZM282.913 17.4225L282.819 13.605C282.819 12.3505 282.738 11.1095 282.731 9.87523L282.913 10.0573C279.939 10.0573 276.957 10.1653 273.983 10.1653L265.053 10.2057L265.39 9.87523L265.35 17.4225L265.053 17.119C266.523 17.119 267.994 17.119 269.464 17.119L273.902 17.2L282.913 17.4225Z" fill="#EBEBEB"/>
<path d="M29.2652 7.92502L20.4162 8.10712L15.9242 8.18806C14.4202 8.18806 12.9094 8.18806 11.4053 8.18806H11.1085V7.89129L11.0681 0.343981V0H11.4053L20.3353 0.0404691C23.3164 0.0404691 26.2908 0.114661 29.2652 0.148384H29.4541V0.330491C29.4541 1.60524 29.3934 2.87999 29.3664 4.14124L29.2652 7.92502ZM29.2652 7.92502L29.1708 4.10752C29.1708 2.85301 29.0966 1.61198 29.0831 0.377704L29.2652 0.559811C26.2908 0.559811 23.3164 0.667726 20.3353 0.667726L11.4053 0.714939L11.7425 0.377704V7.92502L11.439 7.62151C12.9094 7.62151 14.3797 7.62151 15.8568 7.65523L20.2948 7.73617L29.2652 7.92502Z" fill="#EBEBEB"/>
<path d="M54.9018 15.2432H14.3325V64.4524H54.9018V15.2432Z" fill="#DBDBDB"/>
<path d="M50.2682 19.7354H18.9661V59.9675H50.2682V19.7354Z" fill="white"/>
<path d="M20.1869 19.7354H18.9661V59.9675H20.1869V19.7354Z" fill="#C7C7C7"/>
<path d="M56.1226 15.2432H54.9018V64.4524H56.1226V15.2432Z" fill="#C7C7C7"/>
<path d="M35.3219 51.0234H42.7006V29.0357H35.3219V51.0234Z" fill="#DBDBDB"/>
<path d="M46.2552 36.3869H25.8997V24.9209H46.2552V36.3869ZM26.5742 35.7124H45.5807V25.5954H26.5742V35.7124Z" fill="#EBEBEB"/>
<path d="M174.849 42.2217H134.28V91.431H174.849V42.2217Z" fill="#DBDBDB"/>
<path d="M170.216 46.7129H138.914V86.945H170.216V46.7129Z" fill="white"/>
<path d="M140.135 46.7129H138.914V86.945H140.135V46.7129Z" fill="#C7C7C7"/>
<path d="M176.07 42.2217H174.849V91.431H176.07V42.2217Z" fill="#C7C7C7"/>
<path d="M156.78 56.0146H149.402V78.0024H156.78V56.0146Z" fill="#DBDBDB"/>
<path d="M166.203 63.3654H145.847V51.8994H166.203V63.3654ZM146.522 62.6909H165.528V52.5739H146.522V62.6909Z" fill="#EBEBEB"/>
<path d="M114.876 28.7324H74.3063V77.9417H114.876V28.7324Z" fill="#DBDBDB"/>
<path d="M110.242 33.2246H78.9399V73.4567H110.242V33.2246Z" fill="white"/>
<path d="M80.1607 33.2246H78.9399V73.4567H80.1607V33.2246Z" fill="#C7C7C7"/>
<path d="M116.096 28.7324H114.876V77.9417H116.096V28.7324Z" fill="#C7C7C7"/>
<path d="M97.8791 43.625H91.5593V59.6099H97.8791V43.625Z" fill="#EBEBEB"/>
<path d="M104.88 64.6953H87.2157V53H104.88V64.6953ZM87.8902 64.0208H104.206V53.6745H87.8902V64.0208Z" fill="#DBDBDB"/>
<path d="M0 275.291L35.5445 275.123L71.0891 275.069L142.178 274.954L213.267 275.069L248.812 275.123L284.363 275.291L248.812 275.453L213.267 275.514L142.178 275.629L71.0891 275.514L35.5445 275.453L0 275.291Z" fill="#263238"/>
<path d="M72.546 205.383H44.0968L27.8084 124.198L53.8632 112.232L72.546 205.383Z" fill="#37474F"/>
<path d="M149.341 205.383H72.5459L53.8631 112.232H130.658L149.341 205.383Z" fill="#455A64"/>
<path d="M57.9369 161.826H14.3325V251.295H57.9369V161.826Z" fill="#37474F"/>
<path d="M170.27 251.295H158.359L140.607 161.826H170.27V251.295Z" fill="#37474F"/>
<path d="M81.894 161.826H57.9369V251.295H81.894V161.826Z" fill="#455A64"/>
<path d="M194.227 161.826H170.27V251.295H194.227V161.826Z" fill="#455A64"/>
<path d="M170.27 205.385H81.8941V251.296H170.27V205.385Z" fill="#455A64"/>
<path d="M170.27 185.534H81.8941V205.566H170.27V185.534Z" fill="#455A64"/>
<path d="M63.8115 161.826L72.8494 161.664L81.894 161.55H82.1503V161.826L82.2515 172.294L82.292 182.769C82.292 189.749 82.3392 196.73 82.292 203.677C82.2448 210.624 82.2583 217.639 82.1706 224.619C82.0829 231.6 82.0155 238.581 81.8671 245.562C81.7187 238.579 81.6175 231.598 81.5636 224.619C81.4826 217.639 81.4691 210.658 81.4489 203.677C81.4287 196.696 81.4489 189.722 81.4489 182.769L81.4894 172.294L81.5905 161.826L81.8603 162.103L72.8157 161.988L63.8115 161.826Z" fill="#263238"/>
<path d="M170.27 161.826C170.459 168.834 170.546 175.835 170.621 182.843L170.722 203.859L170.621 224.882L170.506 235.391L170.283 245.899L170.061 235.391L169.939 224.882L169.831 203.859L169.939 182.843C170 175.835 170.088 168.834 170.27 161.826Z" fill="#263238"/>
<path d="M170.27 205.383C162.52 205.566 154.757 205.653 147.021 205.727L123.765 205.835L105.15 205.727L93.522 205.599L81.8941 205.377L93.522 205.154L105.15 205.026L123.765 204.925L147.021 205.033C154.771 205.107 162.52 205.195 170.27 205.383Z" fill="#263238"/>
<path d="M170.27 185.534C162.52 185.723 154.757 185.81 147.021 185.878L123.765 185.986L105.15 185.885L93.522 185.757L81.8941 185.534L93.522 185.311L105.15 185.19L123.765 185.082L147.021 185.19C154.771 185.257 162.52 185.365 170.27 185.534Z" fill="#263238"/>
<path d="M30.9042 251.295L30.3107 258.545L28.9347 275.293H22.6217L21.2458 258.545L20.659 251.295H30.9042Z" fill="#C7C7C7"/>
<path d="M20.659 251.295H30.9042L30.3107 258.545H21.2458L20.659 251.295Z" fill="#A6A6A6"/>
<path d="M75.0415 251.295L74.4547 258.545L73.0721 275.293H66.759L65.3831 258.545L64.7963 251.295H75.0415Z" fill="#C7C7C7"/>
<path d="M64.7963 251.295H75.0415L74.4547 258.545H65.3831L64.7963 251.295Z" fill="#A6A6A6"/>
<path d="M143.615 251.295L143.021 258.545L141.645 275.293H135.332L133.956 258.545L133.363 251.295H143.615Z" fill="#C7C7C7"/>
<path d="M133.363 251.295H143.615L143.021 258.545H133.956L133.363 251.295Z" fill="#A6A6A6"/>
<path d="M187.759 251.295L187.172 258.545L185.789 275.293H179.476L178.1 258.545L177.514 251.295H187.759Z" fill="#C7C7C7"/>
<path d="M187.759 251.295L187.172 258.545H178.1L177.514 251.295H187.759Z" fill="#A6A6A6"/>
<path d="M200.857 219.534C199.049 219.346 153.199 198.14 151.998 196.279C151.85 196.063 156.275 186.162 156.275 186.162C156.436 165.584 155.958 146.719 155.958 146.719L188.177 161.159L187.502 194.707C187.502 194.707 192.709 200.643 196.945 205.688C199.549 208.783 201.788 211.549 202.213 212.385C203.319 214.604 202.638 219.764 200.857 219.534Z" fill="#DD6A57"/>
<path d="M201.08 219.919C199.232 219.73 152.376 198.086 151.169 196.178C151.02 195.962 153.266 191.847 155.533 185.865C155.829 185.083 155.58 179.761 156.012 174.291L188.116 187.376L187.442 194.586C187.442 194.586 192.77 200.656 197.093 205.789C199.758 208.965 202.051 211.785 202.489 212.635C203.616 214.881 202.921 220.121 201.08 219.919Z" fill="#FFC107"/>
<path opacity="0.2" d="M160.16 197.775C160.461 197.178 160.688 196.546 160.834 195.893C161.162 194.586 161.174 193.22 160.868 191.907C160.55 190.586 159.897 189.369 158.972 188.373C158.033 187.404 156.9 186.643 155.647 186.141C155.58 186.141 155.533 186.222 155.607 186.249C157.947 187.22 159.654 189.736 160.146 192.177C160.379 193.386 160.332 194.631 160.011 195.819C159.847 196.401 159.621 196.964 159.337 197.499C159.199 197.762 159.048 198.019 158.885 198.268C158.709 198.517 158.534 198.686 158.581 199.01C158.596 199.083 158.638 199.149 158.7 199.193C158.761 199.237 158.837 199.256 158.912 199.246C159.512 199.192 159.93 198.214 160.16 197.775Z" fill="black"/>
<path opacity="0.2" d="M199.225 209.491C198.261 208.666 197.063 208.163 195.798 208.054C194.483 207.878 193.151 207.867 191.833 208.021C190.534 208.16 189.259 208.462 188.035 208.918C187.441 209.141 186.86 209.397 186.295 209.687C185.704 209.948 185.155 210.298 184.67 210.725C184.654 210.743 184.644 210.766 184.641 210.79C184.639 210.814 184.644 210.838 184.656 210.859C184.668 210.88 184.686 210.896 184.708 210.906C184.73 210.916 184.754 210.919 184.778 210.914C185.312 210.716 185.837 210.491 186.349 210.24C186.936 209.997 187.529 209.774 188.137 209.565C189.32 209.198 190.535 208.941 191.765 208.796C194.205 208.419 196.702 208.805 198.915 209.903C198.969 209.928 199.031 209.935 199.09 209.92C199.149 209.906 199.201 209.872 199.237 209.823C199.274 209.775 199.292 209.715 199.29 209.655C199.288 209.594 199.265 209.537 199.225 209.491Z" fill="black"/>
<path opacity="0.2" d="M186.491 191.962C178.822 188.927 159.168 181.103 157.017 180.186C156.942 180.186 156.909 180.266 156.976 180.3C164.395 183.909 184.144 191.584 186.383 192.279C186.423 192.287 186.465 192.281 186.501 192.26C186.537 192.24 186.564 192.207 186.578 192.168C186.591 192.129 186.589 192.087 186.573 192.048C186.557 192.01 186.528 191.98 186.491 191.962Z" fill="black"/>
<path opacity="0.2" d="M158.264 179.134C158.305 179.102 158.339 179.063 158.366 179.019L158.426 178.857L158.541 178.554C158.622 178.338 158.696 178.122 158.757 177.879C158.885 177.448 158.993 177.016 159.087 176.578C159.087 176.517 159 176.49 158.979 176.578C158.844 176.996 158.689 177.414 158.527 177.825L158.291 178.432L158.17 178.749C158.117 178.847 158.09 178.956 158.089 179.066C158.092 179.085 158.1 179.103 158.112 179.118C158.123 179.133 158.139 179.144 158.157 179.151C158.175 179.158 158.194 179.16 158.213 179.157C158.232 179.154 158.25 179.146 158.264 179.134Z" fill="black"/>
<path opacity="0.2" d="M161.063 180.321C161.105 180.29 161.138 180.248 161.158 180.2C161.184 180.15 161.207 180.098 161.225 180.045L161.34 179.741C161.421 179.525 161.495 179.309 161.556 179.067C161.684 178.635 161.792 178.203 161.886 177.765C161.886 177.704 161.798 177.671 161.778 177.731C161.643 178.156 161.481 178.568 161.32 178.986C161.245 179.188 161.171 179.39 161.09 179.593L160.969 179.91C160.916 180.007 160.888 180.116 160.888 180.227C160.888 180.247 160.894 180.267 160.905 180.284C160.915 180.301 160.93 180.315 160.948 180.325C160.966 180.334 160.986 180.339 161.006 180.339C161.026 180.338 161.046 180.332 161.063 180.321Z" fill="black"/>
<path opacity="0.2" d="M163.815 181.507C163.858 181.474 163.892 181.433 163.916 181.385C163.942 181.333 163.964 181.279 163.984 181.223L164.099 180.92C164.179 180.704 164.254 180.488 164.314 180.245C164.442 179.821 164.55 179.382 164.645 178.95C164.645 178.89 164.557 178.856 164.537 178.95C164.402 179.369 164.24 179.787 164.078 180.198L163.849 180.805C163.808 180.913 163.768 181.021 163.721 181.129C163.672 181.228 163.647 181.336 163.647 181.446C163.651 181.463 163.659 181.479 163.671 181.492C163.683 181.505 163.698 181.515 163.715 181.521C163.731 181.527 163.749 181.529 163.767 181.527C163.784 181.524 163.801 181.517 163.815 181.507Z" fill="black"/>
<path opacity="0.2" d="M166.594 182.667C166.636 182.637 166.671 182.598 166.695 182.552C166.721 182.5 166.743 182.446 166.763 182.39C166.796 182.289 166.837 182.188 166.877 182.087C166.951 181.871 167.032 181.655 167.093 181.413C167.221 180.981 167.322 180.549 167.424 180.111C167.424 180.05 167.336 180.023 167.316 180.111C167.174 180.529 167.019 180.947 166.857 181.359L166.628 181.966C166.587 182.073 166.547 182.181 166.5 182.283C166.453 182.382 166.427 182.49 166.425 182.6C166.427 182.618 166.434 182.637 166.445 182.652C166.456 182.667 166.471 182.679 166.489 182.686C166.506 182.693 166.525 182.695 166.544 182.691C166.563 182.688 166.58 182.68 166.594 182.667Z" fill="black"/>
<path opacity="0.2" d="M169.373 183.875C169.415 183.845 169.45 183.806 169.474 183.76C169.474 183.706 169.514 183.652 169.541 183.598C169.568 183.544 169.616 183.396 169.656 183.295C169.73 183.079 169.804 182.863 169.872 182.62C170 182.189 170.101 181.757 170.202 181.319C170.202 181.258 170.115 181.224 170.095 181.319C169.953 181.744 169.798 182.162 169.636 182.573C169.555 182.775 169.481 182.978 169.407 183.18C169.332 183.382 169.326 183.389 169.278 183.497C169.23 183.596 169.205 183.704 169.204 183.814C169.207 183.832 169.214 183.85 169.226 183.864C169.237 183.878 169.253 183.889 169.27 183.895C169.288 183.902 169.306 183.903 169.324 183.899C169.342 183.896 169.359 183.887 169.373 183.875Z" fill="black"/>
<path opacity="0.2" d="M172.152 185.062C172.194 185.03 172.229 184.989 172.253 184.941C172.276 184.89 172.296 184.839 172.314 184.786C172.354 184.685 172.394 184.577 172.428 184.476C172.509 184.26 172.583 184.035 172.651 183.801C172.779 183.369 172.88 182.931 172.981 182.499C172.981 182.439 172.894 182.405 172.873 182.466C172.732 182.891 172.577 183.302 172.415 183.713C172.334 183.916 172.26 184.118 172.185 184.32L172.057 184.644C172.009 184.743 171.984 184.851 171.983 184.961C171.981 184.982 171.984 185.003 171.993 185.021C172.003 185.04 172.017 185.055 172.035 185.066C172.052 185.077 172.073 185.082 172.094 185.081C172.114 185.081 172.135 185.074 172.152 185.062Z" fill="black"/>
<path opacity="0.2" d="M174.93 186.248C174.971 186.214 175.006 186.173 175.032 186.127C175.055 186.074 175.075 186.02 175.092 185.965C175.133 185.864 175.173 185.762 175.207 185.661C175.288 185.445 175.362 185.23 175.43 184.987C175.551 184.562 175.659 184.123 175.76 183.685C175.76 183.624 175.672 183.597 175.652 183.685C175.511 184.103 175.355 184.521 175.194 184.933C175.113 185.135 175.038 185.337 174.964 185.54L174.836 185.864C174.788 185.96 174.763 186.066 174.762 186.174C174.764 186.192 174.771 186.21 174.783 186.224C174.794 186.239 174.808 186.251 174.825 186.258C174.842 186.266 174.861 186.269 174.879 186.267C174.898 186.265 174.915 186.259 174.93 186.248Z" fill="black"/>
<path opacity="0.2" d="M177.709 187.429C177.751 187.399 177.786 187.36 177.81 187.314C177.834 187.261 177.854 187.207 177.871 187.152C177.912 187.051 177.952 186.95 177.986 186.849C178.067 186.633 178.141 186.417 178.208 186.174C178.33 185.742 178.438 185.311 178.539 184.872C178.539 184.812 178.451 184.785 178.431 184.839C178.289 185.264 178.134 185.682 177.972 186.093C177.891 186.295 177.817 186.498 177.743 186.7C177.669 186.903 177.655 186.909 177.615 187.017C177.564 187.115 177.537 187.224 177.534 187.334C177.532 187.355 177.536 187.377 177.546 187.395C177.556 187.414 177.571 187.43 177.59 187.44C177.609 187.45 177.63 187.454 177.651 187.452C177.673 187.45 177.693 187.442 177.709 187.429Z" fill="black"/>
<path opacity="0.2" d="M180.488 188.616C180.529 188.582 180.563 188.541 180.589 188.495L180.65 188.34C180.69 188.238 180.731 188.137 180.765 188.036C180.845 187.813 180.92 187.598 180.987 187.362C181.108 186.93 181.216 186.498 181.318 186.06C181.318 185.999 181.23 185.965 181.21 186.026C181.068 186.451 180.913 186.862 180.751 187.281C180.67 187.476 180.596 187.679 180.522 187.881C180.448 188.083 180.434 188.097 180.394 188.205C180.341 188.302 180.313 188.411 180.313 188.522C180.313 188.542 180.319 188.562 180.33 188.579C180.34 188.596 180.355 188.61 180.373 188.62C180.391 188.629 180.411 188.634 180.431 188.633C180.451 188.633 180.471 188.627 180.488 188.616Z" fill="black"/>
<path opacity="0.2" d="M183.267 189.803C183.306 189.768 183.34 189.727 183.368 189.682L183.429 189.52C183.469 189.419 183.51 189.318 183.543 189.216C183.624 189.001 183.698 188.785 183.766 188.542C183.887 188.117 183.995 187.679 184.09 187.24C184.086 187.23 184.079 187.221 184.07 187.215C184.061 187.208 184.05 187.205 184.039 187.205C184.028 187.205 184.017 187.208 184.008 187.215C183.999 187.221 183.992 187.23 183.988 187.24C183.847 187.658 183.692 188.077 183.53 188.488L183.294 189.095L183.172 189.419C183.121 189.514 183.093 189.621 183.091 189.729C183.095 189.748 183.103 189.765 183.115 189.779C183.127 189.794 183.142 189.806 183.159 189.813C183.177 189.82 183.196 189.823 183.214 189.821C183.233 189.82 183.251 189.814 183.267 189.803Z" fill="black"/>
<path opacity="0.2" d="M186.019 190.984C186.059 190.952 186.094 190.914 186.12 190.869L186.181 190.707C186.221 190.606 186.262 190.505 186.295 190.404C186.376 190.188 186.45 189.972 186.518 189.729C186.639 189.298 186.747 188.866 186.842 188.428C186.838 188.417 186.831 188.409 186.822 188.402C186.813 188.396 186.802 188.393 186.791 188.393C186.78 188.393 186.769 188.396 186.76 188.402C186.751 188.409 186.744 188.417 186.74 188.428C186.599 188.846 186.444 189.264 186.282 189.676L186.046 190.283L185.924 190.6C185.872 190.697 185.844 190.806 185.843 190.917C185.846 190.935 185.854 190.953 185.866 190.968C185.878 190.983 185.893 190.995 185.911 191.001C185.929 191.008 185.949 191.01 185.967 191.007C185.986 191.004 186.004 190.996 186.019 190.984Z" fill="black"/>
<path d="M155.506 174.392L189.31 185.237C189.31 185.237 188.798 141.619 187.914 126.619C187.24 114.951 173.211 107.437 160.888 114.89C144.417 124.852 136.897 130.403 129.033 135.913L127.542 134.564L106.701 134.153C106.701 134.153 104.968 158.805 132 167C141.767 169.961 154.932 159.581 154.932 159.938C154.993 161.186 155.506 174.392 155.506 174.392Z" fill="#263238"/>
<path d="M155.081 160.093C155.081 157.82 155.364 155.526 155.499 153.254C155.634 150.981 155.755 148.863 155.897 146.664C156.18 142.226 156.396 137.774 156.733 133.343C156.922 130.854 157.192 128.372 157.448 125.89C157.448 125.83 157.36 125.809 157.354 125.89C156.976 128.17 156.632 130.456 156.322 132.75C156.322 132.325 156.322 131.9 156.288 131.475C156.227 130.322 156.146 129.175 156.072 128.022C156.069 128.014 156.064 128.008 156.057 128.004C156.051 128 156.043 127.997 156.035 127.997C156.027 127.997 156.02 128 156.013 128.004C156.006 128.008 156.001 128.014 155.998 128.022C156.039 129.155 156.079 130.288 156.14 131.394C156.14 131.961 156.227 132.534 156.268 133.1C155.375 139.514 154.881 145.976 154.791 152.451C154.791 155 154.973 157.543 154.953 160.093C154.953 160.187 155.081 160.174 155.081 160.093Z" fill="#37474F"/>
<path d="M158.979 169.179C158.628 166.09 158.534 157.214 158.453 154.125C158.298 147.879 158.413 141.633 158.689 135.395C158.851 131.867 159.101 128.353 159.364 124.832C159.364 124.832 159.33 124.799 159.33 124.832C158.515 131.006 158.013 137.217 157.826 143.441C157.603 149.673 158.244 167.047 158.851 169.199C158.878 169.239 158.993 169.233 158.979 169.179Z" fill="#37474F"/>
<path d="M155.263 127.637C150.15 131.131 144.997 134.558 139.878 138.038C137.288 139.796 134.705 141.561 132.129 143.332C130.915 144.169 129.714 145.025 128.486 145.835C127.382 146.627 126.079 147.094 124.723 147.184C123.164 147.154 121.613 146.957 120.096 146.597C118.342 146.287 116.582 146.017 114.835 145.673C114.761 145.673 114.741 145.781 114.835 145.801C116.386 146.111 117.931 146.475 119.476 146.826C120.876 147.183 122.294 147.467 123.725 147.676C124.994 147.851 126.287 147.664 127.455 147.136C128.703 146.477 129.894 145.715 131.016 144.857C136.196 141.233 141.367 137.586 146.529 133.917C149.456 131.833 152.376 129.728 155.297 127.664C155.297 127.651 155.276 127.624 155.263 127.637Z" fill="#37474F"/>
<path d="M157.017 169.623C159.04 170.216 161.063 171.012 163.087 171.714L169.157 173.811C173.204 175.201 187.159 179.558 188.292 179.719C188.366 179.719 188.393 179.618 188.332 179.585C187.422 179.099 178.39 176.023 176.354 175.356C172.307 174.007 168.166 172.833 164.065 171.592C162.891 171.235 161.718 170.918 160.537 170.56C159.357 170.203 158.177 169.886 157.023 169.515C157.009 169.514 156.995 169.519 156.984 169.528C156.973 169.538 156.967 169.551 156.966 169.565C156.965 169.58 156.97 169.594 156.979 169.604C156.989 169.615 157.002 169.622 157.017 169.623Z" fill="#37474F"/>
<path d="M149.752 291C147.898 291 99.1672 273.909 97.7846 272.115C97.616 271.913 99.1335 267.495 101.157 261.438C102.351 257.877 104.131 253.554 106.081 249.156C111.274 237.454 117.715 225.186 117.715 225.186L149.368 237.67L137.747 259.557L133.768 267.057C133.768 267.057 139.642 272.58 144.438 277.295C147.392 280.195 149.941 282.785 150.454 283.595C151.796 285.753 151.621 291.027 149.752 291Z" fill="#DD6A57"/>
<path d="M149.752 291C147.898 291 99.1672 273.909 97.7846 272.115C97.616 271.913 99.1335 267.495 101.157 261.438C102.351 257.877 104.131 253.554 106.081 249.156L136.83 261.297L133.774 267.057C133.774 267.057 139.649 272.581 144.444 277.295C147.399 280.195 149.948 282.785 150.461 283.595C151.796 285.753 151.621 291.027 149.752 291Z" fill="#FFC107"/>
<path opacity="0.2" d="M106.91 272.864C107.164 272.24 107.339 271.588 107.43 270.921C107.634 269.599 107.523 268.247 107.106 266.976C106.668 265.678 105.901 264.516 104.88 263.603C103.851 262.728 102.649 262.08 101.353 261.701C101.285 261.701 101.251 261.789 101.353 261.809C103.774 262.558 105.737 264.891 106.438 267.279C106.786 268.461 106.86 269.707 106.654 270.921C106.549 271.512 106.384 272.09 106.162 272.648C106.053 272.929 105.924 273.201 105.777 273.464C105.635 273.727 105.474 273.916 105.554 274.226C105.575 274.299 105.623 274.361 105.689 274.399C105.754 274.436 105.832 274.447 105.905 274.428C106.431 274.334 106.728 273.316 106.91 272.864Z" fill="black"/>
<path opacity="0.2" d="M146.899 280.802C145.86 280.075 144.62 279.688 143.352 279.696C142.025 279.648 140.698 279.764 139.399 280.04C138.122 280.301 136.882 280.723 135.71 281.295C135.141 281.575 134.587 281.886 134.051 282.225C133.485 282.544 132.969 282.944 132.52 283.412C132.503 283.432 132.493 283.456 132.492 283.482C132.49 283.507 132.498 283.533 132.512 283.554C132.527 283.575 132.549 283.59 132.573 283.597C132.598 283.605 132.624 283.604 132.648 283.595C133.167 283.385 133.646 283.021 134.145 282.758C134.704 282.454 135.278 282.179 135.865 281.935C137.007 281.457 138.19 281.085 139.399 280.822C141.793 280.214 144.317 280.363 146.623 281.247C146.682 281.277 146.749 281.284 146.813 281.266C146.876 281.248 146.93 281.207 146.965 281.151C147 281.096 147.012 281.029 147 280.964C146.988 280.899 146.952 280.842 146.899 280.802Z" fill="black"/>
<path opacity="0.2" d="M134.199 265.742C126.53 262.727 106.856 254.951 104.705 254.02C104.637 253.986 104.603 254.101 104.671 254.134C112.09 257.729 131.859 265.371 134.091 266.066C134.134 266.08 134.181 266.077 134.222 266.057C134.262 266.036 134.293 266.001 134.307 265.958C134.321 265.915 134.318 265.868 134.298 265.828C134.278 265.787 134.242 265.756 134.199 265.742Z" fill="black"/>
<path opacity="0.2" d="M105.952 252.968C105.993 252.934 106.027 252.893 106.054 252.846L106.114 252.684C106.155 252.583 106.195 252.482 106.229 252.381C106.31 252.165 106.384 251.949 106.445 251.706C106.573 251.282 106.681 250.843 106.775 250.405C106.775 250.344 106.688 250.317 106.667 250.405C106.532 250.823 106.377 251.241 106.215 251.653L105.979 252.26L105.858 252.583C105.805 252.681 105.778 252.79 105.777 252.9C105.781 252.918 105.79 252.935 105.802 252.949C105.815 252.962 105.83 252.973 105.847 252.98C105.864 252.986 105.883 252.989 105.901 252.987C105.92 252.984 105.937 252.978 105.952 252.968Z" fill="black"/>
<path opacity="0.2" d="M108.731 254.161C108.774 254.129 108.808 254.087 108.832 254.04C108.857 253.987 108.877 253.933 108.893 253.878C108.934 253.777 108.974 253.675 109.008 253.574C109.089 253.358 109.163 253.143 109.23 252.9C109.352 252.475 109.46 252.036 109.554 251.598C109.554 251.537 109.466 251.51 109.446 251.598C109.311 252.016 109.156 252.434 108.994 252.846C108.913 253.048 108.839 253.251 108.765 253.453L108.637 253.777C108.588 253.875 108.563 253.984 108.563 254.094C108.566 254.111 108.574 254.128 108.585 254.142C108.597 254.156 108.612 254.167 108.629 254.173C108.645 254.18 108.663 254.183 108.681 254.18C108.699 254.178 108.717 254.172 108.731 254.161Z" fill="black"/>
<path opacity="0.2" d="M111.51 255.327C111.553 255.294 111.587 255.253 111.611 255.205C111.637 255.155 111.659 255.103 111.679 255.05L111.787 254.74C111.868 254.524 111.942 254.308 112.009 254.065C112.131 253.64 112.238 253.202 112.333 252.764C112.329 252.753 112.322 252.744 112.313 252.738C112.304 252.732 112.293 252.729 112.282 252.729C112.271 252.729 112.261 252.732 112.252 252.738C112.242 252.744 112.236 252.753 112.232 252.764C112.09 253.182 111.935 253.6 111.773 254.011C111.692 254.214 111.618 254.416 111.544 254.618C111.47 254.821 111.463 254.834 111.416 254.942C111.367 255.041 111.342 255.149 111.341 255.259C111.345 255.277 111.353 255.294 111.364 255.308C111.376 255.321 111.391 255.332 111.407 255.339C111.424 255.346 111.442 255.348 111.46 255.346C111.478 255.344 111.495 255.337 111.51 255.327Z" fill="black"/>
<path opacity="0.2" d="M114.296 256.508C114.336 256.476 114.368 256.434 114.39 256.387C114.415 256.337 114.438 256.285 114.457 256.232C114.498 256.131 114.532 256.03 114.572 255.922C114.646 255.706 114.72 255.49 114.788 255.247C114.916 254.816 115.017 254.377 115.118 253.945C115.118 253.878 115.031 253.851 115.01 253.912C114.869 254.33 114.714 254.748 114.552 255.16C114.471 255.362 114.397 255.564 114.323 255.767C114.248 255.969 114.242 255.982 114.194 256.09C114.146 256.189 114.121 256.297 114.12 256.407C114.119 256.428 114.124 256.449 114.135 256.467C114.145 256.485 114.159 256.5 114.177 256.511C114.195 256.521 114.216 256.526 114.237 256.526C114.258 256.526 114.278 256.519 114.296 256.508Z" fill="black"/>
<path opacity="0.2" d="M117.074 257.689C117.117 257.657 117.151 257.615 117.176 257.568L117.236 257.413L117.351 257.109C117.432 256.887 117.506 256.671 117.567 256.435C117.695 256.003 117.796 255.565 117.897 255.133C117.897 255.072 117.81 255.039 117.789 255.099C117.648 255.524 117.493 255.936 117.331 256.354C117.257 256.549 117.182 256.752 117.101 256.954L116.98 257.278C116.927 257.375 116.9 257.484 116.899 257.595C116.9 257.615 116.905 257.635 116.916 257.652C116.927 257.669 116.941 257.683 116.959 257.693C116.977 257.703 116.997 257.707 117.017 257.707C117.038 257.706 117.057 257.7 117.074 257.689Z" fill="black"/>
<path opacity="0.2" d="M119.853 258.882C119.895 258.849 119.93 258.808 119.954 258.76L120.015 258.605C120.056 258.504 120.096 258.403 120.13 258.302C120.211 258.086 120.285 257.863 120.346 257.627C120.474 257.196 120.582 256.757 120.676 256.325C120.676 256.265 120.588 256.231 120.568 256.292C120.433 256.717 120.271 257.128 120.116 257.546C120.035 257.742 119.961 257.951 119.88 258.153L119.759 258.47C119.706 258.568 119.678 258.677 119.678 258.787C119.678 258.808 119.684 258.827 119.695 258.844C119.705 258.862 119.72 258.876 119.738 258.885C119.756 258.895 119.776 258.9 119.796 258.899C119.816 258.898 119.836 258.892 119.853 258.882Z" fill="black"/>
<path opacity="0.2" d="M122.619 260.05C122.663 260.019 122.698 259.977 122.72 259.928C122.744 259.878 122.764 259.826 122.78 259.773C122.821 259.672 122.861 259.571 122.895 259.47C122.976 259.254 123.05 259.031 123.118 258.795C123.239 258.364 123.347 257.925 123.441 257.493C123.441 257.433 123.354 257.399 123.334 257.46C123.199 257.885 123.044 258.296 122.882 258.714C122.801 258.917 122.727 259.119 122.652 259.321C122.605 259.422 122.565 259.53 122.524 259.638C122.474 259.736 122.448 259.845 122.45 259.955C122.445 259.976 122.448 259.998 122.457 260.018C122.466 260.038 122.481 260.054 122.499 260.065C122.518 260.075 122.54 260.079 122.561 260.077C122.583 260.074 122.603 260.065 122.619 260.05Z" fill="black"/>
<path opacity="0.2" d="M125.411 261.229C125.453 261.2 125.488 261.16 125.512 261.115C125.512 261.061 125.553 261.007 125.58 260.953L125.687 260.649C125.768 260.434 125.843 260.218 125.91 259.975C126.031 259.543 126.139 259.112 126.234 258.673C126.234 258.612 126.153 258.579 126.133 258.639C125.991 259.064 125.836 259.476 125.674 259.894C125.593 260.096 125.519 260.299 125.445 260.501C125.404 260.602 125.357 260.71 125.316 260.818C125.268 260.917 125.243 261.025 125.242 261.135C125.238 261.156 125.24 261.178 125.249 261.198C125.258 261.217 125.273 261.234 125.292 261.244C125.311 261.255 125.332 261.259 125.354 261.256C125.375 261.254 125.395 261.244 125.411 261.229Z" fill="black"/>
<path opacity="0.2" d="M128.196 262.41C128.235 262.378 128.267 262.339 128.291 262.295C128.316 262.243 128.339 262.189 128.358 262.134C128.392 262.032 128.433 261.931 128.473 261.83C128.547 261.614 128.621 261.398 128.689 261.156C128.817 260.724 128.918 260.292 129.013 259.854C129.013 259.793 128.932 259.759 128.911 259.82C128.77 260.245 128.615 260.656 128.453 261.075C128.372 261.277 128.298 261.479 128.223 261.682C128.149 261.884 128.142 261.891 128.095 261.999C128.047 262.097 128.022 262.206 128.021 262.316C128.019 262.337 128.023 262.358 128.033 262.377C128.043 262.396 128.059 262.411 128.077 262.421C128.096 262.431 128.117 262.436 128.139 262.434C128.16 262.432 128.18 262.423 128.196 262.41Z" fill="black"/>
<path opacity="0.2" d="M130.975 263.603C131.016 263.572 131.05 263.533 131.076 263.489L131.137 263.327L131.252 263.023C131.333 262.808 131.407 262.592 131.468 262.349C131.596 261.917 131.697 261.486 131.798 261.047C131.798 260.986 131.71 260.953 131.69 261.013C131.549 261.438 131.393 261.85 131.232 262.268L131.002 262.875L130.881 263.192C130.828 263.289 130.8 263.398 130.8 263.509C130.798 263.53 130.802 263.552 130.812 263.57C130.822 263.589 130.837 263.605 130.856 263.615C130.875 263.625 130.896 263.629 130.917 263.627C130.939 263.625 130.959 263.617 130.975 263.603Z" fill="black"/>
<path opacity="0.2" d="M133.754 264.771C133.795 264.74 133.829 264.701 133.855 264.657L133.916 264.495C133.956 264.394 133.997 264.293 134.031 264.191C134.112 263.976 134.186 263.76 134.246 263.517C134.375 263.085 134.482 262.654 134.577 262.215C134.577 262.154 134.489 262.121 134.469 262.181C134.327 262.606 134.172 263.025 134.017 263.436L133.781 264.043L133.66 264.36C133.607 264.457 133.579 264.566 133.579 264.677C133.577 264.698 133.581 264.719 133.591 264.738C133.601 264.757 133.616 264.772 133.635 264.783C133.654 264.793 133.675 264.797 133.696 264.795C133.717 264.793 133.738 264.785 133.754 264.771Z" fill="black"/>
<path d="M141.2 260.231L105.581 246.067C105.581 246.067 127.61 196.966 127.164 196.008C125.566 192.697 94.2368 185.837 85.1787 171.957C75.5878 157.26 90.3519 133.809 90.3519 133.809L120.939 134.517C120.939 134.517 118.288 152.424 119.415 153.847C120.157 154.791 160.557 170.81 165.488 181.156C173.001 196.946 141.2 260.231 141.2 260.231Z" fill="#263238"/>
<path d="M167.289 186.647C167.044 185 166.532 183.405 165.771 181.925C164.904 180.335 163.794 178.89 162.48 177.642C159.697 175.031 156.676 172.687 153.455 170.641C150.189 168.471 146.812 166.472 143.338 164.652C139.811 162.804 136.209 161.104 132.547 159.479C128.884 157.853 125.242 156.397 121.58 154.879L119.847 154.164C121.985 153.8 124.116 153.395 126.247 152.997C126.269 152.992 126.288 152.979 126.302 152.961C126.315 152.944 126.322 152.922 126.322 152.9C126.322 152.877 126.315 152.856 126.302 152.838C126.288 152.82 126.269 152.807 126.247 152.802C122.105 152.705 117.983 153.408 114.107 154.872C114.046 154.872 114.06 154.994 114.107 154.987C115.935 154.785 117.742 154.508 119.55 154.205C122.848 155.668 126.126 157.172 129.411 158.676C132.958 160.302 136.486 161.974 139.939 163.802C146.778 167.417 153.496 171.39 159.499 176.32C162.196 178.56 164.665 181.15 165.724 184.576C166.709 187.759 166.479 191.179 165.872 194.41C165.099 198.021 164.124 201.585 162.952 205.087C161.711 209.084 160.411 213.061 159.053 217.018C157.704 220.97 150.009 241.299 149.496 242.115C149.422 242.236 149.611 242.358 149.699 242.25C150.306 241.474 162.082 212.155 163.33 208.101C164.483 204.365 165.67 200.615 166.54 196.797C167.329 193.506 167.808 190.026 167.289 186.647Z" fill="#37474F"/>
<path d="M132.56 192.508C131.561 191.994 130.518 191.569 129.444 191.24L125.93 189.891L118.983 187.193C114.538 185.48 110.067 183.821 105.649 182.033C98.1218 178.978 90.1361 174.614 87.1684 166.568C86.4736 164.706 86.1505 162.726 86.2174 160.74C86.3609 158.325 86.7015 155.924 87.2359 153.564C88.1881 148.779 89.5164 144.077 91.2085 139.501C91.6199 138.382 92.0786 137.276 92.5574 136.169C92.5597 136.156 92.5574 136.142 92.551 136.13C92.5446 136.119 92.5343 136.109 92.5219 136.104C92.5095 136.098 92.4957 136.097 92.4825 136.101C92.4694 136.104 92.4578 136.112 92.4495 136.122C90.5597 140.536 88.9974 145.083 87.7754 149.726C87.1752 152.04 86.6626 154.387 86.2512 156.748C85.7934 158.899 85.6637 161.107 85.8667 163.297C86.8582 171.269 93.5354 176.88 100.314 180.253C104.482 182.323 108.907 183.875 113.257 185.534L126.955 190.761L130.382 192.076C131.306 192.427 133.039 192.751 132.978 194.039C132.918 194.548 132.76 195.04 132.513 195.489C132.25 196.083 131.98 196.676 131.717 197.263L130.159 200.716C128.14 205.213 126.133 209.696 124.136 214.165C120.089 223.203 119.516 224.491 115.537 233.549C115.044 234.676 114.545 235.802 114.053 236.922C114.053 236.982 114.113 237.023 114.14 236.969C118.228 227.958 119.037 226.778 123.111 217.76C125.161 213.219 127.185 208.673 129.181 204.122L132.162 197.378C132.678 196.431 133.085 195.428 133.376 194.39C133.454 194.03 133.417 193.655 133.271 193.318C133.124 192.98 132.876 192.697 132.56 192.508Z" fill="#37474F"/>
<path d="M141.935 251.861C140.02 250.944 138.125 249.986 136.169 249.163C134.213 248.34 132.236 247.538 130.26 246.762C126.326 245.22 122.369 243.75 118.39 242.351C116.144 241.562 113.871 240.834 111.645 240.011C111.584 240.011 111.564 240.105 111.645 240.125C115.692 241.596 119.624 243.302 123.597 244.914C127.569 246.526 131.36 248.104 135.265 249.635C137.464 250.499 139.696 251.247 141.908 252.057C141.962 252.09 142.03 251.908 141.935 251.861Z" fill="#37474F"/>
<path d="M93.4882 154.792C95.3196 154.363 97.1219 153.818 98.8839 153.16C100.348 152.627 101.845 152.087 102.931 150.887C104.995 148.546 105.318 145.113 105.244 142.119C105.244 142.045 105.359 142.038 105.366 142.119C105.595 145.336 106.202 148.958 103.888 151.636C102.707 152.866 101.181 153.712 99.5112 154.064C97.558 154.551 95.5602 154.838 93.5489 154.92C93.5319 154.928 93.5124 154.929 93.4947 154.923C93.477 154.917 93.4625 154.903 93.4545 154.886C93.4464 154.869 93.4454 154.85 93.4518 154.832C93.4581 154.815 93.4712 154.8 93.4882 154.792Z" fill="#37474F"/>
<path d="M142.043 114.876L136.526 115.213C134.785 112.158 134.038 108.636 134.388 105.137C134.449 104.341 132.736 108.988 133.714 115.389C127.886 115.746 119.961 116.225 113.041 116.582C112.805 113.884 112.468 111.389 112.468 111.389C112.311 113.171 112 114.936 111.537 116.663C110.586 116.717 109.662 116.758 108.772 116.798C108.667 112.962 108.352 109.134 107.827 105.332C107.476 109.362 106.464 113.306 104.833 117.007C100.435 117.183 97.5418 117.223 97.7171 117.007C104.084 109.129 99.0661 104.921 100.692 98.1221C102.661 89.988 109.554 88.4502 109.122 82.4137C108.785 77.4968 107.841 68.5938 113.985 66.4558C115.606 64.7473 117.694 63.5541 119.989 63.0251C122.283 62.4961 124.683 62.6548 126.888 63.4814C136.85 66.8537 133.525 82.1979 134.307 85.2532C135.42 89.6306 137.578 91.1076 139.332 96.0448C141.086 100.982 138.927 104.536 138.792 107.996C138.657 111.456 143.143 114.822 142.043 114.876Z" fill="#263238"/>
<path d="M97.4945 115.894C98.3548 114.53 99.0199 113.052 99.4707 111.504C99.9158 109.986 99.6393 108.462 99.2751 106.883C98.8659 105.291 98.5373 103.679 98.2904 102.054C98.0458 100.356 98.1467 98.6266 98.5871 96.9687C99.0612 95.3118 99.9105 93.7863 101.069 92.5105C102.192 91.2866 103.415 90.1586 104.725 89.1381C105.992 88.1672 107.126 87.0333 108.097 85.7658C109.025 84.4501 109.578 82.9066 109.696 81.3008C109.818 82.969 109.435 84.6355 108.596 86.0828C107.711 87.4957 106.62 88.7687 105.359 89.8598C104.164 90.9111 103.038 92.0375 101.986 93.2321C100.988 94.4108 100.257 95.7912 99.8417 97.279C99.4607 98.7833 99.3624 100.345 99.5516 101.886C99.7 103.45 100.051 105.022 100.321 106.647C100.471 107.473 100.557 108.31 100.577 109.15C100.572 110.011 100.415 110.866 100.111 111.672C99.4974 113.224 98.6111 114.654 97.4945 115.894Z" fill="#263238"/>
<path d="M132.661 68.8975C133.419 70.7778 133.942 72.7439 134.219 74.7519C134.543 76.7753 134.772 78.738 134.975 80.7276L135.299 83.6953C135.393 84.6555 135.58 85.6043 135.858 86.5281C136.506 88.3488 137.477 90.0374 138.725 91.5124C139.352 92.3263 139.922 93.1827 140.431 94.0754C140.938 94.9947 141.34 95.9674 141.632 96.9756C141.89 97.979 142.073 99.0003 142.178 100.031C142.288 101.066 142.27 102.11 142.124 103.14C141.983 104.172 141.733 105.164 141.524 106.115C141.313 107.07 141.196 108.044 141.173 109.022C141.179 110 141.418 110.962 141.871 111.83C142.323 112.697 142.977 113.443 143.777 114.006C142.869 113.511 142.098 112.797 141.535 111.929C140.973 111.061 140.635 110.066 140.553 109.035C140.495 108.012 140.543 106.986 140.694 105.973C140.829 104.961 141.045 103.99 141.119 103.032C141.239 101.103 141.011 99.1679 140.445 97.3196C140.157 96.4112 139.777 95.5344 139.312 94.7027C138.822 93.861 138.274 93.0542 137.673 92.2881C137.053 91.4771 136.474 90.6351 135.939 89.7655C135.393 88.8638 134.965 87.8959 134.665 86.8856C134.396 85.8817 134.226 84.8538 134.159 83.8167C134.064 82.8118 134.01 81.7933 133.956 80.8086C133.835 78.7852 133.747 76.8157 133.579 74.8328C133.478 72.828 133.171 70.839 132.661 68.8975Z" fill="#263238"/>
<path d="M114.565 66.2209C116.049 64.872 116.231 59.9348 114.012 57.6956C110.964 54.6133 104.401 58.0598 105.716 62.7609C107.032 67.4619 113.419 67.2798 114.565 66.2209Z" fill="#263238"/>
<path d="M107.72 57.6345C108.915 56.8645 110.282 56.4011 111.699 56.2855C112.363 56.2334 113.027 56.3875 113.6 56.7267C114.174 57.0659 114.628 57.5736 114.903 58.1808C115.216 58.8013 115.443 59.4616 115.577 60.1435C115.732 60.8226 115.807 61.5176 115.8 62.2141C115.803 63.6416 115.377 65.0372 114.579 66.2205C115.63 65.1534 116.26 63.7426 116.353 62.2478C116.41 61.4993 116.37 60.7465 116.231 60.0086C116.111 59.2649 115.884 58.5425 115.557 57.8638C115.207 57.152 114.656 56.5586 113.972 56.1574C113.273 55.7874 112.476 55.6436 111.692 55.7459C110.205 55.9502 108.817 56.6099 107.72 57.6345Z" fill="#263238"/>
<path d="M119.88 102.237C123.064 115.194 131.346 131.617 137.801 133.789C142.178 135.266 157.704 124.077 163.518 120.462C169.332 116.846 156.288 102.588 152.956 104.895C147.79 108.469 140.816 113.717 139.514 113.299C137.882 112.779 135.467 108.942 125.768 98.0961C121.674 93.503 118.525 96.7202 119.88 102.237Z" fill="#DD6A57"/>
<path d="M159.209 99.4034C161.954 98.4389 165.022 97.1034 168.064 97.1641C171.106 97.2248 173.642 101.211 173.642 102.391C173.642 103.572 172.489 110.728 169.447 110.728C166.405 110.728 168.24 105.211 168.098 104.577C167.956 103.943 167.869 103.133 167.289 103.194C166.709 103.255 156.659 108.023 156.659 108.023L159.209 99.4034Z" fill="#DD6A57"/>
<path d="M159.404 99.8291C159.579 99.8291 167.741 96.6052 170.789 96.6659C173.838 96.7266 176.36 100.713 176.36 101.893C176.36 103.073 175.214 110.229 172.165 110.229C169.116 110.229 170.958 104.712 170.816 104.078C170.674 103.444 170.587 102.642 170.013 102.729C169.44 102.817 159.377 107.565 159.377 107.565L159.404 99.8291Z" fill="#DD6A57"/>
<path d="M171.133 109.825C170.809 109.28 170.634 108.659 170.627 108.024C170.562 107.375 170.598 106.72 170.735 106.082C170.905 105.533 171.029 104.972 171.106 104.403C171.102 103.838 170.956 103.284 170.681 102.791C170.445 102.366 170.007 102.514 169.616 102.649C169.047 102.862 168.493 103.112 167.956 103.398C167.376 103.688 166.796 103.984 166.223 104.288C165.612 104.57 165.022 104.895 164.456 105.259C164.415 105.259 164.456 105.36 164.49 105.34C165.016 105.143 165.532 104.918 166.034 104.666C166.614 104.396 167.194 104.126 167.781 103.87C168.368 103.613 168.86 103.35 169.407 103.121C169.652 102.979 169.926 102.896 170.209 102.878C170.445 102.932 170.56 103.505 170.607 103.688C170.732 104.234 170.697 104.806 170.506 105.333C170.343 105.879 170.237 106.439 170.189 107.006C170.134 107.538 170.177 108.075 170.317 108.591C170.504 109.055 170.746 109.494 171.039 109.899C171.079 109.96 171.18 109.899 171.133 109.825Z" fill="#263238"/>
<path d="M149.739 107.801C149.739 107.801 158.183 100.105 159.944 98.581C163.464 95.5122 178.316 89.4487 180.387 89.2261C182.457 89.0035 183.206 93.2729 173.123 97.657C167.815 99.9839 166.87 103.053 166.972 104.712C167.073 106.371 168.678 109.541 171.518 109.433C174.357 109.325 176.192 105.218 178.795 104.759C181.399 104.301 179.679 109.076 177.844 111.834C175.914 114.502 173.267 116.568 170.209 117.79C167.761 118.707 160.166 121.978 160.166 121.978L149.739 107.801Z" fill="#DD6A57"/>
<path d="M175.032 107.491C173.966 108.314 172.759 109.387 171.349 109.441C169.939 109.495 168.955 108.55 168.28 107.37C167.54 106.205 167.274 104.8 167.538 103.445C167.865 102.22 168.54 101.117 169.481 100.268C170.629 99.2343 171.922 98.3732 173.318 97.7116C173.379 97.7116 173.318 97.5902 173.264 97.6172C171.956 98.204 167.902 99.8632 167.086 103.445C166.83 104.83 167.112 106.26 167.875 107.444C168.509 108.571 169.42 109.663 170.796 109.771C172.469 109.906 173.912 108.544 175.119 107.532C175.173 107.485 175.092 107.444 175.032 107.491Z" fill="#263238"/>
<path d="M126.76 124.859L137.801 108.908C134.491 105.183 130.959 101.66 127.225 98.3595C120.912 92.7681 117.054 94.6094 119.529 105.711C121.019 112.405 123.453 118.852 126.76 124.859Z" fill="#FFC107"/>
<path d="M122.612 105.92L121.627 107.242L120.062 107.768L121.02 109.11L121.034 110.763L122.612 110.27L124.183 110.763L124.197 109.11L125.155 107.768L123.59 107.242L122.612 105.92Z" fill="white"/>
<path d="M130.867 101.73L130.119 101.98L131.07 103.322L131.09 104.968L132.668 104.476L134.085 104.921L130.867 101.73Z" fill="white"/>
<path d="M121.027 95.3647V95.9515L122.565 95.4726C122.068 95.3141 121.541 95.2771 121.027 95.3647Z" fill="white"/>
<path d="M128.021 116.839L128.979 118.181L128.999 119.841L130.571 119.342H130.584L132.459 116.617L131.555 116.32L130.571 114.991L129.586 116.32L128.021 116.839Z" fill="white"/>
<path opacity="0.1" d="M119.536 105.737C121.024 112.422 123.456 118.86 126.76 124.858L135.433 112.32C131.818 107.444 123.246 98.291 121.27 95.3301C118.889 95.5459 117.998 98.8778 119.536 105.737Z" fill="black"/>
<path d="M135.474 107.29C134.516 108.382 133.72 109.617 132.864 110.783C132.007 111.95 131.225 113.009 130.442 114.156C128.824 116.516 127.25 118.909 125.721 121.332C125.721 121.373 125.762 121.427 125.795 121.386C127.481 119.106 129.138 116.809 130.766 114.493C131.576 113.34 132.351 112.166 133.127 110.992C133.902 109.819 134.826 108.618 135.535 107.357C135.568 107.303 135.508 107.256 135.474 107.29Z" fill="#263238"/>
<path d="M132.21 142.718C132.21 142.718 87.6945 141.073 86.2646 140.229C86.2646 140.229 93.9199 119.597 102.911 103.714C112.542 86.7103 121.485 92.8547 124.494 96.1933C128.062 100.152 134.273 114.06 134.523 116.623C134.934 120.865 130.854 125.061 130.854 125.061L132.21 142.718Z" fill="#FFC107"/>
<path d="M111.402 98.2168L110.417 99.5388L108.853 100.065L109.81 101.414L109.824 103.059L111.402 102.567L112.974 103.059L112.987 101.414L113.945 100.065L112.38 99.5388L111.402 98.2168Z" fill="white"/>
<path d="M100.186 121.911L99.201 123.24L97.6362 123.766L98.594 125.108L98.6142 126.761L100.186 126.261L101.757 126.761L101.777 125.108L102.735 123.766L101.17 123.24L100.186 121.911Z" fill="white"/>
<path d="M122.045 123.239L121.061 124.568L119.496 125.094L120.454 126.436L120.467 128.089L122.045 127.59L123.617 128.089L123.637 126.436L124.595 125.094L123.03 124.568L122.045 123.239Z" fill="white"/>
<path d="M98.0274 140.176L98.7963 141.248L102.236 141.43L103.126 140.176L101.568 139.657L100.577 138.308L99.5922 139.657L98.0274 140.176Z" fill="white"/>
<path d="M99.8215 109.441L99.9564 109.623V111.269L101.535 110.77L103.106 111.269V109.623L104.071 108.274L102.499 107.742L101.521 106.393L101.042 107.067C100.631 107.87 100.226 108.652 99.8215 109.441Z" fill="white"/>
<path d="M111.402 129.722L110.417 131.05L108.853 131.57L109.81 132.919L109.824 134.564L111.402 134.072L112.974 134.564L112.987 132.919L113.945 131.57L112.38 131.05L111.402 129.722Z" fill="white"/>
<path d="M88.4364 134.658L89.8798 134.199L91.458 134.698V133.046L92.4158 131.697L90.851 131.178L90.1765 130.308C89.5695 131.913 88.949 133.37 88.4364 134.658Z" fill="white"/>
<path d="M128.817 133.209L129.768 134.551L129.788 136.197L131.366 135.697L131.677 135.805L131.339 131.381L130.375 132.676L128.817 133.209Z" fill="white"/>
<path d="M122.612 105.92L121.627 107.242L120.062 107.768L121.02 109.11L121.034 110.763L122.612 110.27L124.183 110.763L124.197 109.11L125.155 107.768L123.59 107.242L122.612 105.92Z" fill="white"/>
<path d="M120.137 93.0439L121.02 94.3052V95.9509L122.598 95.4518L124.17 95.9509V95.8632C123.028 94.6631 121.656 93.7044 120.137 93.0439Z" fill="white"/>
<path d="M112.063 113.744L111.078 115.066L109.514 115.592L110.471 116.934L110.485 118.587L112.063 118.094L113.635 118.587L113.655 116.934L114.613 115.592L113.048 115.066L112.063 113.744Z" fill="white"/>
<path d="M118.572 140.925L119.482 142.213C120.602 142.26 121.681 142.307 122.706 142.341V142.267L123.657 140.918L122.099 140.392L121.114 139.043L120.13 140.392L118.572 140.925Z" fill="white"/>
<path d="M130.571 114.991L129.586 116.313L128.021 116.839L128.979 118.188L128.999 119.834L130.571 119.342L132.149 119.834L132.162 118.188L133.12 116.839L131.555 116.313L130.571 114.991Z" fill="white"/>
<path d="M116.933 123.18C118.822 123.365 120.696 123.69 122.538 124.151C123.448 124.394 124.338 124.677 125.235 124.981C125.681 125.129 126.126 125.264 126.584 125.399C127.052 125.551 127.537 125.646 128.028 125.682C128.037 125.682 128.045 125.686 128.052 125.692C128.058 125.698 128.061 125.707 128.061 125.716C128.061 125.725 128.058 125.733 128.052 125.74C128.045 125.746 128.037 125.75 128.028 125.75C127.564 125.772 127.1 125.761 126.638 125.716C126.184 125.657 125.733 125.569 125.289 125.453C124.359 125.217 123.448 124.934 122.524 124.691C120.656 124.192 118.794 123.699 116.899 123.342C116.825 123.315 116.845 123.173 116.933 123.18Z" fill="#263238"/>
<path d="M112.252 124.812C113.821 124.662 115.397 124.601 116.973 124.63C117.756 124.63 118.531 124.704 119.314 124.792C119.685 124.825 120.056 124.873 120.426 124.927C120.797 124.981 121.236 125.088 121.641 125.142C121.649 125.142 121.658 125.146 121.664 125.152C121.671 125.159 121.674 125.167 121.674 125.176C121.674 125.185 121.671 125.194 121.664 125.2C121.658 125.206 121.649 125.21 121.641 125.21C121.256 125.169 120.858 125.21 120.474 125.21L119.3 125.169L116.96 125.088C115.402 125.021 113.844 124.974 112.286 124.96C112.276 124.963 112.266 124.963 112.256 124.961C112.246 124.959 112.237 124.956 112.228 124.95C112.22 124.945 112.212 124.938 112.207 124.93C112.201 124.922 112.197 124.913 112.195 124.903C112.192 124.893 112.192 124.883 112.194 124.873C112.195 124.863 112.199 124.854 112.204 124.846C112.21 124.837 112.217 124.83 112.225 124.824C112.233 124.818 112.242 124.814 112.252 124.812Z" fill="#263238"/>
<path d="M114.97 96.1131C115.118 96.936 118.693 102.386 122.389 102.413C123.59 102.413 123.92 95.8366 123.92 95.8366L124.055 95.3577L125.944 88.613L118.228 83.0486L117.108 82.3135C117.108 82.3135 116.717 84.1818 116.245 86.5222C116.245 86.6301 116.198 86.738 116.177 86.8527C116.157 86.9673 116.117 87.1089 116.096 87.2304C116.022 87.5811 115.948 87.9385 115.881 88.296C115.813 88.6535 115.779 88.8288 115.732 89.1121C115.685 89.3954 115.638 89.6787 115.584 89.962C115.24 91.996 115.035 94.0512 114.97 96.1131Z" fill="#DD6A57"/>
<path d="M116.252 86.5491C116.837 88.4958 117.839 90.2918 119.188 91.8128C120.536 93.3338 122.199 94.5434 124.062 95.3577L125.95 88.613L118.234 83.0486L117.115 82.3135C117.115 82.3135 116.724 84.1952 116.252 86.5491Z" fill="#263238"/>
<path d="M136.924 78.6652C137.066 90.9136 129.741 92.3839 127.097 92.4109C124.703 92.4109 116.535 92.2153 115.125 80.0479C113.716 67.8805 119.368 63.9348 124.851 63.5841C130.334 63.2334 136.782 66.4101 136.924 78.6652Z" fill="#DD6A57"/>
<path d="M115.503 82.6907C116.295 82.2729 116.965 81.6567 117.447 80.9024C117.929 80.1482 118.208 79.2816 118.255 78.3876C120.412 77.353 122.256 75.7631 123.597 73.7809C123.522 74.0372 122.976 75.9258 122.672 76.8768C130.571 75.1231 132.83 68.9517 132.83 68.9517C134.398 70.297 135.641 71.9804 136.465 73.8754C136.465 73.8754 136.357 68.9922 133.768 65.8155C130.557 61.917 120.157 61.1886 115.557 66.5709C110.532 72.3713 115.503 82.6907 115.503 82.6907Z" fill="#263238"/>
<path d="M128.689 75.3533C127.431 76.1019 126.066 76.6546 124.642 76.9923C126.856 76.3083 128.835 75.0187 130.355 73.2692C131 72.5214 131.551 71.6968 131.994 70.8141C132.507 69.8628 132.831 68.8204 132.945 67.7453C132.945 67.7292 132.951 67.7137 132.962 67.7023C132.974 67.691 132.989 67.6846 133.005 67.6846C133.021 67.6846 133.037 67.691 133.048 67.7023C133.06 67.7137 133.066 67.7292 133.066 67.7453C133.07 68.8168 132.894 69.8814 132.547 70.895C132.155 71.8887 131.586 72.8029 130.867 73.5929C130.222 74.2854 129.482 74.8826 128.669 75.3668" fill="#263238"/>
<path d="M117.081 80.9637C117.081 80.9637 114.7 76.9169 112.899 77.7667C111.099 78.6165 112.69 84.2686 114.66 85.1859C114.905 85.3202 115.175 85.4034 115.454 85.4305C115.732 85.4576 116.013 85.428 116.279 85.3435C116.546 85.2591 116.793 85.1215 117.005 84.939C117.217 84.7566 117.39 84.5331 117.513 84.2821L117.081 80.9637Z" fill="#DD6A57"/>
<path d="M113.399 79.3857V79.4397C114.747 80.1142 115.422 81.5036 115.854 82.9132C115.782 82.7641 115.68 82.6321 115.552 82.5266C115.425 82.4211 115.277 82.3445 115.117 82.3022C114.957 82.2598 114.79 82.2527 114.627 82.2814C114.465 82.31 114.31 82.3737 114.174 82.4681C114.134 82.4681 114.174 82.5558 114.208 82.549C114.462 82.4915 114.727 82.5131 114.968 82.6107C115.209 82.7084 115.415 82.8775 115.557 83.0953C115.793 83.4699 115.989 83.8677 116.144 84.2824C116.198 84.4105 116.434 84.3633 116.4 84.2082C116.4 84.2082 116.4 84.2082 116.4 84.1745C116.548 82.3602 115.334 79.7162 113.399 79.3857Z" fill="#263238"/>
<path d="M134.503 76.1763C134.221 76.1347 133.941 76.0761 133.666 76.0009C133.362 75.9769 133.074 75.8564 132.844 75.6569C132.784 75.5794 132.752 75.4846 132.752 75.3871C132.752 75.2896 132.784 75.1949 132.844 75.1173C132.984 74.9822 133.158 74.8871 133.348 74.8421C133.538 74.797 133.736 74.8036 133.923 74.861C134.317 74.9212 134.675 75.1255 134.928 75.4343C134.982 75.5071 135.014 75.5942 135.02 75.685C135.026 75.7758 135.005 75.8662 134.959 75.9452C134.914 76.0241 134.847 76.0881 134.766 76.1291C134.684 76.1702 134.593 76.1866 134.503 76.1763Z" fill="#263238"/>
<path d="M125.586 76.1488C125.868 76.105 126.148 76.0442 126.423 75.9667C126.727 75.948 127.016 75.8294 127.245 75.6295C127.306 75.5524 127.338 75.4574 127.338 75.3597C127.338 75.2619 127.306 75.167 127.245 75.0899C127.105 74.9541 126.931 74.8587 126.741 74.8136C126.551 74.7685 126.353 74.7754 126.166 74.8336C125.771 74.891 125.41 75.0929 125.155 75.4002C125.1 75.474 125.069 75.562 125.064 75.6535C125.059 75.745 125.08 75.8359 125.126 75.9153C125.172 75.9946 125.24 76.059 125.322 76.1004C125.403 76.1419 125.495 76.1587 125.586 76.1488Z" fill="#263238"/>
<path d="M127.549 79.1904C127.549 79.1904 127.488 79.2376 127.488 79.2714C127.535 80.1144 127.448 81.0857 126.686 81.3892V81.4364C127.623 81.2813 127.731 79.9863 127.549 79.1904Z" fill="#263238"/>
<path d="M126.78 78.3277C125.431 78.2535 125.37 80.9851 126.632 81.0255C127.893 81.066 127.92 78.3884 126.78 78.3277Z" fill="#263238"/>
<path d="M126.24 78.462C125.998 78.6171 125.762 78.8801 125.472 78.9071C125.182 78.9341 124.892 78.6441 124.682 78.3675C124.682 78.3338 124.635 78.3675 124.635 78.3675C124.635 78.8936 124.811 79.4332 125.37 79.5209C125.93 79.6086 126.254 79.1432 126.389 78.6171C126.416 78.5496 126.335 78.4013 126.24 78.462Z" fill="#263238"/>
<path d="M132.661 79.0889C132.661 79.0889 132.722 79.1361 132.722 79.1698C132.675 80.0129 132.763 80.9841 133.518 81.2876V81.3349C132.58 81.1797 132.479 79.8847 132.661 79.0889Z" fill="#263238"/>
<path d="M133.41 78.2258C134.759 78.1584 134.813 80.8833 133.552 80.9237C132.29 80.9642 132.297 78.2865 133.41 78.2258Z" fill="#263238"/>
<path d="M134.004 78.4016C134.226 78.5432 134.442 78.7995 134.678 78.813C134.914 78.8265 135.197 78.5297 135.353 78.2464C135.353 78.2127 135.393 78.2464 135.4 78.2464C135.4 78.7658 135.251 79.3121 134.725 79.42C134.199 79.5279 133.929 79.076 133.801 78.5567C133.848 78.4892 133.923 78.3409 134.004 78.4016Z" fill="#263238"/>
<path d="M127.751 86.1314C127.94 86.3405 128.122 86.6237 128.426 86.6709C128.742 86.6814 129.056 86.6263 129.35 86.5091C129.35 86.5091 129.404 86.5091 129.384 86.5563C129.253 86.7145 129.081 86.8344 128.888 86.9032C128.694 86.9721 128.486 86.9874 128.284 86.9475C128.115 86.8925 127.966 86.7889 127.856 86.6498C127.746 86.5106 127.679 86.342 127.664 86.1651C127.661 86.1538 127.662 86.1418 127.667 86.1313C127.672 86.1209 127.681 86.1128 127.692 86.1086C127.703 86.1044 127.715 86.1044 127.726 86.1086C127.737 86.1128 127.746 86.1209 127.751 86.1314Z" fill="#263238"/>
<path d="M131.299 83.0883C131.299 83.0883 131.468 84.3496 131.461 84.9499C131.461 85.0038 131.319 85.0308 131.117 85.0375C130.607 85.1304 130.08 85.08 129.597 84.8918C129.114 84.7037 128.692 84.3853 128.379 83.9719C128.331 83.9112 128.412 83.8505 128.466 83.8909C129.222 84.4118 130.126 84.6744 131.043 84.6396C131.09 84.4777 130.685 82.4881 130.78 82.4813C131.241 82.5235 131.695 82.6279 132.129 82.7916C131.852 80.1544 131.157 77.5779 130.921 74.9407C130.921 74.922 130.927 74.9038 130.939 74.8891C130.95 74.8744 130.967 74.8642 130.985 74.8602C131.003 74.8563 131.022 74.8588 131.039 74.8673C131.056 74.8758 131.069 74.8898 131.076 74.907C131.911 77.643 132.467 80.4563 132.736 83.3042C132.736 83.6414 131.535 83.1895 131.299 83.0883Z" fill="#263238"/>
<path d="M131.029 84.7561C130.702 85.2482 130.254 85.6477 129.727 85.9162C129.436 86.055 129.107 86.0975 128.79 86.0376C128.115 85.9027 128.041 85.2822 128.115 84.7426C128.163 84.4544 128.247 84.1734 128.365 83.9062C129.14 84.4666 130.073 84.7644 131.029 84.7561Z" fill="#263238"/>
<path d="M129.727 85.9152C129.436 86.054 129.107 86.0965 128.79 86.0366C128.115 85.9017 128.041 85.2811 128.115 84.7416C128.477 84.7268 128.833 84.8347 129.126 85.0477C129.418 85.2608 129.63 85.5664 129.727 85.9152Z" fill="#FF9BBC"/>
<path d="M107.207 105.778C109.453 118.991 119.664 145.369 125.418 147.689C133.565 150.974 159.687 142.408 165.387 138.247C167.653 136.581 157.354 119.948 154.433 120.711C144.384 123.22 133.923 125.263 133.066 124.825C133.066 124.825 122.524 110.344 116.319 101.893C108.536 91.1755 106.195 99.8492 107.207 105.778Z" fill="#DD6A57"/>
<path d="M165.387 138.241C166.675 137.775 175.571 131.321 178.202 128.292C181.039 125.152 183.347 121.571 185.034 117.69C187.671 111.545 188.912 107.046 188.278 105.037C187.543 102.696 187.334 102.339 181.183 112.51C177.702 118.283 174.384 118.931 171.511 118.877C164.433 118.743 157.427 120.311 151.081 123.45C151.081 123.45 160.389 140.008 165.387 138.241Z" fill="#DD6A57"/>
<path d="M193.93 98.6019L176.812 116.813C176.568 117.061 176.259 117.235 175.92 117.315C175.581 117.395 175.226 117.377 174.897 117.264L164.436 112.739C164.307 112.688 164.195 112.604 164.109 112.496C164.023 112.388 163.967 112.259 163.947 112.122C163.926 111.986 163.942 111.846 163.992 111.718C164.043 111.589 164.126 111.476 164.233 111.39L181.345 93.1791C181.591 92.9318 181.901 92.7584 182.241 92.6785C182.581 92.5986 182.936 92.6155 183.267 92.7272L193.735 97.2327C193.867 97.2826 193.983 97.3671 194.072 97.4773C194.16 97.5876 194.217 97.7195 194.237 97.8594C194.257 97.9994 194.239 98.1421 194.185 98.2727C194.131 98.4033 194.043 98.517 193.93 98.6019Z" fill="#37474F"/>
<path d="M192.763 96.8339L182.289 92.3284C181.959 92.2165 181.604 92.2001 181.265 92.2813C180.926 92.3624 180.617 92.5378 180.373 92.787L163.262 110.998C163.154 111.084 163.071 111.197 163.021 111.326C162.971 111.454 162.955 111.594 162.975 111.73C162.996 111.867 163.052 111.996 163.138 112.104C163.223 112.212 163.336 112.296 163.464 112.347L173.932 116.852C174.263 116.965 174.619 116.981 174.96 116.9C175.3 116.819 175.61 116.643 175.854 116.393L192.966 98.1828C193.073 98.0964 193.157 97.9833 193.207 97.8547C193.257 97.7262 193.273 97.5867 193.252 97.4502C193.232 97.3136 193.176 97.1849 193.09 97.0767C193.004 96.9686 192.892 96.8848 192.763 96.8339ZM175.72 115.537C175.498 115.771 175.214 115.939 174.902 116.02C174.589 116.101 174.26 116.093 173.952 115.996L164.584 111.949C164.058 111.726 163.997 111.153 164.449 110.674L180.387 93.7448C181.304 92.7668 181.776 92.9017 182.302 93.131L184.177 93.9404C184.285 93.9809 184.279 94.1292 184.177 94.2574L184.123 94.3113C183.84 94.6149 184.036 94.7025 184.279 94.8037L188.615 96.672C188.728 96.7522 188.867 96.7851 189.003 96.7636C189.139 96.7422 189.262 96.6681 189.344 96.5573L189.391 96.5034C189.44 96.4407 189.507 96.3934 189.582 96.3671C189.657 96.3408 189.738 96.3366 189.816 96.355L191.691 97.1576C192.217 97.3869 192.521 97.6972 191.691 98.5875L175.72 115.537Z" fill="#263238"/>
<path d="M187.368 95.6615L186.181 95.1557C186.172 95.151 186.165 95.1442 186.16 95.1359C186.155 95.1276 186.153 95.1181 186.153 95.1085C186.153 95.0988 186.155 95.0894 186.16 95.0811C186.165 95.0728 186.172 95.0659 186.181 95.0612C186.198 95.0445 186.22 95.0326 186.244 95.0267C186.267 95.0208 186.292 95.0211 186.315 95.0275L187.496 95.5401C187.504 95.5448 187.511 95.5516 187.516 95.5599C187.521 95.5682 187.524 95.5777 187.524 95.5873C187.524 95.597 187.521 95.6064 187.516 95.6147C187.511 95.623 187.504 95.6299 187.496 95.6346C187.48 95.6516 187.459 95.6633 187.436 95.6681C187.413 95.673 187.389 95.6706 187.368 95.6615Z" fill="white"/>
<path d="M191.678 98.6015L175.74 115.537C175.518 115.772 175.235 115.94 174.922 116.021C174.61 116.102 174.281 116.093 173.973 115.996L164.604 111.949C164.078 111.727 164.018 111.153 164.469 110.675L180.407 93.7454C181.324 92.7674 181.797 92.9023 182.323 93.1316L184.198 93.941C184.306 93.9814 184.299 94.1298 184.198 94.258L184.144 94.3119C183.86 94.6154 184.056 94.7031 184.299 94.8043L188.636 96.6726C188.748 96.7527 188.887 96.7857 189.023 96.7642C189.16 96.7428 189.282 96.6687 189.364 96.5579L189.411 96.5039C189.461 96.4413 189.527 96.394 189.602 96.3677C189.677 96.3414 189.759 96.3372 189.836 96.3556L191.711 97.1582C192.217 97.401 192.521 97.6843 191.678 98.6015Z" fill="white"/>
<path d="M191.677 98.6008L190.49 99.8688L179.22 95.0193L180.407 93.7581C181.324 92.7801 181.796 92.915 182.323 93.1443L184.198 93.9537C184.306 93.9941 184.299 94.1425 184.198 94.2707L184.144 94.3246C183.86 94.6281 184.056 94.7158 184.299 94.817L188.636 96.6853C188.748 96.7654 188.887 96.7984 189.023 96.7769C189.16 96.7555 189.282 96.6814 189.364 96.5706L189.418 96.5166C189.466 96.4539 189.531 96.4064 189.605 96.38C189.679 96.3537 189.76 96.3496 189.836 96.3683L191.711 97.1709C192.217 97.4002 192.521 97.6835 191.677 98.6008Z" fill="#FFC107"/>
<path d="M180.94 94.8991L180.859 94.4877L181.439 94.373L181.446 94.4405L180.967 94.5349L181.034 94.8722L180.94 94.8991Z" fill="white"/>
<path d="M190.612 98.5337C190.593 98.5438 190.572 98.549 190.551 98.549C190.53 98.549 190.509 98.5438 190.49 98.5337C190.483 98.5287 190.478 98.5222 190.474 98.5145C190.47 98.5069 190.468 98.4985 190.468 98.4899C190.468 98.4813 190.47 98.4729 190.474 98.4653C190.478 98.4576 190.483 98.4511 190.49 98.4461C190.509 98.4366 190.53 98.4316 190.551 98.4316C190.572 98.4316 190.593 98.4366 190.612 98.4461C190.619 98.4511 190.624 98.4576 190.628 98.4653C190.632 98.4729 190.634 98.4813 190.634 98.4899C190.634 98.4985 190.632 98.5069 190.628 98.5145C190.624 98.5222 190.619 98.5287 190.612 98.5337Z" fill="white"/>
<path d="M190.423 98.73C190.405 98.7394 190.386 98.7444 190.366 98.7444C190.346 98.7444 190.326 98.7394 190.308 98.73C190.301 98.725 190.296 98.7184 190.292 98.7108C190.288 98.7032 190.286 98.6947 190.286 98.6862C190.286 98.6776 190.288 98.6691 190.292 98.6615C190.296 98.6539 190.301 98.6473 190.308 98.6423C190.326 98.6329 190.346 98.6279 190.366 98.6279C190.386 98.6279 190.405 98.6329 190.423 98.6423C190.432 98.6458 190.439 98.6519 190.445 98.6597C190.45 98.6675 190.453 98.6767 190.453 98.6862C190.453 98.6956 190.45 98.7048 190.445 98.7126C190.439 98.7204 190.432 98.7265 190.423 98.73Z" fill="white"/>
<path d="M190.241 98.9255C190.223 98.935 190.204 98.9399 190.184 98.9399C190.164 98.9399 190.144 98.935 190.126 98.9255C190.119 98.9213 190.114 98.9154 190.11 98.9083C190.105 98.9012 190.103 98.8932 190.103 98.8851C190.103 98.8769 190.105 98.8689 190.11 98.8618C190.114 98.8547 190.119 98.8488 190.126 98.8446C190.143 98.8338 190.163 98.8281 190.184 98.8281C190.204 98.8281 190.224 98.8338 190.241 98.8446C190.247 98.8497 190.251 98.8559 190.254 98.8629C190.258 98.8699 190.259 98.8774 190.259 98.8851C190.259 98.8927 190.258 98.9003 190.254 98.9073C190.251 98.9143 190.247 98.9205 190.241 98.9255Z" fill="white"/>
<path d="M183.516 94.19H183.462C183.458 94.1591 183.444 94.1301 183.424 94.1063C183.404 94.0825 183.377 94.0648 183.348 94.0551C183.274 94.0277 183.192 94.0277 183.118 94.0551V94.0146H183.24H183.327H183.368L183.415 94.0551C183.417 94.0685 183.417 94.0822 183.415 94.0956C183.42 94.1087 183.42 94.123 183.415 94.1361L183.516 94.19Z" fill="white"/>
<path d="M183.125 94.1287V94.0882C183.178 94.0748 183.234 94.0748 183.287 94.0882C183.318 94.0951 183.347 94.1109 183.37 94.1336C183.393 94.1563 183.408 94.185 183.415 94.2163H183.361C183.357 94.1967 183.348 94.1785 183.335 94.1632C183.322 94.1479 183.306 94.136 183.287 94.1287C183.234 94.1116 183.178 94.1116 183.125 94.1287Z" fill="white"/>
<path d="M183.321 94.2372H183.267C183.264 94.2267 183.259 94.2169 183.252 94.2087C183.245 94.2004 183.236 94.194 183.226 94.19C183.2 94.1828 183.172 94.1828 183.145 94.19V94.1563C183.22 94.1428 183.321 94.1765 183.321 94.2372Z" fill="white"/>
<path d="M183.206 94.2581C183.191 94.2638 183.174 94.2638 183.159 94.2581C183.159 94.2581 183.159 94.2581 183.159 94.2241C183.166 94.22 183.174 94.2178 183.183 94.2178C183.191 94.2178 183.199 94.22 183.206 94.2241C183.206 94.2241 183.22 94.2445 183.206 94.2581Z" fill="white"/>
<path d="M181.702 93.4762C181.722 93.4637 181.746 93.457 181.769 93.457C181.793 93.457 181.817 93.4637 181.837 93.4762C181.844 93.4819 181.85 93.4891 181.854 93.4973C181.857 93.5054 181.859 93.5144 181.859 93.5234C181.859 93.5325 181.857 93.5414 181.854 93.5496C181.85 93.5578 181.844 93.5649 181.837 93.5706C181.816 93.5819 181.793 93.5877 181.769 93.5877C181.746 93.5877 181.723 93.5819 181.702 93.5706C181.695 93.5649 181.689 93.5578 181.685 93.5496C181.681 93.5414 181.679 93.5325 181.679 93.5234C181.679 93.5144 181.681 93.5054 181.685 93.4973C181.689 93.4891 181.695 93.4819 181.702 93.4762Z" fill="white"/>
<path d="M181.972 93.5778C181.992 93.5652 182.015 93.5586 182.039 93.5586C182.063 93.5586 182.086 93.5652 182.107 93.5778C182.115 93.5824 182.122 93.5893 182.127 93.5976C182.132 93.6059 182.135 93.6153 182.135 93.625C182.135 93.6346 182.132 93.6441 182.127 93.6524C182.122 93.6607 182.115 93.6675 182.107 93.6722C182.09 93.689 182.07 93.701 182.047 93.7069C182.025 93.7129 182.001 93.7125 181.979 93.7059C181.911 93.6385 181.904 93.6385 181.972 93.5778Z" fill="white"/>
<path d="M182.174 93.6793C182.194 93.6668 182.218 93.6602 182.242 93.6602C182.265 93.6602 182.289 93.6668 182.309 93.6793C182.318 93.684 182.325 93.6908 182.329 93.6992C182.334 93.7075 182.337 93.7169 182.337 93.7266C182.337 93.7362 182.334 93.7457 182.329 93.754C182.325 93.7623 182.318 93.7691 182.309 93.7738C182.289 93.7871 182.266 93.7942 182.242 93.7942C182.218 93.7942 182.194 93.7871 182.174 93.7738C182.147 93.7603 182.14 93.7198 182.174 93.6793Z" fill="white"/>
<path d="M182.41 93.779C182.431 93.7664 182.454 93.7598 182.478 93.7598C182.502 93.7598 182.525 93.7664 182.545 93.779C182.554 93.7836 182.561 93.7905 182.566 93.7988C182.57 93.8071 182.573 93.8165 182.573 93.8262C182.573 93.8358 182.57 93.8453 182.566 93.8536C182.561 93.8619 182.554 93.8687 182.545 93.8734C182.525 93.8859 182.502 93.8926 182.478 93.8926C182.454 93.8926 182.431 93.8859 182.41 93.8734C182.383 93.8599 182.377 93.8194 182.41 93.779Z" fill="white"/>
<path d="M182.646 93.8805C182.667 93.868 182.69 93.8613 182.714 93.8613C182.738 93.8613 182.761 93.868 182.781 93.8805C182.79 93.8852 182.797 93.892 182.802 93.9003C182.806 93.9086 182.809 93.9181 182.809 93.9277C182.809 93.9374 182.806 93.9468 182.802 93.9551C182.797 93.9634 182.79 93.9703 182.781 93.9749C182.761 93.9875 182.738 93.9941 182.714 93.9941C182.69 93.9941 182.667 93.9875 182.646 93.9749C182.646 93.9614 182.646 93.921 182.646 93.8805Z" fill="white"/>
<path d="M191.3 97.96L190.396 97.5755L190.841 97.0967L191.745 97.4879L191.3 97.96Z" fill="white"/>
<path d="M191.286 97.5163L190.888 97.3477L190.74 97.5028L191.138 97.6714L191.286 97.5163Z" fill="white"/>
<path d="M191.367 97.7508L191.313 97.7239L191.435 97.5957L191.489 97.6227L191.367 97.7508Z" fill="white"/>
<path d="M166.344 111.262L166.257 111.221L165.946 111.552L165.785 111.484L165.946 111.316L165.663 111.194L165.501 111.363L165.339 111.295L165.656 110.965L165.569 110.924L166.27 110.756L166.344 111.262Z" fill="#EBEBEB"/>
<path d="M175.173 114.741L174.242 114.336L174.344 114.222L175.281 114.626L175.173 114.741Z" fill="#EBEBEB"/>
<path d="M174.91 115.017L173.979 114.613L174.087 114.505L175.018 114.903L174.91 115.017Z" fill="#EBEBEB"/>
<path d="M174.647 115.296L173.716 114.898L173.824 114.783L174.755 115.181L174.647 115.296Z" fill="#EBEBEB"/>
<path d="M170.573 113.008L170.088 113.137L170.041 112.779L170.128 112.766L170.162 113.056L170.56 112.954L170.573 113.008Z" fill="#EBEBEB"/>
<path d="M170.121 113.743C169.991 113.743 169.862 113.715 169.744 113.662C169.642 113.622 169.552 113.558 169.48 113.476C169.408 113.394 169.358 113.296 169.332 113.189C169.308 113.069 169.315 112.944 169.351 112.826C169.388 112.708 169.453 112.601 169.541 112.515C169.692 112.361 169.885 112.254 170.096 112.207C170.307 112.16 170.526 112.176 170.728 112.252C170.83 112.293 170.919 112.358 170.99 112.441C171.06 112.525 171.11 112.624 171.133 112.731C171.157 112.845 171.151 112.963 171.116 113.075C171.08 113.186 171.017 113.286 170.931 113.365C170.828 113.479 170.704 113.571 170.565 113.636C170.426 113.701 170.275 113.737 170.121 113.743ZM170.385 112.879C170.252 112.876 170.124 112.924 170.027 113.014C170.095 113.048 170.171 113.058 170.245 113.045C170.319 113.032 170.387 112.995 170.438 112.94C170.455 112.926 170.467 112.907 170.472 112.886L170.385 112.879Z" fill="#EBEBEB"/>
<path d="M184.575 96.2134C184.646 96.1445 184.735 96.0966 184.831 96.0752C184.928 96.0537 185.028 96.0596 185.122 96.092C185.182 96.1185 185.23 96.1666 185.257 96.2269C185.259 96.2336 185.259 96.2406 185.258 96.2475C185.257 96.2544 185.255 96.261 185.251 96.2668C185.247 96.2726 185.242 96.2775 185.236 96.2811C185.23 96.2847 185.223 96.2869 185.216 96.2876C185.206 96.2971 185.193 96.3024 185.179 96.3024C185.165 96.3024 185.152 96.2971 185.142 96.2876C185.134 96.266 185.121 96.2465 185.105 96.2302C185.089 96.2139 185.069 96.2013 185.047 96.1932C184.982 96.1729 184.911 96.1729 184.845 96.1932C184.78 96.2049 184.721 96.2382 184.677 96.2876C184.654 96.304 184.636 96.3264 184.626 96.3523C184.616 96.3782 184.613 96.4065 184.618 96.4339C184.622 96.4614 184.635 96.4869 184.654 96.5075C184.673 96.5282 184.697 96.5431 184.724 96.5506C184.779 96.5646 184.837 96.5646 184.892 96.5506H184.946C184.946 96.5506 184.946 96.5978 184.886 96.6046C184.806 96.6248 184.722 96.6248 184.643 96.6046C184.605 96.5906 184.572 96.567 184.546 96.5361C184.52 96.5052 184.503 96.4681 184.496 96.4284C184.489 96.3888 184.493 96.3481 184.507 96.3103C184.521 96.2726 184.544 96.2392 184.575 96.2134Z" fill="white"/>
<path d="M185.041 96.7145L185.432 96.303C185.444 96.2952 185.458 96.291 185.472 96.291C185.487 96.291 185.501 96.2952 185.513 96.303C185.513 96.303 185.547 96.3367 185.513 96.3637L185.358 96.5323L185.574 96.62L185.729 96.4514C185.741 96.4436 185.755 96.4394 185.769 96.4394C185.784 96.4394 185.798 96.4436 185.81 96.4514V96.5054L185.418 96.9168C185.407 96.9256 185.393 96.9303 185.378 96.9303C185.363 96.9303 185.349 96.9256 185.337 96.9168C185.337 96.9168 185.337 96.8831 185.337 96.8561L185.493 96.6942L185.277 96.5998L185.122 96.7684C185.109 96.7749 185.095 96.7783 185.081 96.7783C185.067 96.7783 185.053 96.7749 185.041 96.7684C185.037 96.7653 185.033 96.7612 185.031 96.7565C185.028 96.7518 185.027 96.7467 185.027 96.7414C185.027 96.7362 185.028 96.731 185.031 96.7263C185.033 96.7217 185.037 96.7176 185.041 96.7145Z" fill="white"/>
<path d="M185.945 97.0101L185.742 96.9291L185.621 96.9966C185.621 96.9966 185.567 96.9966 185.553 96.9966C185.553 96.9966 185.553 96.9494 185.553 96.9359L186.12 96.5986C186.12 96.5986 186.174 96.5986 186.187 96.5986V96.6391L185.985 97.1315C185.973 97.1374 185.961 97.1405 185.948 97.1405C185.935 97.1405 185.922 97.1374 185.911 97.1315C185.906 97.1246 185.903 97.1163 185.903 97.1079C185.903 97.0994 185.906 97.0911 185.911 97.0843L185.945 97.0101ZM185.985 96.9224L186.059 96.7403L185.85 96.8617L185.985 96.9224Z" fill="white"/>
<path d="M186.734 96.9149L186.606 96.8609L186.255 97.2319C186.242 97.2379 186.228 97.241 186.214 97.241C186.2 97.241 186.187 97.2379 186.174 97.2319C186.168 97.2291 186.163 97.2248 186.16 97.2195C186.157 97.2141 186.155 97.2079 186.155 97.2015C186.155 97.1952 186.157 97.189 186.16 97.1836C186.163 97.1783 186.168 97.174 186.174 97.1712L186.525 96.8002L186.396 96.7463C186.392 96.7425 186.389 96.7378 186.386 96.7326C186.384 96.7273 186.383 96.7217 186.383 96.7159C186.383 96.7102 186.384 96.7045 186.386 96.6993C186.389 96.694 186.392 96.6894 186.396 96.6856C186.41 96.6779 186.425 96.6738 186.44 96.6738C186.456 96.6738 186.471 96.6779 186.484 96.6856L186.835 96.8407C186.835 96.8407 186.835 96.8744 186.835 96.8947C186.824 96.9105 186.807 96.9215 186.788 96.9252C186.769 96.929 186.75 96.9253 186.734 96.9149Z" fill="white"/>
<path d="M173.797 102.62L181.857 106.087L183.867 103.949L175.807 100.482L173.797 102.62Z" fill="#455A64"/>
<path d="M182.606 106.406L181.857 106.089L182.471 105.428L182.606 106.406Z" fill="#455A64"/>
<path d="M183.017 104.159L175.881 101.097L175.922 101.057L183.058 104.119L183.017 104.159Z" fill="white"/>
<path d="M181.331 103.748L175.679 101.313L175.713 101.272L181.372 103.707L181.331 103.748Z" fill="white"/>
<path d="M181.81 104.564L175.268 101.751L175.301 101.711L181.85 104.523L181.81 104.564Z" fill="white"/>
<path d="M182.195 105.036L175.059 101.967L175.099 101.927L182.235 104.996L182.195 105.036Z" fill="white"/>
<path d="M181.985 105.259L174.849 102.19L174.89 102.149L182.026 105.218L181.985 105.259Z" fill="white"/>
<path d="M179.807 104.625L174.647 102.406L174.681 102.365L179.84 104.584L179.807 104.625Z" fill="white"/>
<path d="M169.056 107.66L177.116 111.126L179.119 108.988L171.059 105.528L169.056 107.66Z" fill="#455A64"/>
<path d="M177.858 111.451L177.116 111.127L177.729 110.473L177.858 111.451Z" fill="#455A64"/>
<path d="M178.276 109.204L171.14 106.135L171.18 106.095L178.31 109.164L178.276 109.204Z" fill="white"/>
<path d="M176.59 108.786L170.931 106.351L170.971 106.311L176.623 108.745L176.59 108.786Z" fill="white"/>
<path d="M177.068 109.609L170.519 106.789L170.56 106.749L177.109 109.568L177.068 109.609Z" fill="white"/>
<path d="M177.453 110.081L170.317 107.012L170.351 106.972L177.487 110.041L177.453 110.081Z" fill="white"/>
<path d="M177.244 110.297L170.108 107.228L170.148 107.188L177.284 110.256L177.244 110.297Z" fill="white"/>
<path d="M175.059 109.67L169.899 107.451L169.939 107.41L175.099 109.629L175.059 109.67Z" fill="white"/>
<path d="M186.605 102.155L178.546 98.6885L180.245 96.8877L188.298 100.354L186.605 102.155Z" fill="#FFC107"/>
<path d="M177.804 98.3656L178.546 98.6894L179.166 98.0352L177.804 98.3656Z" fill="#FFC107"/>
<path d="M186.302 100.019L180.36 97.4623L180.4 97.4219L186.342 99.9781L186.302 100.019Z" fill="white"/>
<path d="M187.293 100.753L180.158 97.684L180.191 97.6436L187.327 100.712L187.293 100.753Z" fill="white"/>
<path d="M187.084 100.969L179.948 97.8999L179.989 97.8594L187.125 100.928L187.084 100.969Z" fill="white"/>
<path d="M186.315 100.95L179.746 98.1235L179.78 98.083L186.349 100.909L186.315 100.95Z" fill="white"/>
<path d="M186.673 101.408L179.537 98.3393L179.577 98.2988L186.713 101.368L186.673 101.408Z" fill="white"/>
<path d="M184.602 100.827L179.328 98.561L179.368 98.5205L184.643 100.787L184.602 100.827Z" fill="white"/>
<path d="M185.074 103.782L177.015 100.315L178.276 98.9795L186.329 102.446L185.074 103.782Z" fill="#FFC107"/>
<path d="M176.273 99.9974L177.015 100.314L177.635 99.6602L176.273 99.9974Z" fill="#FFC107"/>
<path d="M185.513 102.614L178.391 99.5589L178.431 99.5117L185.553 102.574L185.513 102.614Z" fill="white"/>
<path d="M184.049 102.298L178.188 99.7758L178.222 99.7354L184.09 102.258L184.049 102.298Z" fill="white"/>
<path d="M184.434 102.77L177.979 99.9916L178.02 99.9512L184.467 102.73L184.434 102.77Z" fill="white"/>
<path d="M182.748 102.352L177.777 100.214L177.81 100.174L182.788 102.312L182.748 102.352Z" fill="white"/>
<path d="M180.34 108.813L172.28 105.347L174.054 103.465L182.114 106.932L180.34 108.813Z" fill="#DBDBDB"/>
<path d="M171.531 105.023L172.28 105.347L172.9 104.692L171.531 105.023Z" fill="#DBDBDB"/>
<path d="M180.299 107.586L173.561 104.693L173.595 104.652L180.34 107.546L180.299 107.586Z" fill="white"/>
<path d="M179.544 107.572L173.352 104.908L173.393 104.867L179.584 107.531L179.544 107.572Z" fill="white"/>
<path d="M180.319 106.979L173.973 104.254L174.013 104.214L180.36 106.939L180.319 106.979Z" fill="white"/>
<path d="M181.223 107.058L174.175 104.03L174.216 103.989L181.264 107.018L181.223 107.058Z" fill="white"/>
<path d="M179.557 107.882L173.15 105.13L173.183 105.09L179.598 107.842L179.557 107.882Z" fill="white"/>
<path d="M175.861 113.568L167.801 110.101L169.278 108.536L177.338 112.003L175.861 113.568Z" fill="#FFC107"/>
<path d="M167.053 109.785L167.801 110.102L168.415 109.447L167.053 109.785Z" fill="#FFC107"/>
<path d="M176.542 112.164L169.413 109.095L169.447 109.055L176.583 112.124L176.542 112.164Z" fill="white"/>
<path d="M176.34 112.389L169.204 109.32L169.245 109.279L176.374 112.348L176.34 112.389Z" fill="white"/>
<path d="M175.564 112.361L168.995 109.535L169.036 109.494L175.605 112.32L175.564 112.361Z" fill="white"/>
<path d="M175.929 112.827L168.793 109.758L168.826 109.718L175.962 112.787L175.929 112.827Z" fill="white"/>
<path d="M173.858 112.239L168.584 109.973L168.624 109.933L173.899 112.199L173.858 112.239Z" fill="white"/>
<path d="M172.941 118.829C169.966 118.876 179.625 112.847 179.773 109.467C179.921 106.088 176.623 107.147 174.027 109.056C165.009 115.686 158.204 115.362 153.631 121.696C149.058 128.029 172.941 118.829 172.941 118.829Z" fill="#DD6A57"/>
<path d="M166.978 113.325C164.793 114.411 162.628 115.517 160.517 116.698C159.46 117.281 158.442 117.932 157.468 118.647C156.488 119.346 155.545 120.096 154.642 120.893L154.582 120.94H154.514C152.619 121.419 150.73 121.918 148.828 122.343C146.926 122.768 145.024 123.206 143.116 123.618C141.207 124.029 139.285 124.366 137.356 124.67C136.389 124.832 135.414 124.94 134.435 124.994C134.186 125.01 133.936 125.01 133.687 124.994C133.431 124.966 133.193 124.852 133.012 124.67C132.664 124.32 132.371 123.92 132.142 123.483C132.405 123.891 132.723 124.261 133.086 124.582C133.444 124.933 133.95 124.832 134.435 124.798C135.393 124.697 136.351 124.494 137.302 124.319C139.211 123.948 141.106 123.489 143.008 123.058C144.91 122.626 146.798 122.181 148.694 121.709L154.373 120.36L154.244 120.427C155.176 119.626 156.151 118.876 157.165 118.181C158.182 117.497 159.24 116.878 160.335 116.327C161.414 115.76 162.511 115.232 163.626 114.742C164.726 114.256 165.845 113.77 166.978 113.325Z" fill="#263238"/>
<path d="M110.296 125.912L124.096 112.267C121.527 108.003 118.705 103.897 115.645 99.9716C110.471 93.3079 106.344 94.4073 106.728 105.772C106.955 112.621 108.157 119.402 110.296 125.912Z" fill="#FFC107"/>
<path d="M112.38 99.5387L113.945 100.065L112.994 101.414V103.059L111.422 102.567L109.804 103.08V101.434L108.846 100.085L110.411 99.5589L111.395 98.21L112.38 99.5387ZM120.062 107.801L121.02 109.15V110.796L122.598 110.296L122.915 110.404C122.423 109.622 121.782 108.617 121.013 107.477L120.062 107.801ZM112.063 113.777L111.078 115.126L109.514 115.652L110.471 117.001V118.653L112.05 118.161L113.621 118.653V117.001L114.579 115.652L113.014 115.126L112.063 113.777Z" fill="white"/>
<path d="M122.106 110.249C120.966 111.146 119.954 112.212 118.895 113.197C117.837 114.181 116.872 115.085 115.901 116.056C113.864 118.071 111.876 120.13 109.938 122.234C109.938 122.275 109.938 122.336 109.999 122.302C112.077 120.382 114.129 118.43 116.157 116.447C117.162 115.463 118.181 114.458 119.125 113.446C120.069 112.434 121.236 111.423 122.167 110.317C122.194 110.276 122.146 110.215 122.106 110.249Z" fill="#263238"/>
<path d="M123.293 110.439C122.929 109.832 122.544 109.238 122.153 108.652L121.91 108.287C121.594 107.46 121.237 106.65 120.838 105.859C120.838 105.859 120.777 105.859 120.791 105.859C121.013 106.5 121.283 107.127 121.56 107.748C120.953 106.851 120.325 105.96 119.637 105.131C119.637 105.131 119.577 105.131 119.59 105.165C120.298 106.392 121.088 107.572 121.836 108.773C122.2 109.36 124.048 112.179 124.028 112.213C123.884 112.355 123.751 112.509 123.63 112.671C123.576 112.779 123.63 112.739 123.671 112.712L124.345 112.186C124.345 112.186 123.583 110.958 123.293 110.439Z" fill="#263238"/>
<path d="M112.016 124.212C111.49 124.819 110.93 125.405 110.39 125.999L110.256 126.147L110.175 125.952C109.689 124.714 109.27 123.451 108.92 122.168C108.569 120.886 108.246 119.605 107.983 118.296C107.72 116.988 107.49 115.686 107.349 114.364C107.207 113.042 107.079 111.727 107.032 110.398L107.706 114.31C107.949 115.612 108.185 116.907 108.461 118.202C108.738 119.497 109.028 120.779 109.358 122.053C109.689 123.328 110.033 124.616 110.424 125.864L110.215 125.817C110.809 125.284 111.402 124.731 112.016 124.212Z" fill="#263238"/>
<path d="M106.202 112.894C106.54 113.424 106.841 113.976 107.106 114.546C107.241 114.829 107.376 115.106 107.49 115.396C107.605 115.686 107.733 115.976 107.827 116.279C107.411 115.801 107.066 115.265 106.802 114.688C106.526 114.118 106.324 113.515 106.202 112.894Z" fill="#263238"/>
<path d="M252.258 224.172C252.556 216.609 252.453 209.035 251.948 201.483C250.83 185.905 248.453 170.443 244.839 155.248C242.856 146.689 240.415 138.278 237.872 129.874C237.791 129.625 237.386 129.692 237.46 129.955C245.325 159.578 251.779 190.145 251.334 220.935C251.213 229.548 250.215 238.012 249.392 246.564C249.392 246.794 249.749 246.881 249.803 246.645C251.442 239.321 251.955 231.659 252.258 224.172Z" fill="#FFC107"/>
<path d="M237.46 129.956C237.46 129.956 225.543 160.206 228.213 167.315C230.884 174.424 236.381 175.921 236.381 175.921C236.381 175.921 229.09 186.328 234.183 196.095C239.275 205.861 250.599 205.395 251.348 216.463C251.348 216.484 251.982 170.202 237.46 129.956Z" fill="#FFC107"/>
<path d="M250.053 197.368C250.073 197.319 250.073 197.263 250.053 197.213C248.38 176.649 244.731 156.145 238.499 136.369C238.499 136.309 238.385 136.329 238.398 136.369C240.759 145.218 242.845 154.112 244.657 163.051C243.057 161.536 241.102 160.446 238.971 159.881C238.931 159.881 238.911 159.929 238.971 159.942C241.177 160.893 243.288 161.999 244.846 163.867C245.197 165.621 245.534 167.375 245.858 169.128C243.16 166.154 239.504 164.677 235.808 163.274C235.797 163.274 235.787 163.278 235.779 163.286C235.772 163.293 235.768 163.304 235.768 163.314C235.768 163.325 235.772 163.335 235.779 163.343C235.787 163.351 235.797 163.355 235.808 163.355C239.653 164.92 243.49 166.943 246.094 170.255C246.993 175.277 247.791 180.316 248.488 185.37C246.548 183.348 244.057 181.939 241.325 181.316C241.238 181.316 241.19 181.417 241.278 181.444C244.071 182.246 246.571 183.842 248.475 186.037L248.522 186.071C248.758 187.852 248.987 189.625 249.196 191.413C247.706 190.151 246.023 189.135 244.212 188.405C244.165 188.405 244.138 188.459 244.212 188.479C246.056 189.28 247.746 190.398 249.203 191.784C249.225 191.79 249.248 191.79 249.27 191.784C249.466 193.477 249.662 195.156 249.837 196.869C247.151 193.623 243.664 191.135 239.72 189.652C239.646 189.619 239.605 189.74 239.679 189.774C243.57 191.507 246.982 194.16 249.621 197.503C249.647 197.543 249.686 197.573 249.732 197.588C249.777 197.602 249.826 197.601 249.871 197.584C250.127 200.188 250.352 202.793 250.545 205.401C250.545 205.442 250.606 205.442 250.599 205.401C250.455 202.721 250.273 200.044 250.053 197.368Z" fill="#263238"/>
<path d="M240.482 156.9C238.325 155.555 235.859 154.786 233.319 154.668C233.258 154.668 233.258 154.749 233.319 154.756C235.771 155.212 238.152 155.99 240.401 157.069C240.423 157.076 240.446 157.075 240.467 157.066C240.488 157.057 240.505 157.041 240.515 157.02C240.525 156.999 240.527 156.976 240.521 156.954C240.515 156.932 240.501 156.913 240.482 156.9Z" fill="#263238"/>
<path d="M241.925 188.919C240.259 187.971 238.428 187.348 236.53 187.084C236.469 187.084 236.462 187.172 236.53 187.185C238.379 187.556 240.168 188.183 241.844 189.047C241.932 189.087 242 188.966 241.925 188.919Z" fill="#263238"/>
<path d="M283.587 167.827C278.548 171.312 273.921 175.358 269.794 179.886C265.537 184.676 262.25 190.247 260.116 196.289C255.59 208.887 253.156 222.14 252.913 235.523C252.758 242.935 253.471 250.339 255.037 257.585C255.048 257.64 255.08 257.688 255.126 257.719C255.172 257.75 255.229 257.761 255.283 257.75C255.338 257.74 255.386 257.708 255.417 257.661C255.448 257.615 255.459 257.559 255.449 257.504C253.507 244.716 253.58 231.703 255.664 218.938C257.688 206.427 260.925 192.816 268.884 182.645C273.214 177.107 278.61 172.75 283.952 168.252C284.235 167.995 283.871 167.604 283.587 167.827Z" fill="#FFC107"/>
<path d="M254.666 226.506C257.535 221.866 260.908 217.557 264.723 213.657C270.685 207.695 275.703 203.459 276.479 199.493C277.254 195.527 270.503 192.647 270.503 192.647C270.503 192.647 278.758 194.124 281.011 190.664C283.264 187.204 284.383 167.152 284.383 167.152C284.383 167.152 269.376 177.863 262.389 192.883C255.401 207.904 254.666 226.506 254.666 226.506Z" fill="#FFC107"/>
<path d="M279.17 172.305C272.85 178.504 266.496 185.12 262.78 193.261C261.511 196.078 260.403 198.965 259.462 201.908C259.266 202.501 259.07 203.088 258.895 203.688C258.874 203.715 258.862 203.748 258.861 203.783C257.095 209.874 255.672 216.06 254.599 222.31C254.599 222.351 254.653 222.371 254.659 222.31C255.334 219.181 256.008 216.024 256.818 212.868C256.847 212.874 256.876 212.874 256.905 212.868C258.158 212.332 259.487 211.995 260.844 211.87C260.932 211.87 260.925 211.701 260.844 211.708C259.519 211.771 258.208 212.009 256.946 212.416C257.674 209.576 258.463 206.744 259.354 203.958C262.271 203.25 265.256 202.858 268.257 202.791C268.257 202.791 268.29 202.744 268.257 202.744C265.314 202.603 262.366 202.853 259.489 203.486C259.644 203.007 259.799 202.528 259.961 202.056C261.91 201.587 263.888 201.251 265.883 201.051C265.923 201.051 265.916 200.984 265.883 200.984C263.93 201.023 261.987 201.26 260.082 201.692C260.898 199.277 261.782 196.89 262.78 194.569C263.593 192.672 264.54 190.835 265.613 189.073C267.193 188.68 268.797 188.394 270.415 188.216C270.462 188.216 270.455 188.135 270.415 188.135C268.903 188.019 267.383 188.17 265.923 188.58C266.712 187.305 267.542 186.051 268.425 184.844C271.798 184.102 275.17 183.407 278.644 184.054C278.704 184.054 278.724 183.967 278.644 183.947C275.366 183.09 272.115 183.582 268.85 184.23C269.208 183.758 269.572 183.292 269.943 182.827C271.98 182.197 274.097 181.863 276.229 181.835C276.238 181.835 276.246 181.832 276.253 181.826C276.259 181.819 276.263 181.811 276.263 181.802C276.263 181.793 276.259 181.784 276.253 181.778C276.246 181.772 276.238 181.768 276.229 181.768C274.258 181.585 272.27 181.761 270.361 182.287C273.147 178.827 276.222 175.583 279.257 172.373C279.426 172.244 279.318 172.157 279.17 172.305Z" fill="#263238"/>
<path d="M279.001 185.97C278.012 185.829 277.01 185.795 276.013 185.869C275.892 185.869 275.905 186.078 276.013 186.085C276.998 186.085 277.989 186.038 278.974 186.085C278.988 186.085 279.001 186.08 279.011 186.072C279.022 186.063 279.029 186.051 279.032 186.038C279.035 186.025 279.034 186.011 279.028 185.999C279.023 185.987 279.013 185.977 279.001 185.97Z" fill="#263238"/>
<path d="M268.196 205.429C266.612 205.465 265.046 205.778 263.569 206.353C263.535 206.353 263.569 206.427 263.569 206.42C265.093 206.056 266.638 205.908 268.182 205.651C268.208 205.647 268.231 205.634 268.248 205.615C268.265 205.595 268.275 205.571 268.277 205.545C268.279 205.52 268.271 205.494 268.257 205.473C268.242 205.452 268.221 205.436 268.196 205.429Z" fill="#263238"/>
<path d="M264.932 198.704C264.273 198.699 263.616 198.758 262.969 198.88C262.901 198.88 262.908 199.001 262.969 199.001C263.627 199.034 264.286 199.002 264.938 198.907C264.965 198.906 264.991 198.894 265.009 198.875C265.027 198.855 265.037 198.829 265.036 198.802C265.035 198.775 265.024 198.75 265.004 198.732C264.985 198.713 264.958 198.704 264.932 198.704Z" fill="#263238"/>
<path d="M210.67 189.086C215.553 190.741 220.233 192.945 224.618 195.655C229.169 198.551 233.115 202.3 236.24 206.696C242.815 215.845 247.848 226.009 251.139 236.785C252.974 242.747 254.106 248.904 254.511 255.13C254.515 255.177 254.501 255.223 254.471 255.259C254.442 255.295 254.399 255.318 254.352 255.322C254.306 255.327 254.26 255.313 254.224 255.283C254.187 255.253 254.165 255.21 254.16 255.164C252.779 244.364 249.714 233.847 245.075 223.997C240.522 214.345 234.776 204.073 225.988 197.692C221.206 194.212 215.823 191.939 210.475 189.531C210.192 189.41 210.394 188.992 210.67 189.086Z" fill="#FFC107"/>
<path d="M247.638 229.878C244.245 226.779 240.52 224.064 236.53 221.784C230.331 218.338 225.286 216.072 223.748 213.063C222.211 210.055 226.999 206.143 226.999 206.143C226.999 206.143 220.666 209.246 218.042 206.966C215.419 204.687 209.895 188.735 209.895 188.735C209.895 188.735 224.517 193.936 233.65 204.471C242.782 215.006 247.638 229.878 247.638 229.878Z" fill="#FFC107"/>
<path d="M235.498 215.215C234.063 215.117 232.624 215.293 231.255 215.734C231.215 215.734 231.222 215.802 231.255 215.795C232.654 215.56 234.067 215.416 235.484 215.363C235.504 215.365 235.523 215.359 235.539 215.346C235.554 215.334 235.563 215.315 235.565 215.296C235.567 215.276 235.561 215.256 235.548 215.241C235.536 215.226 235.517 215.217 235.498 215.215Z" fill="#263238"/>
<path d="M222.744 198.488C222.089 198.435 221.431 198.474 220.788 198.602C220.713 198.602 220.734 198.724 220.788 198.717C221.462 198.65 222.069 198.67 222.71 198.65C222.72 198.652 222.731 198.652 222.742 198.65C222.753 198.648 222.763 198.644 222.772 198.638C222.781 198.632 222.789 198.624 222.795 198.615C222.801 198.606 222.805 198.596 222.808 198.585C222.81 198.575 222.81 198.564 222.808 198.553C222.806 198.543 222.802 198.532 222.796 198.523C222.79 198.514 222.782 198.506 222.773 198.5C222.764 198.494 222.754 198.49 222.744 198.488Z" fill="#263238"/>
<path d="M266.496 275.29H233.495L238.196 240.811L239.403 231.976H260.588L261.795 240.811L266.496 275.29Z" fill="#455A64"/>
<path d="M261.795 240.811H238.196L239.403 231.976H260.588L261.795 240.811Z" fill="#263238"/>
<path d="M263.623 228.907H236.375V236.394H263.623V228.907Z" fill="#455A64"/>
<path d="M261.269 44.231H164.105V2.11035H261.269V44.231Z" fill="#455A64"/>
<path d="M166.702 56.6542V44.2305H179.638L166.702 56.6542Z" fill="#455A64"/>
<path d="M253.587 9.3877H171.787V10.1903H253.587V9.3877Z" fill="white"/>
<path d="M228.935 13.7119H171.787V14.5145H228.935V13.7119Z" fill="white"/>
<path d="M243.821 22.3584H171.787V23.161H243.821V22.3584Z" fill="white"/>
<path d="M253.587 26.6816H171.787V27.4843H253.587V26.6816Z" fill="white"/>
<path d="M253.587 31.0049H171.787V31.8075H253.587V31.0049Z" fill="white"/>
<path d="M220.686 35.3281H171.787V36.1307H220.686V35.3281Z" fill="white"/>
<path d="M255.442 42.4099L254.808 41.1014L255.111 40.953L255.536 41.8366L257.364 40.0088L257.607 40.2449L255.442 42.4099Z" fill="#FFC107"/>
<path d="M256.845 42.4099L256.211 41.1014L256.514 40.953L256.946 41.8366L258.774 40.0088L259.01 40.2449L256.845 42.4099Z" fill="#FFC107"/>
<path d="M236.739 80.9019H189.964V52.3584H236.739V80.9019Z" fill="#FFC107"/>
<path d="M204.857 80.9023H192.433V93.8319L204.857 80.9023Z" fill="#FFC107"/>
<path d="M222.44 66.6571C222.44 67.0306 222.551 67.3957 222.758 67.7063C222.966 68.0168 223.261 68.2589 223.606 68.4018C223.951 68.5448 224.331 68.5822 224.697 68.5093C225.063 68.4364 225.4 68.2566 225.664 67.9925C225.928 67.7283 226.108 67.3918 226.181 67.0255C226.254 66.6592 226.216 66.2794 226.073 65.9344C225.93 65.5893 225.688 65.2943 225.378 65.0868C225.067 64.8793 224.702 64.7686 224.329 64.7686C223.828 64.7703 223.349 64.9699 222.995 65.3237C222.641 65.6774 222.442 66.1568 222.44 66.6571Z" fill="white"/>
<path d="M211.466 66.6571C211.466 67.0306 211.577 67.3957 211.785 67.7063C211.992 68.0168 212.287 68.2589 212.632 68.4018C212.977 68.5448 213.357 68.5822 213.723 68.5093C214.09 68.4364 214.426 68.2566 214.69 67.9925C214.954 67.7283 215.134 67.3918 215.207 67.0255C215.28 66.6592 215.243 66.2794 215.1 65.9344C214.957 65.5893 214.715 65.2943 214.404 65.0868C214.094 64.8793 213.728 64.7686 213.355 64.7686C212.854 64.7686 212.374 64.9675 212.02 65.3217C211.665 65.6759 211.466 66.1562 211.466 66.6571Z" fill="white"/>
<path d="M200.513 66.6571C200.513 67.0306 200.624 67.3957 200.831 67.7063C201.039 68.0168 201.334 68.2589 201.679 68.4018C202.024 68.5448 202.404 68.5822 202.77 68.5093C203.136 68.4364 203.473 68.2566 203.737 67.9925C204.001 67.7283 204.181 67.3918 204.254 67.0255C204.327 66.6592 204.289 66.2794 204.146 65.9344C204.003 65.5893 203.761 65.2943 203.451 65.0868C203.14 64.8793 202.775 64.7686 202.402 64.7686C201.901 64.7703 201.422 64.9699 201.068 65.3237C200.714 65.6774 200.515 66.1568 200.513 66.6571Z" fill="white"/>
<path d="M261.789 99.1729H209.011V136.323H261.789V99.1729Z" fill="#EBEBEB"/>
<path d="M209.011 114.315V101.892H196.075L209.011 114.315Z" fill="#EBEBEB"/>
<path d="M239.297 129.852C245.981 127.703 249.658 120.542 247.51 113.857C245.361 107.173 238.2 103.496 231.515 105.644C224.83 107.793 221.153 114.954 223.302 121.639C225.451 128.324 232.612 132.001 239.297 129.852Z" fill="#FFC107"/>
<path opacity="0.1" d="M235.255 130.463C233.258 130.44 231.294 129.948 229.522 129.026C227.75 128.103 226.221 126.777 225.057 125.153C223.894 123.53 223.129 121.655 222.824 119.681C222.52 117.707 222.685 115.689 223.306 113.79C223.926 111.892 224.985 110.166 226.397 108.753C227.808 107.34 229.533 106.279 231.431 105.656C233.329 105.034 235.347 104.867 237.321 105.169C239.295 105.471 241.171 106.234 242.796 107.396C240.744 106.048 238.302 105.421 235.854 105.615C233.407 105.809 231.094 106.811 229.279 108.465C227.465 110.119 226.253 112.329 225.834 114.748C225.415 117.167 225.813 119.657 226.965 121.825C228.118 123.992 229.959 125.715 232.199 126.72C234.438 127.725 236.949 127.957 239.334 127.378C241.72 126.798 243.845 125.442 245.374 123.521C246.903 121.601 247.75 119.226 247.78 116.771C247.797 115.178 247.473 113.601 246.829 112.144C247.783 114.095 248.222 116.258 248.105 118.427C247.987 120.596 247.316 122.698 246.156 124.534C244.995 126.37 243.385 127.879 241.477 128.917C239.569 129.955 237.427 130.487 235.255 130.463Z" fill="black"/>
<path d="M238.135 114.72C238.127 115.277 237.947 115.818 237.619 116.269C237.291 116.719 236.831 117.057 236.303 117.236C235.776 117.415 235.205 117.426 234.671 117.268C234.137 117.109 233.664 116.79 233.319 116.352C232.935 115.87 232.732 115.269 232.746 114.652L238.135 114.72Z" fill="#263238"/>
<path d="M237.521 116.406C237.264 116.717 236.941 116.966 236.575 117.135C236.209 117.304 235.81 117.39 235.407 117.385C235.004 117.379 234.607 117.284 234.246 117.105C233.885 116.927 233.568 116.669 233.319 116.352C233.909 115.854 234.659 115.586 235.43 115.596C236.202 115.606 236.944 115.893 237.521 116.406Z" fill="#FF99BA"/>
<path d="M227.06 115.279C227.654 116.164 228.484 116.864 229.455 117.303C230.373 116.758 231.119 115.966 231.606 115.016C232.098 113.856 231.674 112.649 230.776 112.433C229.488 112.123 229.286 114.348 229.286 114.348C229.286 114.348 228.841 112.163 227.593 112.615C226.723 112.939 226.44 114.18 227.06 115.279Z" fill="#FF99BA"/>
<path d="M243.801 115.488C243.186 116.359 242.34 117.041 241.359 117.457C240.456 116.889 239.732 116.078 239.268 115.117C238.803 113.943 239.268 112.75 240.158 112.554C241.453 112.278 241.602 114.503 241.602 114.503C241.602 114.503 242.101 112.331 243.335 112.817C244.198 113.154 244.455 114.402 243.801 115.488Z" fill="#FF99BA"/>
<path d="M255.772 134.489L255.138 133.181L255.442 133.032L255.867 133.916L257.695 132.088L257.937 132.324L255.772 134.489Z" fill="#FFC107"/>
<path d="M257.182 134.489L256.541 133.181L256.845 133.032L257.276 133.916L259.104 132.088L259.34 132.324L257.182 134.489Z" fill="#FFC107"/>
</svg>
