<svg width="427" height="347" viewBox="0 0 427 347" fill="none" xmlns="http://www.w3.org/2000/svg">
<path d="M213.103 347.001C304.382 347.001 378.378 342.28 378.378 336.457C378.378 330.634 304.382 325.914 213.103 325.914C121.825 325.914 47.8289 330.634 47.8289 336.457C47.8289 342.28 121.825 347.001 213.103 347.001Z" fill="#F5F5F5"/>
<path d="M252.468 121.546L252.732 114.346C252.732 114.346 254.496 112.437 254.496 111.198C254.496 109.959 252.468 102.871 251.581 102.536C250.695 102.2 245.93 104.669 245.844 106.261C245.759 107.854 248.316 113.713 248.76 114.141L248.052 121.788L252.468 121.546Z" fill="#E4897B"/>
<path d="M324.266 111.608L321.999 104.483C321.033 103.729 320.137 102.874 319.322 101.931C318.7 101 322.17 94.2842 322.681 94.2842C324.362 94.9691 325.937 95.9302 327.352 97.1342C327.864 97.8048 325.153 103.281 325.153 103.281L328.52 109.429L324.266 111.608Z" fill="#E4897B"/>
<path d="M311.08 110.406C314.208 110.741 329.236 128.298 329.236 128.298L322.749 108.609L327.864 106.699C327.864 106.699 340.531 128.745 337.752 136.839C334.973 144.933 310.159 126.38 310.159 126.38L311.08 110.406Z" fill="#407BFF"/>
<path d="M262.986 319.924L259.483 314.922L265.416 308.663L270.812 302.981L275.884 308.16L269.064 314.391L262.986 319.924Z" fill="#E4897B"/>
<path d="M259.278 313.384C259.798 312.984 264.137 320.091 264.137 320.091C264.137 320.091 263.174 327.542 265.135 332.282C267.095 337.023 263.285 336.66 260.114 332.133L252.289 320.957C250.038 317.706 253.951 317.604 259.278 313.384Z" fill="#2E353A"/>
<path d="M264.069 321.47C264.069 321.47 266.976 320.445 267.317 322.159C267.7 324.134 264.069 321.47 264.069 321.47ZM264.069 321.47C264.069 321.47 267.001 323.854 266.226 324.935C265.049 326.555 264.069 321.47 264.069 321.47Z" stroke="#407BFF" stroke-width="0.48312" stroke-linecap="round" stroke-linejoin="round"/>
<path opacity="0.2" d="M269.064 314.391L265.416 308.663L270.812 302.981L275.884 308.16L269.064 314.391Z" fill="black"/>
<path d="M298.046 327.85H292.275L291.329 319.076L290.477 311.029L297.322 309.809L297.705 319.365L298.046 327.85Z" fill="#E4897B"/>
<path d="M291.039 327.449C291.039 326.751 298.865 327.3 298.865 327.3C298.865 327.3 303.672 332.637 308.335 333.82C312.998 335.003 310.398 338.095 305.164 338.095H292.275C288.567 338.095 290.886 334.649 291.039 327.449Z" fill="#2E353A"/>
<path d="M299.828 328.195C299.828 328.195 300.851 325.047 302.3 325.792C304.005 326.658 299.828 328.195 299.828 328.195ZM299.828 328.195C299.828 328.195 303.348 327.096 303.655 328.418C304.124 330.43 299.828 328.195 299.828 328.195Z" stroke="#407BFF" stroke-width="0.48312" stroke-linecap="round" stroke-linejoin="round"/>
<path opacity="0.2" d="M297.705 319.561L291.329 319.253L290.477 311.113L297.322 309.855L297.705 319.561Z" fill="black"/>
<path d="M312.435 176.274C312.435 176.274 329.483 220.283 332.151 239.609C334.819 258.936 274.307 310.684 274.307 310.684L268.118 303.494C268.118 303.494 313.142 252.919 313.142 244.22C313.142 235.52 295.583 195.787 295.583 195.787C295.583 195.787 293.886 179.758 312.435 176.274Z" fill="#407BFF"/>
<path opacity="0.6" d="M300.101 286.589C293.921 292.81 287.937 298.427 283.291 302.674C277.895 307.592 274.307 310.665 274.307 310.665L268.118 303.475C268.118 303.475 274.307 296.536 282.081 287.343C288.201 280.115 295.319 271.509 301.192 263.797C308.011 254.856 313.125 247.135 313.125 244.238C313.125 239.646 308.241 226.439 303.63 214.964C299.487 204.719 295.566 195.806 295.566 195.806C295.448 193.976 295.613 192.137 296.052 190.366C297.236 185.383 300.979 178.463 312.426 176.312C312.426 176.312 329.475 220.32 332.134 239.646C333.617 250.143 316.194 270.401 300.101 286.589Z" fill="white"/>
<path opacity="0.2" d="M301.192 263.798L300.101 286.589C293.921 292.811 287.937 298.427 283.291 302.674C282.223 297.653 281.815 292.491 282.081 287.343C288.201 280.116 295.319 271.51 301.192 263.798Z" fill="black"/>
<path opacity="0.2" d="M303.647 214.928C299.504 204.683 295.583 195.769 295.583 195.769C295.466 193.939 295.63 192.101 296.069 190.33C296.657 189.894 297.313 189.579 298.004 189.398C298.004 189.398 303.041 198.088 303.647 214.928Z" fill="black"/>
<path d="M281.731 75.2741C281.731 75.2741 286.905 68.2235 295.37 69.7975C303.834 71.3716 302.368 88.4813 302.368 88.4813C303.949 89.9599 305.127 91.8865 305.77 94.0491C306.414 96.2117 306.499 98.5264 306.016 100.738C304.363 108.497 285.055 112.986 277.674 107.593C270.292 102.201 275.969 85.091 279.557 82.6694C283.146 80.2477 281.731 75.2741 281.731 75.2741Z" fill="#2E353A"/>
<path d="M298.166 189.445L299.197 251.401V314.81H289.539C266.473 194.661 282.285 164.539 282.285 164.539H282.345C282.345 164.493 282.345 164.437 282.396 164.4C286.104 155.402 310.398 162.034 310.398 162.034C312.145 169.485 313.219 184.639 313.219 184.639L298.166 189.445Z" fill="#407BFF"/>
<path opacity="0.6" d="M298.166 189.445L299.197 251.401V314.81H289.539C266.473 194.661 282.285 164.539 282.285 164.539H282.345C282.345 164.493 282.345 164.437 282.396 164.4C286.104 155.402 310.398 162.034 310.398 162.034C312.145 169.485 313.219 184.639 313.219 184.639L298.166 189.445Z" fill="white"/>
<path d="M282.149 159.901V164.409L310.278 162.052V156.725L282.149 159.901Z" fill="#2E353A"/>
<path d="M291.578 158.039L290.182 158.117L290.544 165.884L291.94 165.806L291.578 158.039Z" fill="#407BFF"/>
<path d="M303.779 157.803L297.632 158.404L298.05 163.497L304.196 162.895L303.779 157.803Z" fill="white"/>
<path d="M308.772 155.958L307.376 156.036L307.738 163.803L309.135 163.725L308.772 155.958Z" fill="#407BFF"/>
<path opacity="0.6" d="M291.578 158.039L290.182 158.117L290.544 165.884L291.94 165.806L291.578 158.039Z" fill="white"/>
<path opacity="0.6" d="M308.772 155.958L307.376 156.036L307.738 163.803L309.135 163.725L308.772 155.958Z" fill="white"/>
<path d="M310.398 157.265L282.268 159.92C281.603 148.492 280.938 141.124 274.741 120.801C274.204 119.022 273.625 117.132 272.985 115.138C276.805 113.806 280.708 112.776 284.663 112.056C288.838 111.246 293.059 110.76 297.296 110.603C302.769 110.603 309.059 111.227 309.059 111.227C309.059 111.227 309.954 111.459 310.517 117.802C311.02 123.707 311.523 135.61 310.398 157.265Z" fill="#407BFF"/>
<path opacity="0.3" d="M310.398 157.265L282.268 159.92C281.603 148.492 280.938 141.124 274.741 120.801C274.204 119.022 273.625 117.132 272.985 115.138C276.805 113.806 280.708 112.776 284.663 112.056C288.838 111.246 293.059 110.76 297.296 110.603C302.769 110.603 309.059 111.227 309.059 111.227C309.059 111.227 309.954 111.459 310.517 117.802C311.02 123.707 311.523 135.61 310.398 157.265Z" fill="black"/>
<path d="M294.935 117.355C287.996 116.423 285.916 113.145 285.916 113.145C290.315 108.609 286.658 100.748 286.658 100.748L295.003 102.452C294.807 103.724 294.699 105.01 294.679 106.299C294.611 111.832 296.904 111.888 296.904 111.888C298.404 114.877 294.935 117.355 294.935 117.355Z" fill="#E4897B"/>
<path opacity="0.2" d="M295.037 102.453C294.841 103.724 294.733 105.01 294.713 106.299C290.69 105.275 286.692 100.711 286.692 100.711L295.037 102.453Z" fill="black"/>
<path d="M287.596 77.2026C294.671 75.3398 297.825 78.9257 300.084 86.7494C302.888 96.529 302.402 104.12 293.102 104.288C280.444 104.511 275.858 80.2483 287.596 77.2026Z" fill="#E4897B"/>
<path d="M295.421 87.5498C296.238 88.5576 297.162 89.455 298.174 90.2229C298.034 90.6 297.8 90.9266 297.499 91.1654C297.198 91.4041 296.841 91.5456 296.469 91.5734L295.421 87.5498Z" fill="#DE5753"/>
<path d="M290.954 87.9878C291.108 88.6212 290.954 89.2173 290.536 89.329C290.119 89.4408 289.684 89.0217 289.565 88.3976C289.445 87.7736 289.565 87.1682 289.982 87.0564C290.4 86.9447 290.809 87.3545 290.954 87.9878Z" fill="#2E353A"/>
<path d="M289.82 87.1218L290.954 86.1904C290.954 86.1904 290.613 87.5503 289.82 87.1218Z" fill="#2E353A"/>
<path d="M298.106 85.8081C298.259 86.4322 298.063 87.0376 297.68 87.1493C297.296 87.2611 296.827 86.8327 296.708 86.218C296.589 85.6032 296.751 84.9885 297.134 84.8767C297.518 84.765 297.953 85.1748 298.106 85.8081Z" fill="#2E353A"/>
<path d="M296.981 84.9333L298.106 84.002C298.106 84.002 297.756 85.3711 296.981 84.9333Z" fill="#2E353A"/>
<path d="M289.727 82.6699C289.152 82.7407 288.599 82.9546 288.111 83.2953C287.624 83.636 287.214 84.0944 286.914 84.6352" stroke="#2E353A" stroke-width="0.72468" stroke-linecap="round" stroke-linejoin="round"/>
<path d="M294.799 81.0303C295.254 80.7729 295.756 80.631 296.268 80.6148C296.78 80.5987 297.289 80.7089 297.756 80.9371" stroke="#2E353A" stroke-width="0.72468" stroke-linecap="round" stroke-linejoin="round"/>
<path d="M296.128 94.834C295.984 95.792 295.902 96.7599 295.881 97.7306L295.421 97.8051C293.315 98.1125 292.241 97.4884 291.696 96.7154C291.437 96.3265 291.264 95.8767 291.193 95.4021C291.158 95.1334 291.158 94.8605 291.193 94.5918C292.575 95.0375 294.029 95.1519 295.455 94.9271C295.847 94.8898 296.128 94.834 296.128 94.834Z" fill="#2E353A"/>
<path d="M295.404 94.9271L295.319 95.784C293.332 96.0634 291.909 95.9703 291.193 95.4021C291.158 95.1334 291.158 94.8605 291.193 94.5918C292.559 95.0295 293.994 95.1438 295.404 94.9271Z" fill="white"/>
<path d="M295.421 97.7957C293.315 98.1031 292.241 97.479 291.696 96.706C292.494 96.6047 293.302 96.6583 294.083 96.8643C294.608 97.0119 295.076 97.338 295.421 97.7957Z" fill="#DE5753"/>
<path d="M282.694 92.2065C282.694 92.2065 284.621 85.0068 283.061 80.238C283.061 80.238 295.711 70.356 299.777 85.7146C299.777 85.7146 298.157 71.5575 285.933 74.3982C273.71 77.239 277.98 96.6585 285.507 100.822C285.507 100.84 281.509 96.7237 282.694 92.2065Z" fill="#2E353A"/>
<path d="M284.203 93.5572C283.94 92.6832 283.371 91.9586 282.62 91.5415C281.869 91.1244 280.998 91.0488 280.197 91.3311C278.057 92.1508 278.083 97.3386 283.785 97.1151C284.604 97.0778 284.868 96.1278 284.203 93.5572Z" fill="#E4897B"/>
<path d="M310.509 117.755C299.939 123.465 283.743 122.133 274.707 120.754C274.17 118.975 273.591 117.085 272.951 115.092C276.771 113.759 280.674 112.729 284.629 112.009C288.803 111.199 293.025 110.713 297.262 110.556C302.735 110.556 309.025 111.18 309.025 111.18C309.025 111.18 309.946 111.413 310.509 117.755Z" fill="#E4897B"/>
<path d="M278.884 111.98C278.884 111.98 286.462 122.561 286.692 134.027C286.922 145.492 279.924 198.386 279.924 198.386L271.485 195.778C271.485 195.778 277.861 155.076 271.485 115.762L278.884 111.98Z" fill="#407BFF"/>
<path d="M302.368 110.835C302.368 110.835 305.454 121.797 305.045 129.677C304.635 137.557 312.435 176.349 312.435 176.349L314.702 182.31L312.461 158.252C312.461 158.252 313.816 122.943 311.08 110.835H302.368Z" fill="#407BFF"/>
<path d="M287.596 77.2021C287.596 77.2021 290.213 86.9352 282.242 91.3407C272.61 96.6682 273.531 108.18 282.924 109.643C282.924 109.643 273.437 108.599 271.596 101.828C269.755 95.0569 275.005 84.6346 275.005 84.6346C275.005 84.6346 272.124 78.9065 279.907 74.3893C284.271 71.8745 287.596 77.2021 287.596 77.2021Z" fill="#2E353A"/>
<path d="M288.295 313.293L300.365 311.355L299.359 316.627L289.394 318.089L288.295 313.293Z" fill="#407BFF"/>
<path d="M268.118 301.044L276.216 310.665L272.167 313.199L265.919 305.952L268.118 301.044Z" fill="#407BFF"/>
<path d="M316.092 89.7478C314.634 86.8977 311.83 85.5938 309.767 86.8418C307.704 88.0899 307.269 91.3963 308.718 94.2464C310.168 97.0965 312.981 98.3911 315.043 97.1524C317.106 95.9136 317.549 92.5885 316.092 89.7478Z" fill="#407BFF"/>
<path d="M332.637 79.7637L327.625 69.6953C327.625 69.6953 324.13 77.9009 319.101 80.9745L321.658 85.9668L322.059 86.7491L324.616 91.7414C329.645 88.6678 337.871 89.7017 337.871 89.7017L332.637 79.7637Z" fill="#407BFF"/>
<path opacity="0.8" d="M316.092 89.7478C314.634 86.8977 311.83 85.5938 309.767 86.8418C307.704 88.0899 307.269 91.3963 308.718 94.2464C310.168 97.0965 312.981 98.3911 315.043 97.1524C317.106 95.9136 317.549 92.5885 316.092 89.7478Z" fill="white"/>
<path opacity="0.8" d="M332.637 79.7637L327.625 69.6953C327.625 69.6953 324.13 77.9009 319.101 80.9745L321.658 85.9668L322.059 86.7491L324.616 91.7414C329.645 88.6678 337.871 89.7017 337.871 89.7017L332.637 79.7637Z" fill="white"/>
<path d="M315.751 95.6445C315.751 95.6445 319.374 101.373 322.758 103.468C322.874 103.538 323.01 103.559 323.14 103.528C323.27 103.497 323.385 103.417 323.465 103.301L326.355 99.3981C326.405 99.3242 326.439 99.2392 326.455 99.1493C326.471 99.0594 326.469 98.9666 326.448 98.8777C326.428 98.7888 326.39 98.7059 326.337 98.6348C326.284 98.5638 326.217 98.5064 326.142 98.4667C324.718 97.7774 321.394 96.0078 319.476 93.5303C316.987 90.289 315.751 95.6445 315.751 95.6445Z" fill="#407BFF"/>
<path opacity="0.3" d="M315.751 95.6445C315.751 95.6445 319.374 101.373 322.758 103.468C322.874 103.538 323.01 103.559 323.14 103.528C323.27 103.497 323.385 103.417 323.465 103.301L326.355 99.3981C326.405 99.3242 326.439 99.2392 326.455 99.1493C326.471 99.0594 326.469 98.9666 326.448 98.8777C326.428 98.7888 326.39 98.7059 326.337 98.6348C326.284 98.5638 326.217 98.5064 326.142 98.4667C324.718 97.7774 321.394 96.0078 319.476 93.5303C316.987 90.289 315.751 95.6445 315.751 95.6445Z" fill="black"/>
<path d="M337.811 89.9997C336.661 90.6982 333.387 86.7025 330.506 81.0676C327.625 75.4327 326.244 70.3007 327.378 69.5928C328.511 68.885 331.802 72.89 334.683 78.5156C337.564 84.1412 338.971 89.2918 337.811 89.9997Z" fill="white"/>
<path opacity="0.4" d="M337.343 88.332C336.49 88.8629 333.933 85.7148 331.521 81.1975C331.384 80.946 331.248 80.6759 331.111 80.4058C330.975 80.1357 330.787 79.7725 330.634 79.4744C328.426 74.9106 327.335 70.9801 328.188 70.4585C329.04 69.937 331.913 73.4483 334.436 78.3847C336.959 83.3211 338.263 87.7732 337.343 88.332Z" fill="black"/>
<path d="M314.54 98.1954C314.54 98.1954 313.304 97.264 311.063 92.8492C308.633 88.0991 308.701 86.7765 308.701 86.7765L319.928 79.9121C319.928 79.9121 320.064 81.6352 322.34 86.0872C324.616 90.5393 325.75 91.331 325.75 91.331L314.54 98.1954Z" fill="#407BFF"/>
<path d="M331.521 81.1983C331.384 80.9468 331.248 80.6767 331.111 80.4066C330.975 80.1365 330.787 79.7733 330.634 79.4752L331.793 79.0747C331.917 79.0329 332.05 79.042 332.168 79.1004C332.286 79.1587 332.38 79.2623 332.433 79.3914L332.526 79.5777C332.6 79.6927 332.632 79.8335 332.616 79.9728C332.601 80.1121 332.538 80.2401 332.441 80.3321L331.521 81.1983Z" fill="white"/>
<path opacity="0.2" d="M331.521 81.1983C331.384 80.9468 331.248 80.6767 331.111 80.4066C330.975 80.1365 330.787 79.7733 330.634 79.4752L331.793 79.0747C331.917 79.0329 332.05 79.042 332.168 79.1004C332.286 79.1587 332.38 79.2623 332.433 79.3914L332.526 79.5777C332.6 79.6927 332.632 79.8335 332.616 79.9728C332.601 80.1121 332.538 80.2401 332.441 80.3321L331.521 81.1983Z" fill="black"/>
<path d="M271.485 115.753C267.572 117.616 253.584 144.906 253.584 144.906L253.312 119.106L246.995 118.175C246.995 118.175 243.151 154.769 251.385 156.865C259.619 158.96 274.724 132.872 274.724 132.872L271.485 115.753Z" fill="#407BFF"/>
<path d="M286.692 76.0469C286.692 76.0469 290.315 78.9063 287.621 86.3667" stroke="#2E353A" stroke-width="0.5" stroke-linecap="round" stroke-linejoin="round"/>
<path d="M301.592 87.876C301.592 87.876 311.557 94.9266 305.096 104.008" stroke="#2E353A" stroke-width="0.5" stroke-linecap="round" stroke-linejoin="round"/>
<path d="M242.009 21.3105H98.8544C93.9583 21.3105 89.9893 25.6473 89.9893 30.997V327.804C89.9893 333.154 93.9583 337.491 98.8544 337.491H242.009C246.905 337.491 250.874 333.154 250.874 327.804V30.997C250.874 25.6473 246.905 21.3105 242.009 21.3105Z" fill="#2E353A"/>
<path d="M245.495 31.9091V326.341C245.495 326.912 245.391 327.477 245.19 328.003C244.988 328.53 244.693 329.007 244.321 329.407C243.948 329.808 243.507 330.123 243.023 330.336C242.538 330.548 242.019 330.653 241.497 330.644H99.0419C98.5677 330.651 98.0971 330.553 97.6583 330.356C97.2195 330.159 96.8215 329.868 96.4881 329.499C96.1547 329.131 95.8928 328.692 95.7179 328.211C95.543 327.729 95.4588 327.213 95.4703 326.695V31.5552C95.4532 31.0981 95.5189 30.6419 95.6635 30.2126C95.8082 29.7833 96.0291 29.3895 96.3134 29.0538C96.5977 28.718 96.9399 28.4469 97.3204 28.256C97.7009 28.0651 98.1121 27.9582 98.5305 27.9414H134.144C134.643 27.9511 135.127 28.1229 135.535 28.4348C135.944 28.7467 136.258 29.1845 136.437 29.6924L137.912 33.6602C138.094 34.1646 138.409 34.5985 138.818 34.9069C139.226 35.2153 139.709 35.3843 140.205 35.3926H200.837C201.331 35.3903 201.813 35.2269 202.222 34.9232C202.63 34.6195 202.947 34.1894 203.13 33.6881L204.579 29.7017C204.765 29.192 205.084 28.7533 205.496 28.4403C205.908 28.1272 206.396 27.9537 206.898 27.9414H242C242.942 27.9706 243.836 28.4027 244.49 29.1447C245.143 29.8867 245.504 30.8794 245.495 31.9091Z" fill="#407BFF"/>
<path opacity="0.2" d="M245.495 47.0361H95.4703V83.8262H245.495V47.0361Z" fill="white"/>
<path opacity="0.6" d="M112.391 39.7988H114.24V37.0978H112.391V39.7988Z" fill="white"/>
<path opacity="0.6" d="M109.373 39.8076H111.223V36.2031H109.373V39.8076Z" fill="white"/>
<path opacity="0.6" d="M106.356 39.8076H108.205V35.309H106.356V39.8076Z" fill="white"/>
<path opacity="0.6" d="M103.33 39.7988H105.179V34.3967H103.33V39.7988Z" fill="white"/>
<path opacity="0.6" d="M228.907 36.1201H227.807V38.8212H228.907V36.1201Z" fill="white"/>
<path opacity="0.6" d="M229.649 39.8076H238.403V35.1413H229.649V39.8076Z" fill="white"/>
<path opacity="0.6" d="M167.081 30.5773C168.221 30.5773 169.144 29.5682 169.144 28.3233C169.144 27.0785 168.221 26.0693 167.081 26.0693C165.942 26.0693 165.019 27.0785 165.019 28.3233C165.019 29.5682 165.942 30.5773 167.081 30.5773Z" fill="white"/>
<path opacity="0.6" d="M173.313 28.3235C173.313 28.6091 173.235 28.8882 173.09 29.1256C172.945 29.363 172.738 29.548 172.497 29.6573C172.256 29.7666 171.99 29.7952 171.734 29.7395C171.477 29.6838 171.242 29.5463 171.057 29.3444C170.872 29.1425 170.747 28.8852 170.696 28.6052C170.645 28.3251 170.671 28.0349 170.771 27.7711C170.871 27.5073 171.04 27.2818 171.257 27.1232C171.475 26.9646 171.73 26.8799 171.991 26.8799C172.342 26.8799 172.678 27.032 172.926 27.3027C173.173 27.5735 173.313 27.9407 173.313 28.3235Z" fill="white"/>
<path opacity="0.2" d="M245.495 274.762V326.342C245.495 326.913 245.391 327.478 245.19 328.004C244.988 328.531 244.693 329.008 244.321 329.408C243.948 329.809 243.507 330.124 243.023 330.337C242.538 330.549 242.019 330.654 241.497 330.645H99.0419C98.5676 330.652 98.097 330.554 97.6583 330.357C97.2195 330.16 96.8215 329.869 96.4881 329.5C96.1547 329.131 95.8928 328.693 95.7179 328.211C95.543 327.73 95.4588 327.214 95.4703 326.696V274.762H245.495Z" fill="white"/>
<path d="M111.947 176.229L170.431 122.534L228.907 176.229L183.056 243.429L141.876 242.526L111.947 176.229Z" fill="#407BFF"/>
<path opacity="0.3" d="M111.947 176.229L170.431 122.534L228.907 176.229L183.056 243.429L141.876 242.526L111.947 176.229Z" fill="black"/>
<path d="M210.103 104.838H130.752C129.692 104.838 128.834 105.776 128.834 106.934V235.634C128.834 236.791 129.692 237.729 130.752 237.729H210.103C211.162 237.729 212.021 236.791 212.021 235.634V106.934C212.021 105.776 211.162 104.838 210.103 104.838Z" fill="white"/>
<path opacity="0.2" d="M202.559 116.834H138.304C137.965 116.834 137.69 117.134 137.69 117.505V118.864C137.69 119.235 137.965 119.535 138.304 119.535H202.559C202.898 119.535 203.173 119.235 203.173 118.864V117.505C203.173 117.134 202.898 116.834 202.559 116.834Z" fill="black"/>
<path opacity="0.2" d="M202.559 125.841H138.304C137.965 125.841 137.69 126.141 137.69 126.511V127.871C137.69 128.242 137.965 128.542 138.304 128.542H202.559C202.898 128.542 203.173 128.242 203.173 127.871V126.511C203.173 126.141 202.898 125.841 202.559 125.841Z" fill="black"/>
<path opacity="0.2" d="M202.559 134.847H138.304C137.965 134.847 137.69 135.147 137.69 135.517V136.877C137.69 137.247 137.965 137.548 138.304 137.548H202.559C202.898 137.548 203.173 137.247 203.173 136.877V135.517C203.173 135.147 202.898 134.847 202.559 134.847Z" fill="black"/>
<path opacity="0.2" d="M202.559 143.854H138.304C137.965 143.854 137.69 144.155 137.69 144.525V145.885C137.69 146.255 137.965 146.556 138.304 146.556H202.559C202.898 146.556 203.173 146.255 203.173 145.885V144.525C203.173 144.155 202.898 143.854 202.559 143.854Z" fill="black"/>
<path opacity="0.2" d="M202.559 152.86H138.304C137.965 152.86 137.69 153.161 137.69 153.531V154.891C137.69 155.261 137.965 155.561 138.304 155.561H202.559C202.898 155.561 203.173 155.261 203.173 154.891V153.531C203.173 153.161 202.898 152.86 202.559 152.86Z" fill="black"/>
<path opacity="0.2" d="M202.559 161.866H138.304C137.965 161.866 137.69 162.166 137.69 162.537V163.897C137.69 164.267 137.965 164.567 138.304 164.567H202.559C202.898 164.567 203.173 164.267 203.173 163.897V162.537C203.173 162.166 202.898 161.866 202.559 161.866Z" fill="black"/>
<path opacity="0.2" d="M202.559 170.874H138.304C137.965 170.874 137.69 171.174 137.69 171.545V172.904C137.69 173.275 137.965 173.575 138.304 173.575H202.559C202.898 173.575 203.173 173.275 203.173 172.904V171.545C203.173 171.174 202.898 170.874 202.559 170.874Z" fill="black"/>
<path opacity="0.2" d="M202.559 179.871H138.304C137.965 179.871 137.69 180.171 137.69 180.542V181.902C137.69 182.272 137.965 182.572 138.304 182.572H202.559C202.898 182.572 203.173 182.272 203.173 181.902V180.542C203.173 180.171 202.898 179.871 202.559 179.871Z" fill="black"/>
<path opacity="0.2" d="M202.559 188.878H138.304C137.965 188.878 137.69 189.178 137.69 189.549V190.908C137.69 191.279 137.965 191.579 138.304 191.579H202.559C202.898 191.579 203.173 191.279 203.173 190.908V189.549C203.173 189.178 202.898 188.878 202.559 188.878Z" fill="black"/>
<path d="M173.56 223.06L173.236 222.864C172.657 222.509 172.004 222.323 171.339 222.323C170.675 222.323 170.022 222.509 169.443 222.864L167.866 223.842L111.666 176.229V254.821C111.668 255.368 111.77 255.909 111.966 256.413C112.161 256.917 112.447 257.374 112.805 257.756C113.164 258.138 113.588 258.439 114.054 258.64C114.52 258.841 115.018 258.939 115.519 258.928H225.344C227.458 258.928 228.447 257.149 228.447 254.821V176.229L173.56 223.06Z" fill="#407BFF"/>
<path opacity="0.6" d="M173.56 223.06L173.236 222.864C172.657 222.509 172.004 222.323 171.339 222.323C170.675 222.323 170.022 222.509 169.443 222.864L167.866 223.842L111.666 176.229V254.821C111.668 255.368 111.77 255.909 111.966 256.413C112.161 256.917 112.447 257.374 112.805 257.756C113.164 258.138 113.588 258.439 114.054 258.64C114.52 258.841 115.018 258.939 115.519 258.928H225.344C227.458 258.928 228.447 257.149 228.447 254.821V176.229L173.56 223.06Z" fill="white"/>
<path opacity="0.2" d="M165.325 221.709L167.866 223.861L128.152 248.496L165.325 221.709Z" fill="black"/>
<path opacity="0.2" d="M216.939 249.428L173.5 223.106L175.503 221.393L216.939 249.428Z" fill="black"/>
<path d="M195.629 52.7822H148.175C147.784 52.7822 147.467 53.1283 147.467 53.5553V56.9735C147.467 57.4004 147.784 57.7466 148.175 57.7466H195.629C196.02 57.7466 196.336 57.4004 196.336 56.9735V53.5553C196.336 53.1283 196.02 52.7822 195.629 52.7822Z" fill="#407BFF"/>
<path d="M234.985 78.8608H213.103C212.35 78.8584 211.628 78.5295 211.096 77.9464C210.564 77.3633 210.265 76.5734 210.265 75.75C210.265 74.9274 210.564 74.1385 211.096 73.5569C211.628 72.9752 212.35 72.6484 213.103 72.6484H234.985C235.738 72.6484 236.46 72.9752 236.992 73.5569C237.524 74.1385 237.823 74.9274 237.823 75.75C237.823 76.5734 237.524 77.3633 236.992 77.9464C236.46 78.5295 235.738 78.8584 234.985 78.8608Z" fill="#407BFF"/>
<path d="M128.152 282.52H106.27V305.18H128.152V282.52Z" fill="#407BFF"/>
<path d="M154.764 282.52H132.883V305.18H154.764V282.52Z" fill="#407BFF"/>
<path d="M181.385 282.52H159.504V305.18H181.385V282.52Z" fill="#407BFF"/>
<path d="M208.006 282.52H186.124V305.18H208.006V282.52Z" fill="#407BFF"/>
<path d="M234.618 282.52H212.737V305.18H234.618V282.52Z" fill="#407BFF"/>
<path d="M234.985 321.173H213.103C212.35 321.173 211.628 320.847 211.096 320.265C210.564 319.683 210.265 318.894 210.265 318.072C210.265 317.248 210.564 316.458 211.096 315.875C211.628 315.292 212.35 314.963 213.103 314.961H234.985C235.738 314.963 236.46 315.292 236.992 315.875C237.524 316.458 237.823 317.248 237.823 318.072C237.823 318.894 237.524 319.683 236.992 320.265C236.46 320.847 235.738 321.173 234.985 321.173Z" fill="#407BFF"/>
<path opacity="0.1" d="M230.117 21.4219L89.9893 239.294V142.773L167.968 21.4219H230.117Z" fill="white"/>
<path opacity="0.1" d="M149.053 21.4221L90.3559 113.015V31.0527C90.3097 29.8012 90.4964 28.5525 90.9048 27.3822C91.3131 26.2118 91.9345 25.1442 92.7314 24.2438C93.5283 23.3435 94.4841 22.6292 95.5409 22.1442C96.5978 21.6592 97.7337 21.4135 98.88 21.4221H149.053Z" fill="white"/>
<path d="M286.044 37.1719C248.461 42.9559 198.399 59.2553 155.403 79.6994C127.427 92.9997 78.6265 119.479 66.1557 147.365C62.4221 155.748 62.388 163.516 66.0705 170.492C69.7529 177.468 78.3026 182.32 90.3557 185.627V184.099C78.8481 180.923 70.6479 176.331 67.2127 169.802C63.7775 163.273 63.803 155.897 67.3406 147.98C76.3165 127.899 108.614 103.478 155.992 80.9754C198.817 60.5406 248.751 44.325 286.223 38.5597C286.392 38.5337 286.544 38.4358 286.646 38.2873C286.748 38.1388 286.792 37.952 286.769 37.768C286.745 37.584 286.655 37.4178 286.519 37.306C286.384 37.1942 286.213 37.146 286.044 37.1719Z" fill="white"/>
<path d="M286.044 37.1719C248.461 42.9559 198.399 59.2553 155.403 79.6994C127.427 92.9997 78.6265 119.479 66.1557 147.365C62.4221 155.748 62.388 163.516 66.0705 170.492C69.7529 177.468 78.3026 182.32 90.3557 185.627V184.099C78.8481 180.923 70.6479 176.331 67.2127 169.802C63.7775 163.273 63.803 155.897 67.3406 147.98C76.3165 127.899 108.614 103.478 155.992 80.9754C198.817 60.5406 248.751 44.325 286.223 38.5597C286.392 38.5337 286.544 38.4358 286.646 38.2873C286.748 38.1388 286.792 37.952 286.769 37.768C286.745 37.584 286.655 37.4178 286.519 37.306C286.384 37.1942 286.213 37.146 286.044 37.1719Z" fill="#407BFF"/>
<path d="M66.6245 170.846C66.5116 170.846 66.4007 170.814 66.3032 170.751C66.2058 170.689 66.1254 170.599 66.0705 170.492C62.388 163.516 62.4221 155.729 66.1557 147.365C78.6265 119.479 127.427 92.9997 155.403 79.6994C198.399 59.2553 248.461 42.9559 286.044 37.1719C286.213 37.146 286.384 37.1942 286.519 37.306C286.655 37.4178 286.745 37.584 286.769 37.768C286.792 37.952 286.748 38.1388 286.646 38.2873C286.544 38.4358 286.392 38.5337 286.223 38.5597C248.717 44.325 198.817 60.5778 155.915 80.9754C108.58 103.478 76.2824 127.899 67.3406 147.98C63.803 155.897 63.7604 163.245 67.2127 169.802C67.2906 169.961 67.3092 170.147 67.2648 170.321C67.2203 170.494 67.1161 170.642 66.974 170.734C66.8701 170.808 66.7486 170.847 66.6245 170.846Z" fill="#407BFF"/>
<g opacity="0.8">
<path d="M66.6245 170.846C66.5116 170.846 66.4007 170.814 66.3032 170.751C66.2058 170.689 66.1254 170.599 66.0705 170.492C62.388 163.516 62.4221 155.729 66.1557 147.365C78.6265 119.479 127.427 92.9997 155.403 79.6994C198.399 59.2553 248.461 42.9559 286.044 37.1719C286.213 37.146 286.384 37.1942 286.519 37.306C286.655 37.4178 286.745 37.584 286.769 37.768C286.792 37.952 286.748 38.1388 286.646 38.2873C286.544 38.4358 286.392 38.5337 286.223 38.5597C248.717 44.325 198.817 60.5778 155.915 80.9754C108.58 103.478 76.2824 127.899 67.3406 147.98C63.803 155.897 63.7604 163.245 67.2127 169.802C67.2906 169.961 67.3092 170.147 67.2648 170.321C67.2203 170.494 67.1161 170.642 66.974 170.734C66.8701 170.808 66.7486 170.847 66.6245 170.846Z" fill="white"/>
</g>
<path d="M303.612 47.0355L339.823 26.0791L308.147 37.4701L303.612 47.0355Z" fill="#407BFF"/>
<path opacity="0.3" d="M303.612 47.0355L339.823 26.0791L308.147 37.4701L303.612 47.0355Z" fill="black"/>
<path d="M295.054 28.4821L301.754 33.5303L303.612 47.0355L308.147 37.4701L319.621 43.7756L339.823 26.0791L295.054 28.4821Z" fill="#407BFF"/>
<path opacity="0.6" d="M295.054 28.4821L301.754 33.5303L303.612 47.0355L308.147 37.4701L319.621 43.7756L339.823 26.0791L295.054 28.4821Z" fill="white"/>
<path opacity="0.2" d="M301.754 33.5303L339.823 26.0791L308.147 37.4701L303.612 47.0355L301.754 33.5303Z" fill="black"/>
</svg>
